<svg width="400" height="65" viewBox="0 0 400 65" fill="none" xmlns="http://www.w3.org/2000/svg">
<path d="M116.684 7.10938L113.648 17.5625H115.547L115.125 19.0156H113.203L111.973 23.2812H110.25L111.492 19.0156H105.75L106.242 17.375L115.793 7.10938H116.684ZM114.082 10.1328L107.25 17.5625H111.949L114.082 10.1328ZM118.992 20.9023C119.328 20.9023 119.609 21.0195 119.836 21.2539C120.07 21.4805 120.188 21.7578 120.188 22.0859C120.188 22.4141 120.07 22.6953 119.836 22.9297C119.602 23.1562 119.32 23.2695 118.992 23.2695C118.664 23.2695 118.383 23.1562 118.148 22.9297C117.922 22.6953 117.809 22.4141 117.809 22.0859C117.809 21.7578 117.922 21.4805 118.148 21.2539C118.383 21.0195 118.664 20.9023 118.992 20.9023ZM123.691 23.2812V22.9062C124.496 22.7344 125.195 22.4844 125.789 22.1562C126.844 21.5781 127.789 20.8633 128.625 20.0117C129.469 19.1602 130.219 18.1719 130.875 17.0469C130.398 17.2812 130.027 17.4336 129.762 17.5039C129.496 17.5742 129.199 17.6094 128.871 17.6094C127.691 17.6094 126.789 17.207 126.164 16.4023C125.539 15.5977 125.227 14.6602 125.227 13.5898C125.227 11.7227 125.832 10.1211 127.043 8.78516C128.262 7.44922 129.555 6.78125 130.922 6.78125C132.164 6.78125 133.117 7.25 133.781 8.1875C134.445 9.11719 134.777 10.207 134.777 11.457C134.777 13.043 134.41 14.6094 133.676 16.1562C132.941 17.7031 131.945 19.0352 130.688 20.1523C129.43 21.2695 128.109 22.0977 126.727 22.6367C125.906 22.957 124.895 23.1719 123.691 23.2812ZM131.461 16.0742C132.562 13.8398 133.113 11.8438 133.113 10.0859C133.113 9.23438 132.902 8.57422 132.48 8.10547C132.066 7.63672 131.582 7.40234 131.027 7.40234C130.105 7.40234 129.262 8.04688 128.496 9.33594C127.738 10.625 127.359 12.1562 127.359 13.9297C127.359 14.8672 127.574 15.5781 128.004 16.0625C128.441 16.5391 128.988 16.7773 129.645 16.7773C129.941 16.7773 130.215 16.7344 130.465 16.6484C130.715 16.5547 131.047 16.3633 131.461 16.0742ZM81.9609 47.6797H75.8086L74.7305 50.1875C74.4648 50.8047 74.332 51.2656 74.332 51.5703C74.332 51.8125 74.4453 52.0273 74.6719 52.2148C74.9062 52.3945 75.4062 52.5117 76.1719 52.5664V53H71.168V52.5664C71.832 52.4492 72.2617 52.2969 72.457 52.1094C72.8555 51.7344 73.2969 50.9727 73.7812 49.8242L79.3711 36.7461H79.7812L85.3125 49.9648C85.7578 51.0273 86.1602 51.7188 86.5195 52.0391C86.8867 52.3516 87.3945 52.5273 88.043 52.5664V53H81.7734V52.5664C82.4062 52.5352 82.832 52.4297 83.0508 52.25C83.2773 52.0703 83.3906 51.8516 83.3906 51.5938C83.3906 51.25 83.2344 50.707 82.9219 49.9648L81.9609 47.6797ZM81.6328 46.8125L78.9375 40.3906L76.1719 46.8125H81.6328ZM88.3008 43.332L91.6055 41.9961H92.0508V44.5039C92.6055 43.5586 93.1602 42.8984 93.7148 42.5234C94.2773 42.1406 94.8672 41.9492 95.4844 41.9492C96.5625 41.9492 97.4609 42.3711 98.1797 43.2148C99.0625 44.2461 99.5039 45.5898 99.5039 47.2461C99.5039 49.0977 98.9727 50.6289 97.9102 51.8398C97.0352 52.832 95.9336 53.3281 94.6055 53.3281C94.0273 53.3281 93.5273 53.2461 93.1055 53.082C92.793 52.9648 92.4414 52.7305 92.0508 52.3789V55.6484C92.0508 56.3828 92.0938 56.8477 92.1797 57.043C92.2734 57.2461 92.4297 57.4062 92.6484 57.5234C92.875 57.6406 93.2812 57.6992 93.8672 57.6992V58.1328H88.2422V57.6992H88.5352C88.9648 57.707 89.332 57.625 89.6367 57.4531C89.7852 57.3672 89.8984 57.2266 89.9766 57.0312C90.0625 56.8438 90.1055 56.3594 90.1055 55.5781V45.4297C90.1055 44.7344 90.0742 44.293 90.0117 44.1055C89.9492 43.918 89.8477 43.7773 89.707 43.6836C89.5742 43.5898 89.3906 43.543 89.1562 43.543C88.9688 43.543 88.7305 43.5977 88.4414 43.707L88.3008 43.332ZM92.0508 45.1953V49.2031C92.0508 50.0703 92.0859 50.6406 92.1562 50.9141C92.2656 51.3672 92.5312 51.7656 92.9531 52.1094C93.3828 52.4531 93.9219 52.625 94.5703 52.625C95.3516 52.625 95.9844 52.3203 96.4688 51.7109C97.1016 50.9141 97.418 49.793 97.418 48.3477C97.418 46.707 97.0586 45.4453 96.3398 44.5625C95.8398 43.9531 95.2461 43.6484 94.5586 43.6484C94.1836 43.6484 93.8125 43.7422 93.4453 43.9297C93.1641 44.0703 92.6992 44.4922 92.0508 45.1953ZM100.301 43.332L103.605 41.9961H104.051V44.5039C104.605 43.5586 105.16 42.8984 105.715 42.5234C106.277 42.1406 106.867 41.9492 107.484 41.9492C108.562 41.9492 109.461 42.3711 110.18 43.2148C111.062 44.2461 111.504 45.5898 111.504 47.2461C111.504 49.0977 110.973 50.6289 109.91 51.8398C109.035 52.832 107.934 53.3281 106.605 53.3281C106.027 53.3281 105.527 53.2461 105.105 53.082C104.793 52.9648 104.441 52.7305 104.051 52.3789V55.6484C104.051 56.3828 104.094 56.8477 104.18 57.043C104.273 57.2461 104.43 57.4062 104.648 57.5234C104.875 57.6406 105.281 57.6992 105.867 57.6992V58.1328H100.242V57.6992H100.535C100.965 57.707 101.332 57.625 101.637 57.4531C101.785 57.3672 101.898 57.2266 101.977 57.0312C102.062 56.8438 102.105 56.3594 102.105 55.5781V45.4297C102.105 44.7344 102.074 44.293 102.012 44.1055C101.949 43.918 101.848 43.7773 101.707 43.6836C101.574 43.5898 101.391 43.543 101.156 43.543C100.969 43.543 100.73 43.5977 100.441 43.707L100.301 43.332ZM104.051 45.1953V49.2031C104.051 50.0703 104.086 50.6406 104.156 50.9141C104.266 51.3672 104.531 51.7656 104.953 52.1094C105.383 52.4531 105.922 52.625 106.57 52.625C107.352 52.625 107.984 52.3203 108.469 51.7109C109.102 50.9141 109.418 49.793 109.418 48.3477C109.418 46.707 109.059 45.4453 108.34 44.5625C107.84 43.9531 107.246 43.6484 106.559 43.6484C106.184 43.6484 105.812 43.7422 105.445 43.9297C105.164 44.0703 104.699 44.4922 104.051 45.1953ZM129.328 36.7461V42.2422H128.895C128.754 41.1875 128.5 40.3477 128.133 39.7227C127.773 39.0977 127.258 38.6016 126.586 38.2344C125.914 37.8672 125.219 37.6836 124.5 37.6836C123.688 37.6836 123.016 37.9336 122.484 38.4336C121.953 38.9258 121.688 39.4883 121.688 40.1211C121.688 40.6055 121.855 41.0469 122.191 41.4453C122.676 42.0312 123.828 42.8125 125.648 43.7891C127.133 44.5859 128.145 45.1992 128.684 45.6289C129.23 46.0508 129.648 46.5508 129.938 47.1289C130.234 47.707 130.383 48.3125 130.383 48.9453C130.383 50.1484 129.914 51.1875 128.977 52.0625C128.047 52.9297 126.848 53.3633 125.379 53.3633C124.918 53.3633 124.484 53.3281 124.078 53.2578C123.836 53.2188 123.332 53.0781 122.566 52.8359C121.809 52.5859 121.328 52.4609 121.125 52.4609C120.93 52.4609 120.773 52.5195 120.656 52.6367C120.547 52.7539 120.465 52.9961 120.41 53.3633H119.977V47.9141H120.41C120.613 49.0547 120.887 49.9102 121.23 50.4805C121.574 51.043 122.098 51.5117 122.801 51.8867C123.512 52.2617 124.289 52.4492 125.133 52.4492C126.109 52.4492 126.879 52.1914 127.441 51.6758C128.012 51.1602 128.297 50.5508 128.297 49.8477C128.297 49.457 128.188 49.0625 127.969 48.6641C127.758 48.2656 127.426 47.8945 126.973 47.5508C126.668 47.3164 125.836 46.8203 124.477 46.0625C123.117 45.2969 122.148 44.6875 121.57 44.2344C121 43.7812 120.566 43.2812 120.27 42.7344C119.973 42.1875 119.824 41.5859 119.824 40.9297C119.824 39.7891 120.262 38.8086 121.137 37.9883C122.012 37.1602 123.125 36.7461 124.477 36.7461C125.32 36.7461 126.215 36.9531 127.16 37.3672C127.598 37.5625 127.906 37.6602 128.086 37.6602C128.289 37.6602 128.453 37.6016 128.578 37.4844C128.711 37.3594 128.816 37.1133 128.895 36.7461H129.328ZM135.551 38.7383V42.2656H138.059V43.0859H135.551V50.0469C135.551 50.7422 135.648 51.2109 135.844 51.4531C136.047 51.6953 136.305 51.8164 136.617 51.8164C136.875 51.8164 137.125 51.7383 137.367 51.582C137.609 51.418 137.797 51.1797 137.93 50.8672H138.387C138.113 51.6328 137.727 52.2109 137.227 52.6016C136.727 52.9844 136.211 53.1758 135.68 53.1758C135.32 53.1758 134.969 53.0781 134.625 52.8828C134.281 52.6797 134.027 52.3945 133.863 52.0273C133.699 51.6523 133.617 51.0781 133.617 50.3047V43.0859H131.918V42.6992C132.348 42.5273 132.785 42.2383 133.23 41.832C133.684 41.418 134.086 40.9297 134.438 40.3672C134.617 40.0703 134.867 39.5273 135.188 38.7383H135.551ZM144.363 41.9492C145.988 41.9492 147.293 42.5664 148.277 43.8008C149.113 44.8555 149.531 46.0664 149.531 47.4336C149.531 48.3945 149.301 49.3672 148.84 50.3516C148.379 51.3359 147.742 52.0781 146.93 52.5781C146.125 53.0781 145.227 53.3281 144.234 53.3281C142.617 53.3281 141.332 52.6836 140.379 51.3945C139.574 50.3086 139.172 49.0898 139.172 47.7383C139.172 46.7539 139.414 45.7773 139.898 44.8086C140.391 43.832 141.035 43.1133 141.832 42.6523C142.629 42.1836 143.473 41.9492 144.363 41.9492ZM144 42.7109C143.586 42.7109 143.168 42.8359 142.746 43.0859C142.332 43.3281 141.996 43.7578 141.738 44.375C141.48 44.9922 141.352 45.7852 141.352 46.7539C141.352 48.3164 141.66 49.6641 142.277 50.7969C142.902 51.9297 143.723 52.4961 144.738 52.4961C145.496 52.4961 146.121 52.1836 146.613 51.5586C147.105 50.9336 147.352 49.8594 147.352 48.3359C147.352 46.4297 146.941 44.9297 146.121 43.8359C145.566 43.0859 144.859 42.7109 144 42.7109ZM154.254 41.9492V44.3633C155.152 42.7539 156.074 41.9492 157.02 41.9492C157.449 41.9492 157.805 42.082 158.086 42.3477C158.367 42.6055 158.508 42.9062 158.508 43.25C158.508 43.5547 158.406 43.8125 158.203 44.0234C158 44.2344 157.758 44.3398 157.477 44.3398C157.203 44.3398 156.895 44.207 156.551 43.9414C156.215 43.668 155.965 43.5312 155.801 43.5312C155.66 43.5312 155.508 43.6094 155.344 43.7656C154.992 44.0859 154.629 44.6133 154.254 45.3477V50.4922C154.254 51.0859 154.328 51.5352 154.477 51.8398C154.578 52.0508 154.758 52.2266 155.016 52.3672C155.273 52.5078 155.645 52.5781 156.129 52.5781V53H150.633V52.5781C151.18 52.5781 151.586 52.4922 151.852 52.3203C152.047 52.1953 152.184 51.9961 152.262 51.7227C152.301 51.5898 152.32 51.2109 152.32 50.5859V46.4258C152.32 45.1758 152.293 44.4336 152.238 44.1992C152.191 43.957 152.098 43.7812 151.957 43.6719C151.824 43.5625 151.656 43.5078 151.453 43.5078C151.211 43.5078 150.938 43.5664 150.633 43.6836L150.516 43.2617L153.762 41.9492H154.254ZM160.91 46.3086C160.902 47.9023 161.289 49.1523 162.07 50.0586C162.852 50.9648 163.77 51.418 164.824 51.418C165.527 51.418 166.137 51.2266 166.652 50.8438C167.176 50.4531 167.613 49.7891 167.965 48.8516L168.328 49.0859C168.164 50.1562 167.688 51.1328 166.898 52.0156C166.109 52.8906 165.121 53.3281 163.934 53.3281C162.645 53.3281 161.539 52.8281 160.617 51.8281C159.703 50.8203 159.246 49.4688 159.246 47.7734C159.246 45.9375 159.715 44.5078 160.652 43.4844C161.598 42.4531 162.781 41.9375 164.203 41.9375C165.406 41.9375 166.395 42.3359 167.168 43.1328C167.941 43.9219 168.328 44.9805 168.328 46.3086H160.91ZM160.91 45.6289H165.879C165.84 44.9414 165.758 44.457 165.633 44.1758C165.438 43.7383 165.145 43.3945 164.754 43.1445C164.371 42.8945 163.969 42.7695 163.547 42.7695C162.898 42.7695 162.316 43.0234 161.801 43.5312C161.293 44.0312 160.996 44.7305 160.91 45.6289Z" fill="#FAA086"/>
<path d="M276.684 7.10938L273.648 17.5625H275.547L275.125 19.0156H273.203L271.973 23.2812H270.25L271.492 19.0156H265.75L266.242 17.375L275.793 7.10938H276.684ZM274.082 10.1328L267.25 17.5625H271.949L274.082 10.1328ZM278.992 20.9023C279.328 20.9023 279.609 21.0195 279.836 21.2539C280.07 21.4805 280.188 21.7578 280.188 22.0859C280.188 22.4141 280.07 22.6953 279.836 22.9297C279.602 23.1562 279.32 23.2695 278.992 23.2695C278.664 23.2695 278.383 23.1562 278.148 22.9297C277.922 22.6953 277.809 22.4141 277.809 22.0859C277.809 21.7578 277.922 21.4805 278.148 21.2539C278.383 21.0195 278.664 20.9023 278.992 20.9023ZM291.098 14.1055C291.848 14.918 292.395 15.6797 292.738 16.3906C293.09 17.1016 293.266 17.8125 293.266 18.5234C293.266 19.7969 292.781 20.9102 291.812 21.8633C290.844 22.8086 289.648 23.2812 288.227 23.2812C286.953 23.2812 285.914 22.8945 285.109 22.1211C284.312 21.3477 283.914 20.4453 283.914 19.4141C283.914 18.5312 284.238 17.6641 284.887 16.8125C285.543 15.9609 286.777 15.1406 288.59 14.3516C287.895 13.5 287.422 12.7969 287.172 12.2422C286.93 11.6875 286.809 11.1367 286.809 10.5898C286.809 9.55078 287.195 8.65625 287.969 7.90625C288.75 7.15625 289.73 6.78125 290.91 6.78125C292.035 6.78125 292.953 7.10547 293.664 7.75391C294.375 8.40234 294.73 9.16016 294.73 10.0273C294.73 10.8867 294.441 11.668 293.863 12.3711C293.293 13.0742 292.371 13.6523 291.098 14.1055ZM290.641 13.6133C291.484 13.3242 292.137 12.8516 292.598 12.1953C293.066 11.5391 293.301 10.7852 293.301 9.93359C293.301 9.13672 293.074 8.51172 292.621 8.05859C292.176 7.59766 291.59 7.36719 290.863 7.36719C290.168 7.36719 289.605 7.58594 289.176 8.02344C288.746 8.46094 288.531 9.02734 288.531 9.72266C288.531 10.2461 288.645 10.7305 288.871 11.1758C289.199 11.832 289.789 12.6445 290.641 13.6133ZM289.023 14.832C287.859 15.3164 286.977 16.0195 286.375 16.9414C285.781 17.8555 285.484 18.8398 285.484 19.8945C285.484 20.7461 285.746 21.4336 286.27 21.957C286.801 22.4727 287.496 22.7305 288.355 22.7305C289.246 22.7305 289.996 22.418 290.605 21.793C291.215 21.168 291.52 20.4219 291.52 19.5547C291.52 18.8984 291.34 18.2109 290.98 17.4922C290.629 16.7656 289.977 15.8789 289.023 14.832ZM238.035 36.7461L238.445 41.7617H238.035C237.621 40.5117 237.086 39.5703 236.43 38.9375C235.484 38.0234 234.27 37.5664 232.785 37.5664C230.762 37.5664 229.223 38.3672 228.168 39.9688C227.285 41.3203 226.844 42.9297 226.844 44.7969C226.844 46.3125 227.137 47.6953 227.723 48.9453C228.309 50.1953 229.074 51.1133 230.02 51.6992C230.973 52.2773 231.949 52.5664 232.949 52.5664C233.535 52.5664 234.102 52.4922 234.648 52.3438C235.195 52.1953 235.723 51.9766 236.23 51.6875V47.0938C236.23 46.2969 236.168 45.7773 236.043 45.5352C235.926 45.2852 235.738 45.0977 235.48 44.9727C235.23 44.8398 234.785 44.7734 234.145 44.7734V44.3281H240.297V44.7734H240.004C239.395 44.7734 238.977 44.9766 238.75 45.3828C238.594 45.6719 238.516 46.2422 238.516 47.0938V51.957C237.617 52.4414 236.73 52.7969 235.855 53.0234C234.98 53.25 234.008 53.3633 232.938 53.3633C229.867 53.3633 227.535 52.3789 225.941 50.4102C224.746 48.9336 224.148 47.2305 224.148 45.3008C224.148 43.9023 224.484 42.5625 225.156 41.2812C225.953 39.7578 227.047 38.5859 228.438 37.7656C229.602 37.0859 230.977 36.7461 232.562 36.7461C233.141 36.7461 233.664 36.793 234.133 36.8867C234.609 36.9805 235.281 37.1875 236.148 37.5078C236.586 37.6719 236.879 37.7539 237.027 37.7539C237.176 37.7539 237.301 37.6875 237.402 37.5547C237.512 37.4141 237.578 37.1445 237.602 36.7461H238.035ZM246.648 41.9492C248.273 41.9492 249.578 42.5664 250.562 43.8008C251.398 44.8555 251.816 46.0664 251.816 47.4336C251.816 48.3945 251.586 49.3672 251.125 50.3516C250.664 51.3359 250.027 52.0781 249.215 52.5781C248.41 53.0781 247.512 53.3281 246.52 53.3281C244.902 53.3281 243.617 52.6836 242.664 51.3945C241.859 50.3086 241.457 49.0898 241.457 47.7383C241.457 46.7539 241.699 45.7773 242.184 44.8086C242.676 43.832 243.32 43.1133 244.117 42.6523C244.914 42.1836 245.758 41.9492 246.648 41.9492ZM246.285 42.7109C245.871 42.7109 245.453 42.8359 245.031 43.0859C244.617 43.3281 244.281 43.7578 244.023 44.375C243.766 44.9922 243.637 45.7852 243.637 46.7539C243.637 48.3164 243.945 49.6641 244.562 50.7969C245.188 51.9297 246.008 52.4961 247.023 52.4961C247.781 52.4961 248.406 52.1836 248.898 51.5586C249.391 50.9336 249.637 49.8594 249.637 48.3359C249.637 46.4297 249.227 44.9297 248.406 43.8359C247.852 43.0859 247.145 42.7109 246.285 42.7109ZM258.648 41.9492C260.273 41.9492 261.578 42.5664 262.562 43.8008C263.398 44.8555 263.816 46.0664 263.816 47.4336C263.816 48.3945 263.586 49.3672 263.125 50.3516C262.664 51.3359 262.027 52.0781 261.215 52.5781C260.41 53.0781 259.512 53.3281 258.52 53.3281C256.902 53.3281 255.617 52.6836 254.664 51.3945C253.859 50.3086 253.457 49.0898 253.457 47.7383C253.457 46.7539 253.699 45.7773 254.184 44.8086C254.676 43.832 255.32 43.1133 256.117 42.6523C256.914 42.1836 257.758 41.9492 258.648 41.9492ZM258.285 42.7109C257.871 42.7109 257.453 42.8359 257.031 43.0859C256.617 43.3281 256.281 43.7578 256.023 44.375C255.766 44.9922 255.637 45.7852 255.637 46.7539C255.637 48.3164 255.945 49.6641 256.562 50.7969C257.188 51.9297 258.008 52.4961 259.023 52.4961C259.781 52.4961 260.406 52.1836 260.898 51.5586C261.391 50.9336 261.637 49.8594 261.637 48.3359C261.637 46.4297 261.227 44.9297 260.406 43.8359C259.852 43.0859 259.145 42.7109 258.285 42.7109ZM268.27 49.0859C267.613 48.7656 267.109 48.3203 266.758 47.75C266.406 47.1719 266.23 46.5352 266.23 45.8398C266.23 44.7773 266.629 43.8633 267.426 43.0977C268.23 42.332 269.258 41.9492 270.508 41.9492C271.531 41.9492 272.418 42.1992 273.168 42.6992H275.441C275.777 42.6992 275.973 42.7109 276.027 42.7344C276.082 42.75 276.121 42.7812 276.145 42.8281C276.191 42.8984 276.215 43.0234 276.215 43.2031C276.215 43.4062 276.195 43.5469 276.156 43.625C276.133 43.6641 276.09 43.6953 276.027 43.7188C275.973 43.7422 275.777 43.7539 275.441 43.7539H274.047C274.484 44.3164 274.703 45.0352 274.703 45.9102C274.703 46.9102 274.32 47.7656 273.555 48.4766C272.789 49.1875 271.762 49.543 270.473 49.543C269.941 49.543 269.398 49.4648 268.844 49.3086C268.5 49.6055 268.266 49.8672 268.141 50.0938C268.023 50.3125 267.965 50.5 267.965 50.6562C267.965 50.7891 268.027 50.918 268.152 51.043C268.285 51.168 268.539 51.2578 268.914 51.3125C269.133 51.3438 269.68 51.3711 270.555 51.3945C272.164 51.4336 273.207 51.4883 273.684 51.5586C274.41 51.6602 274.988 51.9297 275.418 52.3672C275.855 52.8047 276.074 53.3438 276.074 53.9844C276.074 54.8672 275.66 55.6953 274.832 56.4688C273.613 57.6094 272.023 58.1797 270.062 58.1797C268.555 58.1797 267.281 57.8398 266.242 57.1602C265.656 56.7695 265.363 56.3633 265.363 55.9414C265.363 55.7539 265.406 55.5664 265.492 55.3789C265.625 55.0898 265.898 54.6875 266.312 54.1719C266.367 54.1016 266.766 53.6797 267.508 52.9062C267.102 52.6641 266.812 52.4492 266.641 52.2617C266.477 52.0664 266.395 51.8477 266.395 51.6055C266.395 51.332 266.504 51.0117 266.723 50.6445C266.949 50.2773 267.465 49.7578 268.27 49.0859ZM270.309 42.5117C269.73 42.5117 269.246 42.7422 268.855 43.2031C268.465 43.6641 268.27 44.3711 268.27 45.3242C268.27 46.5586 268.535 47.5156 269.066 48.1953C269.473 48.7109 269.988 48.9688 270.613 48.9688C271.207 48.9688 271.695 48.7461 272.078 48.3008C272.461 47.8555 272.652 47.1562 272.652 46.2031C272.652 44.9609 272.383 43.9883 271.844 43.2852C271.445 42.7695 270.934 42.5117 270.309 42.5117ZM268.152 53C267.785 53.3984 267.508 53.7695 267.32 54.1133C267.133 54.457 267.039 54.7734 267.039 55.0625C267.039 55.4375 267.266 55.7656 267.719 56.0469C268.5 56.5312 269.629 56.7734 271.105 56.7734C272.512 56.7734 273.547 56.5234 274.211 56.0234C274.883 55.5312 275.219 55.0039 275.219 54.4414C275.219 54.0352 275.02 53.7461 274.621 53.5742C274.215 53.4023 273.41 53.3008 272.207 53.2695C270.449 53.2227 269.098 53.1328 268.152 53ZM281.09 36.3359V50.5742C281.09 51.2461 281.137 51.6914 281.23 51.9102C281.332 52.1289 281.484 52.2969 281.688 52.4141C281.891 52.5234 282.27 52.5781 282.824 52.5781V53H277.562V52.5781C278.055 52.5781 278.391 52.5273 278.57 52.4258C278.75 52.3242 278.891 52.1562 278.992 51.9219C279.094 51.6875 279.145 51.2383 279.145 50.5742V40.8242C279.145 39.6133 279.117 38.8711 279.062 38.5977C279.008 38.3164 278.918 38.125 278.793 38.0234C278.676 37.9219 278.523 37.8711 278.336 37.8711C278.133 37.8711 277.875 37.9336 277.562 38.0586L277.363 37.6484L280.562 36.3359H281.09ZM285.883 46.3086C285.875 47.9023 286.262 49.1523 287.043 50.0586C287.824 50.9648 288.742 51.418 289.797 51.418C290.5 51.418 291.109 51.2266 291.625 50.8438C292.148 50.4531 292.586 49.7891 292.938 48.8516L293.301 49.0859C293.137 50.1562 292.66 51.1328 291.871 52.0156C291.082 52.8906 290.094 53.3281 288.906 53.3281C287.617 53.3281 286.512 52.8281 285.59 51.8281C284.676 50.8203 284.219 49.4688 284.219 47.7734C284.219 45.9375 284.688 44.5078 285.625 43.4844C286.57 42.4531 287.754 41.9375 289.176 41.9375C290.379 41.9375 291.367 42.3359 292.141 43.1328C292.914 43.9219 293.301 44.9805 293.301 46.3086H285.883ZM285.883 45.6289H290.852C290.812 44.9414 290.73 44.457 290.605 44.1758C290.41 43.7383 290.117 43.3945 289.727 43.1445C289.344 42.8945 288.941 42.7695 288.52 42.7695C287.871 42.7695 287.289 43.0234 286.773 43.5312C286.266 44.0312 285.969 44.7305 285.883 45.6289ZM298.914 45.5586V50.1875C298.914 51.1875 299.023 51.8086 299.242 52.0508C299.539 52.3945 299.988 52.5664 300.59 52.5664H301.199V53H294.391V52.5664H294.988C295.66 52.5664 296.141 52.3477 296.43 51.9102C296.586 51.668 296.664 51.0938 296.664 50.1875V39.9219C296.664 38.9219 296.559 38.3008 296.348 38.0586C296.043 37.7148 295.59 37.543 294.988 37.543H294.391V37.1094H300.215C301.637 37.1094 302.758 37.2578 303.578 37.5547C304.398 37.8438 305.09 38.3359 305.652 39.0312C306.215 39.7266 306.496 40.5508 306.496 41.5039C306.496 42.8008 306.066 43.8555 305.207 44.668C304.355 45.4805 303.148 45.8867 301.586 45.8867C301.203 45.8867 300.789 45.8594 300.344 45.8047C299.898 45.75 299.422 45.668 298.914 45.5586ZM298.914 44.8906C299.328 44.9688 299.695 45.0273 300.016 45.0664C300.336 45.1055 300.609 45.125 300.836 45.125C301.648 45.125 302.348 44.8125 302.934 44.1875C303.527 43.5547 303.824 42.7383 303.824 41.7383C303.824 41.0508 303.684 40.4141 303.402 39.8281C303.121 39.2344 302.723 38.793 302.207 38.5039C301.691 38.207 301.105 38.0586 300.449 38.0586C300.051 38.0586 299.539 38.1328 298.914 38.2812V44.8906ZM311.793 36.3359V50.5742C311.793 51.2461 311.84 51.6914 311.934 51.9102C312.035 52.1289 312.188 52.2969 312.391 52.4141C312.594 52.5234 312.973 52.5781 313.527 52.5781V53H308.266V52.5781C308.758 52.5781 309.094 52.5273 309.273 52.4258C309.453 52.3242 309.594 52.1562 309.695 51.9219C309.797 51.6875 309.848 51.2383 309.848 50.5742V40.8242C309.848 39.6133 309.82 38.8711 309.766 38.5977C309.711 38.3164 309.621 38.125 309.496 38.0234C309.379 37.9219 309.227 37.8711 309.039 37.8711C308.836 37.8711 308.578 37.9336 308.266 38.0586L308.066 37.6484L311.266 36.3359H311.793ZM320.863 51.4531C319.762 52.3047 319.07 52.7969 318.789 52.9297C318.367 53.125 317.918 53.2227 317.441 53.2227C316.699 53.2227 316.086 52.9688 315.602 52.4609C315.125 51.9531 314.887 51.2852 314.887 50.457C314.887 49.9336 315.004 49.4805 315.238 49.0977C315.559 48.5664 316.113 48.0664 316.902 47.5977C317.699 47.1289 319.02 46.5586 320.863 45.8867V45.4648C320.863 44.3945 320.691 43.6602 320.348 43.2617C320.012 42.8633 319.52 42.6641 318.871 42.6641C318.379 42.6641 317.988 42.7969 317.699 43.0625C317.402 43.3281 317.254 43.6328 317.254 43.9766L317.277 44.6562C317.277 45.0156 317.184 45.293 316.996 45.4883C316.816 45.6836 316.578 45.7812 316.281 45.7812C315.992 45.7812 315.754 45.6797 315.566 45.4766C315.387 45.2734 315.297 44.9961 315.297 44.6445C315.297 43.9727 315.641 43.3555 316.328 42.793C317.016 42.2305 317.98 41.9492 319.223 41.9492C320.176 41.9492 320.957 42.1094 321.566 42.4297C322.027 42.6719 322.367 43.0508 322.586 43.5664C322.727 43.9023 322.797 44.5898 322.797 45.6289V49.2734C322.797 50.2969 322.816 50.9258 322.855 51.1602C322.895 51.3867 322.957 51.5391 323.043 51.6172C323.137 51.6953 323.242 51.7344 323.359 51.7344C323.484 51.7344 323.594 51.707 323.688 51.6523C323.852 51.5508 324.168 51.2656 324.637 50.7969V51.4531C323.762 52.625 322.926 53.2109 322.129 53.2109C321.746 53.2109 321.441 53.0781 321.215 52.8125C320.988 52.5469 320.871 52.0938 320.863 51.4531ZM320.863 50.6914V46.6016C319.684 47.0703 318.922 47.4023 318.578 47.5977C317.961 47.9414 317.52 48.3008 317.254 48.6758C316.988 49.0508 316.855 49.4609 316.855 49.9062C316.855 50.4688 317.023 50.9375 317.359 51.3125C317.695 51.6797 318.082 51.8633 318.52 51.8633C319.113 51.8633 319.895 51.4727 320.863 50.6914ZM324.836 42.2656H329.84V42.6992H329.594C329.242 42.6992 328.977 42.7773 328.797 42.9336C328.625 43.082 328.539 43.2695 328.539 43.4961C328.539 43.8008 328.668 44.2227 328.926 44.7617L331.539 50.1758L333.941 44.2461C334.074 43.9258 334.141 43.6094 334.141 43.2969C334.141 43.1562 334.113 43.0508 334.059 42.9805C333.996 42.8945 333.898 42.8281 333.766 42.7812C333.633 42.7266 333.398 42.6992 333.062 42.6992V42.2656H336.555V42.6992C336.266 42.7305 336.043 42.793 335.887 42.8867C335.73 42.9805 335.559 43.1562 335.371 43.4141C335.301 43.5234 335.168 43.8242 334.973 44.3164L330.602 55.0273C330.18 56.0664 329.625 56.8516 328.938 57.3828C328.258 57.9141 327.602 58.1797 326.969 58.1797C326.508 58.1797 326.129 58.0469 325.832 57.7812C325.535 57.5156 325.387 57.2109 325.387 56.8672C325.387 56.5391 325.492 56.2734 325.703 56.0703C325.922 55.875 326.219 55.7773 326.594 55.7773C326.852 55.7773 327.203 55.8633 327.648 56.0352C327.961 56.1523 328.156 56.2109 328.234 56.2109C328.469 56.2109 328.723 56.0898 328.996 55.8477C329.277 55.6055 329.559 55.1367 329.84 54.4414L330.602 52.5781L326.746 44.4805C326.629 44.2383 326.441 43.9375 326.184 43.5781C325.988 43.3047 325.828 43.1211 325.703 43.0273C325.523 42.9023 325.234 42.793 324.836 42.6992V42.2656Z" fill="#FAA086"/>
<path fill-rule="evenodd" clip-rule="evenodd" d="M16.3786 6.61075C17.1809 7.42359 24.3109 2.4806 22.2211 0.266797C20.6523 -1.39512 15.0415 5.25606 16.3786 6.61075ZM10.0759 13.0255C11.2554 13.0574 12.9612 5.3184 9.81926 5.17169C7.46058 5.06155 8.11018 12.9724 10.0759 13.0255ZM6.65101 22.5007C7.76379 22.2436 7.29241 13.5806 4.31167 14.1996C2.074 14.6643 4.79642 22.9291 6.65101 22.5007ZM5.21687 32.9835C6.31387 32.3868 3.63196 24.116 0.675927 25.6465C-1.54319 26.7955 3.38861 33.9778 5.21687 32.9835ZM7.87623 42.884C8.59276 42.0134 2.93203 35.4421 0.970187 37.7189C-0.502581 39.4282 6.68205 44.3349 7.87623 42.884ZM24.037 56.2658C25.1255 56.2658 26.2148 47.9209 23.3135 47.9209C21.1355 47.9209 21.4973 56.2658 24.037 56.2658ZM20.6178 56.3086C20.3561 55.252 12.0049 55.8516 12.6385 58.6829C13.1142 60.8084 21.0538 58.0694 20.6178 56.3086ZM15.4076 51.2952C15.7685 50.227 8.14392 46.0927 7.11794 48.9176C6.34773 51.0383 14.8061 53.0755 15.4076 51.2952ZM12.9889 13.277C13.1516 14.4457 21.0659 14.8538 20.6932 11.7306C20.4135 9.38597 12.7176 11.3293 12.9889 13.277ZM8.74314 20.7052C9.15161 21.7718 17.6662 20.1071 16.641 17.2406C15.8714 15.0886 8.06239 18.9277 8.74314 20.7052ZM15.7244 48.7566C16.8115 48.9958 20.0808 40.9479 17.1985 40.244C15.0348 39.7156 13.9127 48.3579 15.7244 48.7566ZM8.89812 41.5198C9.81947 42.1444 15.8352 35.878 13.4181 34.1573C11.6036 32.8656 7.3626 40.4789 8.89812 41.5198ZM7.17292 31.8849C7.92953 32.9344 16.2856 28.9609 14.3278 26.1217C12.8581 23.9903 5.91196 30.1358 7.17292 31.8849Z" fill="#FAA086"/>
<path fill-rule="evenodd" clip-rule="evenodd" d="M383.731 6.60977C382.928 7.42261 375.799 2.47962 377.888 0.265821C379.457 -1.3961 385.068 5.25508 383.731 6.60977ZM390.033 13.0246C388.854 13.0564 387.148 5.31742 390.29 5.17071C392.649 5.06057 391.999 12.9714 390.033 13.0246ZM393.458 22.5007C392.346 22.2436 392.817 13.5806 395.798 14.1996C398.035 14.6643 395.313 22.9291 393.458 22.5007ZM394.893 32.983C393.796 32.3864 396.477 24.1155 399.433 25.646C401.653 26.795 396.721 33.9774 394.893 32.983ZM392.233 42.884C391.517 42.0134 397.177 35.4421 399.139 37.7189C400.612 39.4282 393.427 44.3349 392.233 42.884ZM376.072 56.2648C374.984 56.2648 373.895 47.9199 376.796 47.9199C378.974 47.9199 378.612 56.2648 376.072 56.2648ZM379.492 56.3076C379.753 55.2511 388.105 55.8507 387.471 58.682C386.995 60.8074 379.056 58.0685 379.492 56.3076ZM384.702 51.2943C384.341 50.2261 391.965 46.0917 392.991 48.9166C393.762 51.0374 385.303 53.0746 384.702 51.2943ZM387.121 13.276C386.958 14.4447 379.043 14.8528 379.416 11.7296C379.696 9.385 387.392 11.3284 387.121 13.276ZM391.366 20.7043C390.958 21.7708 382.443 20.1061 383.468 17.2396C384.238 15.0877 392.047 18.9267 391.366 20.7043ZM384.385 48.7566C383.298 48.9958 380.029 40.9479 382.911 40.244C385.075 39.7156 386.197 48.3579 384.385 48.7566ZM391.211 41.5193C390.29 42.1439 384.274 35.8775 386.691 34.1568C388.506 32.8652 392.747 40.4784 391.211 41.5193ZM392.936 31.8844C392.18 32.9339 383.824 28.9604 385.782 26.1212C387.251 23.9899 394.197 30.1353 392.936 31.8844Z" fill="#FAA086"/>
</svg>
