<svg width="106" height="17" viewBox="0 0 106 17" fill="none" xmlns="http://www.w3.org/2000/svg">
<path d="M11.665 0.80957L10.7773 4.66797H10.4609L10.4258 3.70117C10.3965 3.34961 10.3291 3.03613 10.2236 2.76074C10.1182 2.48535 9.95996 2.24805 9.74902 2.04883C9.53809 1.84375 9.27148 1.68555 8.94922 1.57422C8.62695 1.45703 8.26953 1.39844 7.87695 1.39844C6.82812 1.39844 5.91113 1.68555 5.12598 2.25977C4.12402 2.99219 3.33887 4.02637 2.77051 5.3623C2.30176 6.46387 2.06738 7.58008 2.06738 8.71094C2.06738 9.86523 2.4043 10.7881 3.07812 11.4795C3.75195 12.165 4.62793 12.5078 5.70605 12.5078C6.52051 12.5078 7.24414 12.3262 7.87695 11.9629C8.51562 11.5996 9.10742 11.04 9.65234 10.2842H10.0654C9.4209 11.3096 8.70605 12.0654 7.9209 12.5518C7.13574 13.0322 6.19531 13.2725 5.09961 13.2725C4.12695 13.2725 3.26562 13.0703 2.51562 12.666C1.76562 12.2559 1.19434 11.6816 0.801758 10.9434C0.40918 10.2051 0.212891 9.41113 0.212891 8.56152C0.212891 7.26074 0.561523 5.99512 1.25879 4.76465C1.95605 3.53418 2.91113 2.56738 4.12402 1.86426C5.34277 1.16113 6.57031 0.80957 7.80664 0.80957C8.38672 0.80957 9.03711 0.947266 9.75781 1.22266C10.0742 1.33984 10.3027 1.39844 10.4434 1.39844C10.584 1.39844 10.707 1.36914 10.8125 1.31055C10.918 1.25195 11.0938 1.08496 11.3398 0.80957H11.665ZM11.9287 5.58203L14.6357 5.0459H14.9785L13.8535 8.87793C14.0703 8.88965 14.1934 8.89551 14.2227 8.89551C15.1719 8.89551 15.916 8.29199 16.4551 7.08496C16.7539 6.41699 16.9619 5.98047 17.0791 5.77539C17.2021 5.56445 17.3633 5.3916 17.5625 5.25684C17.7676 5.11621 17.999 5.0459 18.2568 5.0459C18.5732 5.0459 18.8369 5.14551 19.0479 5.34473C19.2646 5.54395 19.373 5.77832 19.373 6.04785C19.373 6.27637 19.2969 6.47266 19.1445 6.63672C18.9922 6.79492 18.8164 6.87402 18.6172 6.87402C18.3711 6.87402 18.1514 6.73047 17.958 6.44336C17.8232 6.23828 17.7031 6.13574 17.5977 6.13574C17.4395 6.13574 17.249 6.40234 17.0264 6.93555C16.5459 8.08984 16.0098 8.78711 15.418 9.02734C15.6699 9.15039 15.8896 9.34668 16.0771 9.61621C16.2705 9.88574 16.6426 10.542 17.1934 11.585C17.4395 12.0654 17.6709 12.3584 17.8877 12.4639C18.1104 12.5693 18.377 12.6396 18.6875 12.6748L18.582 13H16.4814C15.9717 11.8984 15.5381 11.043 15.1807 10.4336C14.8232 9.82422 14.5654 9.47559 14.4072 9.3877C14.2549 9.2998 14.0352 9.25586 13.748 9.25586L12.6494 13H11.3311L13.0713 7.05859C13.1826 6.68945 13.2383 6.43164 13.2383 6.28516C13.2383 5.97461 13.0303 5.81934 12.6143 5.81934C12.4854 5.81934 12.2568 5.84277 11.9287 5.88965V5.58203ZM27.415 5.0459L25.7012 11.0049L25.5078 11.8047C25.4902 11.8809 25.4814 11.9453 25.4814 11.998C25.4814 12.0918 25.5107 12.1738 25.5693 12.2441C25.6162 12.2969 25.6748 12.3232 25.7451 12.3232C25.8213 12.3232 25.9209 12.2764 26.0439 12.1826C26.2725 12.0127 26.5771 11.6611 26.958 11.1279L27.2568 11.3389C26.8525 11.9482 26.4365 12.4141 26.0088 12.7363C25.5811 13.0527 25.1855 13.2109 24.8223 13.2109C24.5703 13.2109 24.3799 13.1465 24.251 13.0176C24.1279 12.8945 24.0664 12.7129 24.0664 12.4727C24.0664 12.1855 24.1309 11.8076 24.2598 11.3389L24.4443 10.6797C23.6768 11.6816 22.9707 12.3818 22.3262 12.7803C21.8633 13.0674 21.4092 13.2109 20.9639 13.2109C20.5361 13.2109 20.167 13.0352 19.8564 12.6836C19.5459 12.3262 19.3906 11.8369 19.3906 11.2158C19.3906 10.2842 19.6689 9.30273 20.2256 8.27148C20.7881 7.23438 21.5 6.40527 22.3613 5.78418C23.0352 5.29199 23.6709 5.0459 24.2686 5.0459C24.626 5.0459 24.9219 5.13965 25.1562 5.32715C25.3965 5.51465 25.5781 5.8252 25.7012 6.25879L26.0176 5.25684L27.415 5.0459ZM24.2861 5.50293C23.9111 5.50293 23.5127 5.67871 23.0908 6.03027C22.4932 6.52832 21.96 7.2666 21.4912 8.24512C21.0283 9.22363 20.7969 10.1084 20.7969 10.8994C20.7969 11.2979 20.8965 11.6143 21.0957 11.8486C21.2949 12.0771 21.5234 12.1914 21.7812 12.1914C22.4199 12.1914 23.1143 11.7197 23.8643 10.7764C24.8662 9.52246 25.3672 8.23633 25.3672 6.91797C25.3672 6.41992 25.2705 6.05957 25.0771 5.83691C24.8838 5.61426 24.6201 5.50293 24.2861 5.50293ZM28.5752 5.5293L31.0625 5.0459H31.3877L30.5352 8.04297C30.4121 8.46484 30.3506 8.7373 30.3506 8.86035C30.3506 9.35254 30.6963 9.59863 31.3877 9.59863C31.9502 9.59863 32.5918 9.36426 33.3125 8.89551L34.376 5.25684H35.7207L33.9365 11.374C33.8428 11.7139 33.7959 11.9219 33.7959 11.998C33.7959 12.1504 33.8662 12.2266 34.0068 12.2266C34.2412 12.2266 34.6689 11.834 35.29 11.0488L35.5801 11.2246C34.5781 12.5488 33.7578 13.2109 33.1191 13.2109C32.6445 13.2109 32.4072 12.959 32.4072 12.4551C32.4072 12.1445 32.5068 11.6553 32.7061 10.9873L33.1543 9.45801C32.3984 9.96777 31.6426 10.2227 30.8867 10.2227C30.3945 10.2227 29.9668 10.0938 29.6035 9.83594C29.2402 9.57812 29.0586 9.25293 29.0586 8.86035C29.0586 8.62598 29.126 8.28027 29.2607 7.82324L29.498 7.01465C29.5918 6.69238 29.6387 6.45801 29.6387 6.31152C29.6387 5.99512 29.4395 5.83691 29.041 5.83691C28.8652 5.83691 28.6777 5.85156 28.4785 5.88086L28.5752 5.5293ZM37.2412 5.58203L39.9482 5.0459H40.291L39.166 8.87793C39.3828 8.88965 39.5059 8.89551 39.5352 8.89551C40.4844 8.89551 41.2285 8.29199 41.7676 7.08496C42.0664 6.41699 42.2744 5.98047 42.3916 5.77539C42.5146 5.56445 42.6758 5.3916 42.875 5.25684C43.0801 5.11621 43.3115 5.0459 43.5693 5.0459C43.8857 5.0459 44.1494 5.14551 44.3604 5.34473C44.5771 5.54395 44.6855 5.77832 44.6855 6.04785C44.6855 6.27637 44.6094 6.47266 44.457 6.63672C44.3047 6.79492 44.1289 6.87402 43.9297 6.87402C43.6836 6.87402 43.4639 6.73047 43.2705 6.44336C43.1357 6.23828 43.0156 6.13574 42.9102 6.13574C42.752 6.13574 42.5615 6.40234 42.3389 6.93555C41.8584 8.08984 41.3223 8.78711 40.7305 9.02734C40.9824 9.15039 41.2021 9.34668 41.3896 9.61621C41.583 9.88574 41.9551 10.542 42.5059 11.585C42.752 12.0654 42.9834 12.3584 43.2002 12.4639C43.4229 12.5693 43.6895 12.6396 44 12.6748L43.8945 13H41.7939C41.2842 11.8984 40.8506 11.043 40.4932 10.4336C40.1357 9.82422 39.8779 9.47559 39.7197 9.3877C39.5674 9.2998 39.3477 9.25586 39.0605 9.25586L37.9619 13H36.6436L38.3838 7.05859C38.4951 6.68945 38.5508 6.43164 38.5508 6.28516C38.5508 5.97461 38.3428 5.81934 37.9268 5.81934C37.7979 5.81934 37.5693 5.84277 37.2412 5.88965V5.58203ZM53.2109 5.25684L51.6816 10.4951C51.4531 11.2744 51.3389 11.7666 51.3389 11.9717C51.3389 12.0771 51.3564 12.1562 51.3916 12.209C51.4326 12.2559 51.4854 12.2793 51.5498 12.2793C51.6494 12.2793 51.7578 12.2354 51.875 12.1475C51.998 12.0537 52.3027 11.6904 52.7891 11.0576L53.0527 11.2598C52.5898 11.9922 52.1152 12.5312 51.6289 12.877C51.3066 13.0996 50.9961 13.2109 50.6973 13.2109C50.4688 13.2109 50.29 13.1465 50.1611 13.0176C50.0322 12.8887 49.9678 12.7217 49.9678 12.5166C49.9678 12.3174 50.0059 12.0537 50.082 11.7256C50.1758 11.292 50.4424 10.3486 50.8818 8.89551C49.8857 10.5303 49.0508 11.6582 48.377 12.2793C47.709 12.9004 47.0879 13.2109 46.5137 13.2109C46.2441 13.2109 46.0156 13.1172 45.8281 12.9297C45.6406 12.7422 45.5469 12.5049 45.5469 12.2178C45.5469 11.7783 45.6758 11.1045 45.9336 10.1963L46.6982 7.48047C46.8857 6.83008 46.9795 6.42578 46.9795 6.26758C46.9795 6.19727 46.9531 6.13867 46.9004 6.0918C46.8535 6.03906 46.8008 6.0127 46.7422 6.0127C46.6191 6.0127 46.4961 6.05664 46.373 6.14453C46.25 6.23242 45.9717 6.55762 45.5381 7.12012L45.2656 6.92676C45.7051 6.24707 46.1709 5.74609 46.6631 5.42383C47.0381 5.17188 47.3838 5.0459 47.7002 5.0459C47.917 5.0459 48.0928 5.11621 48.2275 5.25684C48.3682 5.3916 48.4385 5.56738 48.4385 5.78418C48.4385 6.10059 48.3213 6.66602 48.0869 7.48047L47.2607 10.3193C47.0322 11.0928 46.918 11.582 46.918 11.7871C46.918 11.8984 46.9531 11.9893 47.0234 12.0596C47.0996 12.124 47.1992 12.1562 47.3223 12.1562C47.5156 12.1562 47.7676 12.0596 48.0781 11.8662C48.3887 11.6729 48.8018 11.2451 49.3174 10.583C49.8389 9.91504 50.2666 9.29102 50.6006 8.71094C50.9404 8.125 51.3008 7.19629 51.6816 5.9248L51.875 5.25684H53.2109ZM62.2197 5.0459L61.6133 7.06738C62.252 6.31738 62.8203 5.79297 63.3184 5.49414C63.8223 5.19531 64.335 5.0459 64.8564 5.0459C65.3779 5.0459 65.8232 5.25391 66.1924 5.66992C66.5615 6.08008 66.7461 6.61621 66.7461 7.27832C66.7461 8.56738 66.2217 9.87988 65.1729 11.2158C64.124 12.5459 62.9023 13.2109 61.5078 13.2109C61.2148 13.2109 60.9541 13.1787 60.7256 13.1143C60.5029 13.0498 60.251 12.9355 59.9697 12.7715L59.3281 15.0391C59.1992 15.4844 59.1348 15.7744 59.1348 15.9092C59.1348 16.0381 59.167 16.1465 59.2314 16.2344C59.3018 16.3281 59.4131 16.3984 59.5654 16.4453C59.7178 16.498 60.0195 16.5244 60.4707 16.5244L60.3916 16.8496H56.252L56.3398 16.5244C56.8848 16.501 57.2539 16.4072 57.4473 16.2432C57.6348 16.0791 57.834 15.625 58.0449 14.8809L60.2686 7.18164C60.4033 6.69531 60.4707 6.39355 60.4707 6.27637C60.4707 6.11816 60.4238 5.99512 60.3301 5.90723C60.2422 5.81934 60.1045 5.77539 59.917 5.77539C59.7471 5.77539 59.5098 5.7959 59.2051 5.83691V5.49414L62.2197 5.0459ZM60.1719 12.0771C60.5352 12.5107 61.0244 12.7275 61.6396 12.7275C61.9443 12.7275 62.2549 12.6426 62.5713 12.4727C62.8877 12.3027 63.1953 12.0508 63.4941 11.7168C63.7988 11.3828 64.0713 10.999 64.3115 10.5654C64.5518 10.126 64.7656 9.61035 64.9531 9.01855C65.1465 8.42676 65.2432 7.84082 65.2432 7.26074C65.2432 6.79199 65.1348 6.43457 64.918 6.18848C64.707 5.93652 64.458 5.81055 64.1709 5.81055C63.5381 5.81055 62.9111 6.17383 62.29 6.90039C61.6748 7.62695 61.2236 8.47656 60.9365 9.44922L60.1719 12.0771ZM75.5615 7.79688C75.5615 8.67578 75.3271 9.5459 74.8584 10.4072C74.3955 11.2686 73.748 11.9512 72.916 12.4551C72.084 12.959 71.2754 13.2109 70.4902 13.2109C69.6875 13.2109 69.0312 12.9561 68.5215 12.4463C68.0176 11.9307 67.7656 11.2656 67.7656 10.4512C67.7656 9.58984 68.0117 8.72559 68.5039 7.8584C69.002 6.99121 69.6641 6.30566 70.4902 5.80176C71.3223 5.29785 72.125 5.0459 72.8984 5.0459C73.6719 5.0459 74.3076 5.30078 74.8057 5.81055C75.3096 6.32031 75.5615 6.98242 75.5615 7.79688ZM74.1025 7.19043C74.1025 6.64551 73.9678 6.22949 73.6982 5.94238C73.4346 5.64941 73.0918 5.50293 72.6699 5.50293C71.8086 5.50293 71.0146 6.12109 70.2881 7.35742C69.5674 8.58789 69.207 9.8125 69.207 11.0312C69.207 11.5879 69.3477 12.0186 69.6289 12.3232C69.9102 12.6221 70.2646 12.7715 70.6924 12.7715C71.5186 12.7715 72.292 12.1592 73.0127 10.9346C73.7393 9.7041 74.1025 8.45605 74.1025 7.19043ZM83.1904 11.084C82.5811 11.8164 81.9658 12.3555 81.3447 12.7012C80.7236 13.041 80.0674 13.2109 79.376 13.2109C78.5439 13.2109 77.8936 12.9766 77.4248 12.5078C76.9619 12.0391 76.7305 11.4092 76.7305 10.6182C76.7305 9.72168 76.9795 8.83984 77.4775 7.97266C77.9814 7.10547 78.6553 6.40234 79.499 5.86328C80.3486 5.31836 81.1807 5.0459 81.9951 5.0459C82.6338 5.0459 83.1113 5.18066 83.4277 5.4502C83.7441 5.71387 83.9023 6.03906 83.9023 6.42578C83.9023 6.78906 83.791 7.09961 83.5684 7.35742C83.4043 7.55664 83.2021 7.65625 82.9619 7.65625C82.7803 7.65625 82.6279 7.59766 82.5049 7.48047C82.3877 7.36328 82.3291 7.2168 82.3291 7.04102C82.3291 6.92969 82.3496 6.82715 82.3906 6.7334C82.4375 6.63965 82.5283 6.52832 82.6631 6.39941C82.8037 6.26465 82.8887 6.16797 82.918 6.10938C82.9473 6.05078 82.9619 5.98926 82.9619 5.9248C82.9619 5.80176 82.9062 5.69922 82.7949 5.61719C82.625 5.5 82.3848 5.44141 82.0742 5.44141C81.5 5.44141 80.9316 5.64355 80.3691 6.04785C79.8066 6.45215 79.3262 7.02637 78.9277 7.77051C78.4473 8.67285 78.207 9.5752 78.207 10.4775C78.207 11.0752 78.377 11.5498 78.7168 11.9014C79.0566 12.2471 79.5195 12.4199 80.1055 12.4199C80.5566 12.4199 81.002 12.3086 81.4414 12.0859C81.8867 11.8574 82.3848 11.4473 82.9355 10.8555L83.1904 11.084ZM88.1387 5.0459L86.9961 9.00977C87.5059 8.07812 87.9395 7.37793 88.2969 6.90918C88.8535 6.18262 89.3955 5.65527 89.9229 5.32715C90.2334 5.13965 90.5586 5.0459 90.8984 5.0459C91.1914 5.0459 91.4346 5.13965 91.6279 5.32715C91.8213 5.51465 91.918 5.75488 91.918 6.04785C91.918 6.33496 91.8506 6.70996 91.7158 7.17285L91.0918 9.40527C92.0469 7.61816 92.9521 6.36426 93.8076 5.64355C94.2822 5.24512 94.751 5.0459 95.2139 5.0459C95.4834 5.0459 95.7031 5.13965 95.873 5.32715C96.0488 5.50879 96.1367 5.79297 96.1367 6.17969C96.1367 6.51953 96.084 6.87988 95.9785 7.26074L95.0117 10.6797C94.8008 11.4238 94.6953 11.8369 94.6953 11.9189C94.6953 12.001 94.7217 12.0713 94.7744 12.1299C94.8096 12.1709 94.8564 12.1914 94.915 12.1914C94.9736 12.1914 95.0762 12.1357 95.2227 12.0244C95.5566 11.7666 95.8701 11.4268 96.1631 11.0049L96.4531 11.1895C96.3066 11.4238 96.0459 11.7461 95.6709 12.1562C95.3018 12.5664 94.9854 12.8447 94.7217 12.9912C94.458 13.1377 94.2148 13.2109 93.9922 13.2109C93.7871 13.2109 93.6143 13.1406 93.4736 13C93.3389 12.8594 93.2715 12.6865 93.2715 12.4814C93.2715 12.2002 93.3916 11.6348 93.6318 10.7852L94.4316 7.96387C94.6133 7.31348 94.71 6.95312 94.7217 6.88281C94.7393 6.77148 94.748 6.66309 94.748 6.55762C94.748 6.41113 94.7158 6.29688 94.6514 6.21484C94.5811 6.13281 94.502 6.0918 94.4141 6.0918C94.168 6.0918 93.9072 6.21777 93.6318 6.46973C92.8232 7.21387 92.0674 8.25684 91.3643 9.59863C90.9014 10.4834 90.4678 11.6172 90.0635 13H88.7363L90.2393 7.68262C90.4033 7.1084 90.4854 6.72461 90.4854 6.53125C90.4854 6.37305 90.4531 6.25586 90.3887 6.17969C90.3242 6.10352 90.2451 6.06543 90.1514 6.06543C89.958 6.06543 89.7529 6.13574 89.5361 6.27637C89.1846 6.50488 88.7305 6.99414 88.1738 7.74414C87.623 8.49414 87.1953 9.21191 86.8906 9.89746C86.7441 10.2197 86.3955 11.2539 85.8447 13H84.5439L86.1699 7.30469L86.3809 6.56641C86.4219 6.45508 86.4424 6.37305 86.4424 6.32031C86.4424 6.19141 86.3838 6.07715 86.2666 5.97754C86.1494 5.87207 86 5.81934 85.8184 5.81934C85.7422 5.81934 85.5312 5.85449 85.1855 5.9248L85.1064 5.59961L88.1387 5.0459ZM105.919 5.0459L104.205 11.0049L104.012 11.8047C103.994 11.8809 103.985 11.9453 103.985 11.998C103.985 12.0918 104.015 12.1738 104.073 12.2441C104.12 12.2969 104.179 12.3232 104.249 12.3232C104.325 12.3232 104.425 12.2764 104.548 12.1826C104.776 12.0127 105.081 11.6611 105.462 11.1279L105.761 11.3389C105.356 11.9482 104.94 12.4141 104.513 12.7363C104.085 13.0527 103.689 13.2109 103.326 13.2109C103.074 13.2109 102.884 13.1465 102.755 13.0176C102.632 12.8945 102.57 12.7129 102.57 12.4727C102.57 12.1855 102.635 11.8076 102.764 11.3389L102.948 10.6797C102.181 11.6816 101.475 12.3818 100.83 12.7803C100.367 13.0674 99.9131 13.2109 99.4678 13.2109C99.04 13.2109 98.6709 13.0352 98.3604 12.6836C98.0498 12.3262 97.8945 11.8369 97.8945 11.2158C97.8945 10.2842 98.1729 9.30273 98.7295 8.27148C99.292 7.23438 100.004 6.40527 100.865 5.78418C101.539 5.29199 102.175 5.0459 102.772 5.0459C103.13 5.0459 103.426 5.13965 103.66 5.32715C103.9 5.51465 104.082 5.8252 104.205 6.25879L104.521 5.25684L105.919 5.0459ZM102.79 5.50293C102.415 5.50293 102.017 5.67871 101.595 6.03027C100.997 6.52832 100.464 7.2666 99.9951 8.24512C99.5322 9.22363 99.3008 10.1084 99.3008 10.8994C99.3008 11.2979 99.4004 11.6143 99.5996 11.8486C99.7988 12.0771 100.027 12.1914 100.285 12.1914C100.924 12.1914 101.618 11.7197 102.368 10.7764C103.37 9.52246 103.871 8.23633 103.871 6.91797C103.871 6.41992 103.774 6.05957 103.581 5.83691C103.388 5.61426 103.124 5.50293 102.79 5.50293Z" fill="#4E3D39"/>
<path d="M11.665 0.80957L10.7773 4.66797H10.4609L10.4258 3.70117C10.3965 3.34961 10.3291 3.03613 10.2236 2.76074C10.1182 2.48535 9.95996 2.24805 9.74902 2.04883C9.53809 1.84375 9.27148 1.68555 8.94922 1.57422C8.62695 1.45703 8.26953 1.39844 7.87695 1.39844C6.82812 1.39844 5.91113 1.68555 5.12598 2.25977C4.12402 2.99219 3.33887 4.02637 2.77051 5.3623C2.30176 6.46387 2.06738 7.58008 2.06738 8.71094C2.06738 9.86523 2.4043 10.7881 3.07812 11.4795C3.75195 12.165 4.62793 12.5078 5.70605 12.5078C6.52051 12.5078 7.24414 12.3262 7.87695 11.9629C8.51562 11.5996 9.10742 11.04 9.65234 10.2842H10.0654C9.4209 11.3096 8.70605 12.0654 7.9209 12.5518C7.13574 13.0322 6.19531 13.2725 5.09961 13.2725C4.12695 13.2725 3.26562 13.0703 2.51562 12.666C1.76562 12.2559 1.19434 11.6816 0.801758 10.9434C0.40918 10.2051 0.212891 9.41113 0.212891 8.56152C0.212891 7.26074 0.561523 5.99512 1.25879 4.76465C1.95605 3.53418 2.91113 2.56738 4.12402 1.86426C5.34277 1.16113 6.57031 0.80957 7.80664 0.80957C8.38672 0.80957 9.03711 0.947266 9.75781 1.22266C10.0742 1.33984 10.3027 1.39844 10.4434 1.39844C10.584 1.39844 10.707 1.36914 10.8125 1.31055C10.918 1.25195 11.0938 1.08496 11.3398 0.80957H11.665ZM11.9287 5.58203L14.6357 5.0459H14.9785L13.8535 8.87793C14.0703 8.88965 14.1934 8.89551 14.2227 8.89551C15.1719 8.89551 15.916 8.29199 16.4551 7.08496C16.7539 6.41699 16.9619 5.98047 17.0791 5.77539C17.2021 5.56445 17.3633 5.3916 17.5625 5.25684C17.7676 5.11621 17.999 5.0459 18.2568 5.0459C18.5732 5.0459 18.8369 5.14551 19.0479 5.34473C19.2646 5.54395 19.373 5.77832 19.373 6.04785C19.373 6.27637 19.2969 6.47266 19.1445 6.63672C18.9922 6.79492 18.8164 6.87402 18.6172 6.87402C18.3711 6.87402 18.1514 6.73047 17.958 6.44336C17.8232 6.23828 17.7031 6.13574 17.5977 6.13574C17.4395 6.13574 17.249 6.40234 17.0264 6.93555C16.5459 8.08984 16.0098 8.78711 15.418 9.02734C15.6699 9.15039 15.8896 9.34668 16.0771 9.61621C16.2705 9.88574 16.6426 10.542 17.1934 11.585C17.4395 12.0654 17.6709 12.3584 17.8877 12.4639C18.1104 12.5693 18.377 12.6396 18.6875 12.6748L18.582 13H16.4814C15.9717 11.8984 15.5381 11.043 15.1807 10.4336C14.8232 9.82422 14.5654 9.47559 14.4072 9.3877C14.2549 9.2998 14.0352 9.25586 13.748 9.25586L12.6494 13H11.3311L13.0713 7.05859C13.1826 6.68945 13.2383 6.43164 13.2383 6.28516C13.2383 5.97461 13.0303 5.81934 12.6143 5.81934C12.4854 5.81934 12.2568 5.84277 11.9287 5.88965V5.58203ZM27.415 5.0459L25.7012 11.0049L25.5078 11.8047C25.4902 11.8809 25.4814 11.9453 25.4814 11.998C25.4814 12.0918 25.5107 12.1738 25.5693 12.2441C25.6162 12.2969 25.6748 12.3232 25.7451 12.3232C25.8213 12.3232 25.9209 12.2764 26.0439 12.1826C26.2725 12.0127 26.5771 11.6611 26.958 11.1279L27.2568 11.3389C26.8525 11.9482 26.4365 12.4141 26.0088 12.7363C25.5811 13.0527 25.1855 13.2109 24.8223 13.2109C24.5703 13.2109 24.3799 13.1465 24.251 13.0176C24.1279 12.8945 24.0664 12.7129 24.0664 12.4727C24.0664 12.1855 24.1309 11.8076 24.2598 11.3389L24.4443 10.6797C23.6768 11.6816 22.9707 12.3818 22.3262 12.7803C21.8633 13.0674 21.4092 13.2109 20.9639 13.2109C20.5361 13.2109 20.167 13.0352 19.8564 12.6836C19.5459 12.3262 19.3906 11.8369 19.3906 11.2158C19.3906 10.2842 19.6689 9.30273 20.2256 8.27148C20.7881 7.23438 21.5 6.40527 22.3613 5.78418C23.0352 5.29199 23.6709 5.0459 24.2686 5.0459C24.626 5.0459 24.9219 5.13965 25.1562 5.32715C25.3965 5.51465 25.5781 5.8252 25.7012 6.25879L26.0176 5.25684L27.415 5.0459ZM24.2861 5.50293C23.9111 5.50293 23.5127 5.67871 23.0908 6.03027C22.4932 6.52832 21.96 7.2666 21.4912 8.24512C21.0283 9.22363 20.7969 10.1084 20.7969 10.8994C20.7969 11.2979 20.8965 11.6143 21.0957 11.8486C21.2949 12.0771 21.5234 12.1914 21.7812 12.1914C22.4199 12.1914 23.1143 11.7197 23.8643 10.7764C24.8662 9.52246 25.3672 8.23633 25.3672 6.91797C25.3672 6.41992 25.2705 6.05957 25.0771 5.83691C24.8838 5.61426 24.6201 5.50293 24.2861 5.50293ZM28.5752 5.5293L31.0625 5.0459H31.3877L30.5352 8.04297C30.4121 8.46484 30.3506 8.7373 30.3506 8.86035C30.3506 9.35254 30.6963 9.59863 31.3877 9.59863C31.9502 9.59863 32.5918 9.36426 33.3125 8.89551L34.376 5.25684H35.7207L33.9365 11.374C33.8428 11.7139 33.7959 11.9219 33.7959 11.998C33.7959 12.1504 33.8662 12.2266 34.0068 12.2266C34.2412 12.2266 34.6689 11.834 35.29 11.0488L35.5801 11.2246C34.5781 12.5488 33.7578 13.2109 33.1191 13.2109C32.6445 13.2109 32.4072 12.959 32.4072 12.4551C32.4072 12.1445 32.5068 11.6553 32.7061 10.9873L33.1543 9.45801C32.3984 9.96777 31.6426 10.2227 30.8867 10.2227C30.3945 10.2227 29.9668 10.0938 29.6035 9.83594C29.2402 9.57812 29.0586 9.25293 29.0586 8.86035C29.0586 8.62598 29.126 8.28027 29.2607 7.82324L29.498 7.01465C29.5918 6.69238 29.6387 6.45801 29.6387 6.31152C29.6387 5.99512 29.4395 5.83691 29.041 5.83691C28.8652 5.83691 28.6777 5.85156 28.4785 5.88086L28.5752 5.5293ZM37.2412 5.58203L39.9482 5.0459H40.291L39.166 8.87793C39.3828 8.88965 39.5059 8.89551 39.5352 8.89551C40.4844 8.89551 41.2285 8.29199 41.7676 7.08496C42.0664 6.41699 42.2744 5.98047 42.3916 5.77539C42.5146 5.56445 42.6758 5.3916 42.875 5.25684C43.0801 5.11621 43.3115 5.0459 43.5693 5.0459C43.8857 5.0459 44.1494 5.14551 44.3604 5.34473C44.5771 5.54395 44.6855 5.77832 44.6855 6.04785C44.6855 6.27637 44.6094 6.47266 44.457 6.63672C44.3047 6.79492 44.1289 6.87402 43.9297 6.87402C43.6836 6.87402 43.4639 6.73047 43.2705 6.44336C43.1357 6.23828 43.0156 6.13574 42.9102 6.13574C42.752 6.13574 42.5615 6.40234 42.3389 6.93555C41.8584 8.08984 41.3223 8.78711 40.7305 9.02734C40.9824 9.15039 41.2021 9.34668 41.3896 9.61621C41.583 9.88574 41.9551 10.542 42.5059 11.585C42.752 12.0654 42.9834 12.3584 43.2002 12.4639C43.4229 12.5693 43.6895 12.6396 44 12.6748L43.8945 13H41.7939C41.2842 11.8984 40.8506 11.043 40.4932 10.4336C40.1357 9.82422 39.8779 9.47559 39.7197 9.3877C39.5674 9.2998 39.3477 9.25586 39.0605 9.25586L37.9619 13H36.6436L38.3838 7.05859C38.4951 6.68945 38.5508 6.43164 38.5508 6.28516C38.5508 5.97461 38.3428 5.81934 37.9268 5.81934C37.7979 5.81934 37.5693 5.84277 37.2412 5.88965V5.58203ZM53.2109 5.25684L51.6816 10.4951C51.4531 11.2744 51.3389 11.7666 51.3389 11.9717C51.3389 12.0771 51.3564 12.1562 51.3916 12.209C51.4326 12.2559 51.4854 12.2793 51.5498 12.2793C51.6494 12.2793 51.7578 12.2354 51.875 12.1475C51.998 12.0537 52.3027 11.6904 52.7891 11.0576L53.0527 11.2598C52.5898 11.9922 52.1152 12.5312 51.6289 12.877C51.3066 13.0996 50.9961 13.2109 50.6973 13.2109C50.4688 13.2109 50.29 13.1465 50.1611 13.0176C50.0322 12.8887 49.9678 12.7217 49.9678 12.5166C49.9678 12.3174 50.0059 12.0537 50.082 11.7256C50.1758 11.292 50.4424 10.3486 50.8818 8.89551C49.8857 10.5303 49.0508 11.6582 48.377 12.2793C47.709 12.9004 47.0879 13.2109 46.5137 13.2109C46.2441 13.2109 46.0156 13.1172 45.8281 12.9297C45.6406 12.7422 45.5469 12.5049 45.5469 12.2178C45.5469 11.7783 45.6758 11.1045 45.9336 10.1963L46.6982 7.48047C46.8857 6.83008 46.9795 6.42578 46.9795 6.26758C46.9795 6.19727 46.9531 6.13867 46.9004 6.0918C46.8535 6.03906 46.8008 6.0127 46.7422 6.0127C46.6191 6.0127 46.4961 6.05664 46.373 6.14453C46.25 6.23242 45.9717 6.55762 45.5381 7.12012L45.2656 6.92676C45.7051 6.24707 46.1709 5.74609 46.6631 5.42383C47.0381 5.17188 47.3838 5.0459 47.7002 5.0459C47.917 5.0459 48.0928 5.11621 48.2275 5.25684C48.3682 5.3916 48.4385 5.56738 48.4385 5.78418C48.4385 6.10059 48.3213 6.66602 48.0869 7.48047L47.2607 10.3193C47.0322 11.0928 46.918 11.582 46.918 11.7871C46.918 11.8984 46.9531 11.9893 47.0234 12.0596C47.0996 12.124 47.1992 12.1562 47.3223 12.1562C47.5156 12.1562 47.7676 12.0596 48.0781 11.8662C48.3887 11.6729 48.8018 11.2451 49.3174 10.583C49.8389 9.91504 50.2666 9.29102 50.6006 8.71094C50.9404 8.125 51.3008 7.19629 51.6816 5.9248L51.875 5.25684H53.2109ZM62.2197 5.0459L61.6133 7.06738C62.252 6.31738 62.8203 5.79297 63.3184 5.49414C63.8223 5.19531 64.335 5.0459 64.8564 5.0459C65.3779 5.0459 65.8232 5.25391 66.1924 5.66992C66.5615 6.08008 66.7461 6.61621 66.7461 7.27832C66.7461 8.56738 66.2217 9.87988 65.1729 11.2158C64.124 12.5459 62.9023 13.2109 61.5078 13.2109C61.2148 13.2109 60.9541 13.1787 60.7256 13.1143C60.5029 13.0498 60.251 12.9355 59.9697 12.7715L59.3281 15.0391C59.1992 15.4844 59.1348 15.7744 59.1348 15.9092C59.1348 16.0381 59.167 16.1465 59.2314 16.2344C59.3018 16.3281 59.4131 16.3984 59.5654 16.4453C59.7178 16.498 60.0195 16.5244 60.4707 16.5244L60.3916 16.8496H56.252L56.3398 16.5244C56.8848 16.501 57.2539 16.4072 57.4473 16.2432C57.6348 16.0791 57.834 15.625 58.0449 14.8809L60.2686 7.18164C60.4033 6.69531 60.4707 6.39355 60.4707 6.27637C60.4707 6.11816 60.4238 5.99512 60.3301 5.90723C60.2422 5.81934 60.1045 5.77539 59.917 5.77539C59.7471 5.77539 59.5098 5.7959 59.2051 5.83691V5.49414L62.2197 5.0459ZM60.1719 12.0771C60.5352 12.5107 61.0244 12.7275 61.6396 12.7275C61.9443 12.7275 62.2549 12.6426 62.5713 12.4727C62.8877 12.3027 63.1953 12.0508 63.4941 11.7168C63.7988 11.3828 64.0713 10.999 64.3115 10.5654C64.5518 10.126 64.7656 9.61035 64.9531 9.01855C65.1465 8.42676 65.2432 7.84082 65.2432 7.26074C65.2432 6.79199 65.1348 6.43457 64.918 6.18848C64.707 5.93652 64.458 5.81055 64.1709 5.81055C63.5381 5.81055 62.9111 6.17383 62.29 6.90039C61.6748 7.62695 61.2236 8.47656 60.9365 9.44922L60.1719 12.0771ZM75.5615 7.79688C75.5615 8.67578 75.3271 9.5459 74.8584 10.4072C74.3955 11.2686 73.748 11.9512 72.916 12.4551C72.084 12.959 71.2754 13.2109 70.4902 13.2109C69.6875 13.2109 69.0312 12.9561 68.5215 12.4463C68.0176 11.9307 67.7656 11.2656 67.7656 10.4512C67.7656 9.58984 68.0117 8.72559 68.5039 7.8584C69.002 6.99121 69.6641 6.30566 70.4902 5.80176C71.3223 5.29785 72.125 5.0459 72.8984 5.0459C73.6719 5.0459 74.3076 5.30078 74.8057 5.81055C75.3096 6.32031 75.5615 6.98242 75.5615 7.79688ZM74.1025 7.19043C74.1025 6.64551 73.9678 6.22949 73.6982 5.94238C73.4346 5.64941 73.0918 5.50293 72.6699 5.50293C71.8086 5.50293 71.0146 6.12109 70.2881 7.35742C69.5674 8.58789 69.207 9.8125 69.207 11.0312C69.207 11.5879 69.3477 12.0186 69.6289 12.3232C69.9102 12.6221 70.2646 12.7715 70.6924 12.7715C71.5186 12.7715 72.292 12.1592 73.0127 10.9346C73.7393 9.7041 74.1025 8.45605 74.1025 7.19043ZM83.1904 11.084C82.5811 11.8164 81.9658 12.3555 81.3447 12.7012C80.7236 13.041 80.0674 13.2109 79.376 13.2109C78.5439 13.2109 77.8936 12.9766 77.4248 12.5078C76.9619 12.0391 76.7305 11.4092 76.7305 10.6182C76.7305 9.72168 76.9795 8.83984 77.4775 7.97266C77.9814 7.10547 78.6553 6.40234 79.499 5.86328C80.3486 5.31836 81.1807 5.0459 81.9951 5.0459C82.6338 5.0459 83.1113 5.18066 83.4277 5.4502C83.7441 5.71387 83.9023 6.03906 83.9023 6.42578C83.9023 6.78906 83.791 7.09961 83.5684 7.35742C83.4043 7.55664 83.2021 7.65625 82.9619 7.65625C82.7803 7.65625 82.6279 7.59766 82.5049 7.48047C82.3877 7.36328 82.3291 7.2168 82.3291 7.04102C82.3291 6.92969 82.3496 6.82715 82.3906 6.7334C82.4375 6.63965 82.5283 6.52832 82.6631 6.39941C82.8037 6.26465 82.8887 6.16797 82.918 6.10938C82.9473 6.05078 82.9619 5.98926 82.9619 5.9248C82.9619 5.80176 82.9062 5.69922 82.7949 5.61719C82.625 5.5 82.3848 5.44141 82.0742 5.44141C81.5 5.44141 80.9316 5.64355 80.3691 6.04785C79.8066 6.45215 79.3262 7.02637 78.9277 7.77051C78.4473 8.67285 78.207 9.5752 78.207 10.4775C78.207 11.0752 78.377 11.5498 78.7168 11.9014C79.0566 12.2471 79.5195 12.4199 80.1055 12.4199C80.5566 12.4199 81.002 12.3086 81.4414 12.0859C81.8867 11.8574 82.3848 11.4473 82.9355 10.8555L83.1904 11.084ZM88.1387 5.0459L86.9961 9.00977C87.5059 8.07812 87.9395 7.37793 88.2969 6.90918C88.8535 6.18262 89.3955 5.65527 89.9229 5.32715C90.2334 5.13965 90.5586 5.0459 90.8984 5.0459C91.1914 5.0459 91.4346 5.13965 91.6279 5.32715C91.8213 5.51465 91.918 5.75488 91.918 6.04785C91.918 6.33496 91.8506 6.70996 91.7158 7.17285L91.0918 9.40527C92.0469 7.61816 92.9521 6.36426 93.8076 5.64355C94.2822 5.24512 94.751 5.0459 95.2139 5.0459C95.4834 5.0459 95.7031 5.13965 95.873 5.32715C96.0488 5.50879 96.1367 5.79297 96.1367 6.17969C96.1367 6.51953 96.084 6.87988 95.9785 7.26074L95.0117 10.6797C94.8008 11.4238 94.6953 11.8369 94.6953 11.9189C94.6953 12.001 94.7217 12.0713 94.7744 12.1299C94.8096 12.1709 94.8564 12.1914 94.915 12.1914C94.9736 12.1914 95.0762 12.1357 95.2227 12.0244C95.5566 11.7666 95.8701 11.4268 96.1631 11.0049L96.4531 11.1895C96.3066 11.4238 96.0459 11.7461 95.6709 12.1562C95.3018 12.5664 94.9854 12.8447 94.7217 12.9912C94.458 13.1377 94.2148 13.2109 93.9922 13.2109C93.7871 13.2109 93.6143 13.1406 93.4736 13C93.3389 12.8594 93.2715 12.6865 93.2715 12.4814C93.2715 12.2002 93.3916 11.6348 93.6318 10.7852L94.4316 7.96387C94.6133 7.31348 94.71 6.95312 94.7217 6.88281C94.7393 6.77148 94.748 6.66309 94.748 6.55762C94.748 6.41113 94.7158 6.29688 94.6514 6.21484C94.5811 6.13281 94.502 6.0918 94.4141 6.0918C94.168 6.0918 93.9072 6.21777 93.6318 6.46973C92.8232 7.21387 92.0674 8.25684 91.3643 9.59863C90.9014 10.4834 90.4678 11.6172 90.0635 13H88.7363L90.2393 7.68262C90.4033 7.1084 90.4854 6.72461 90.4854 6.53125C90.4854 6.37305 90.4531 6.25586 90.3887 6.17969C90.3242 6.10352 90.2451 6.06543 90.1514 6.06543C89.958 6.06543 89.7529 6.13574 89.5361 6.27637C89.1846 6.50488 88.7305 6.99414 88.1738 7.74414C87.623 8.49414 87.1953 9.21191 86.8906 9.89746C86.7441 10.2197 86.3955 11.2539 85.8447 13H84.5439L86.1699 7.30469L86.3809 6.56641C86.4219 6.45508 86.4424 6.37305 86.4424 6.32031C86.4424 6.19141 86.3838 6.07715 86.2666 5.97754C86.1494 5.87207 86 5.81934 85.8184 5.81934C85.7422 5.81934 85.5312 5.85449 85.1855 5.9248L85.1064 5.59961L88.1387 5.0459ZM105.919 5.0459L104.205 11.0049L104.012 11.8047C103.994 11.8809 103.985 11.9453 103.985 11.998C103.985 12.0918 104.015 12.1738 104.073 12.2441C104.12 12.2969 104.179 12.3232 104.249 12.3232C104.325 12.3232 104.425 12.2764 104.548 12.1826C104.776 12.0127 105.081 11.6611 105.462 11.1279L105.761 11.3389C105.356 11.9482 104.94 12.4141 104.513 12.7363C104.085 13.0527 103.689 13.2109 103.326 13.2109C103.074 13.2109 102.884 13.1465 102.755 13.0176C102.632 12.8945 102.57 12.7129 102.57 12.4727C102.57 12.1855 102.635 11.8076 102.764 11.3389L102.948 10.6797C102.181 11.6816 101.475 12.3818 100.83 12.7803C100.367 13.0674 99.9131 13.2109 99.4678 13.2109C99.04 13.2109 98.6709 13.0352 98.3604 12.6836C98.0498 12.3262 97.8945 11.8369 97.8945 11.2158C97.8945 10.2842 98.1729 9.30273 98.7295 8.27148C99.292 7.23438 100.004 6.40527 100.865 5.78418C101.539 5.29199 102.175 5.0459 102.772 5.0459C103.13 5.0459 103.426 5.13965 103.66 5.32715C103.9 5.51465 104.082 5.8252 104.205 6.25879L104.521 5.25684L105.919 5.0459ZM102.79 5.50293C102.415 5.50293 102.017 5.67871 101.595 6.03027C100.997 6.52832 100.464 7.2666 99.9951 8.24512C99.5322 9.22363 99.3008 10.1084 99.3008 10.8994C99.3008 11.2979 99.4004 11.6143 99.5996 11.8486C99.7988 12.0771 100.027 12.1914 100.285 12.1914C100.924 12.1914 101.618 11.7197 102.368 10.7764C103.37 9.52246 103.871 8.23633 103.871 6.91797C103.871 6.41992 103.774 6.05957 103.581 5.83691C103.388 5.61426 103.124 5.50293 102.79 5.50293Z" fill="black" fill-opacity="0.2"/>
<path d="M11.665 0.80957L10.7773 4.66797H10.4609L10.4258 3.70117C10.3965 3.34961 10.3291 3.03613 10.2236 2.76074C10.1182 2.48535 9.95996 2.24805 9.74902 2.04883C9.53809 1.84375 9.27148 1.68555 8.94922 1.57422C8.62695 1.45703 8.26953 1.39844 7.87695 1.39844C6.82812 1.39844 5.91113 1.68555 5.12598 2.25977C4.12402 2.99219 3.33887 4.02637 2.77051 5.3623C2.30176 6.46387 2.06738 7.58008 2.06738 8.71094C2.06738 9.86523 2.4043 10.7881 3.07812 11.4795C3.75195 12.165 4.62793 12.5078 5.70605 12.5078C6.52051 12.5078 7.24414 12.3262 7.87695 11.9629C8.51562 11.5996 9.10742 11.04 9.65234 10.2842H10.0654C9.4209 11.3096 8.70605 12.0654 7.9209 12.5518C7.13574 13.0322 6.19531 13.2725 5.09961 13.2725C4.12695 13.2725 3.26562 13.0703 2.51562 12.666C1.76562 12.2559 1.19434 11.6816 0.801758 10.9434C0.40918 10.2051 0.212891 9.41113 0.212891 8.56152C0.212891 7.26074 0.561523 5.99512 1.25879 4.76465C1.95605 3.53418 2.91113 2.56738 4.12402 1.86426C5.34277 1.16113 6.57031 0.80957 7.80664 0.80957C8.38672 0.80957 9.03711 0.947266 9.75781 1.22266C10.0742 1.33984 10.3027 1.39844 10.4434 1.39844C10.584 1.39844 10.707 1.36914 10.8125 1.31055C10.918 1.25195 11.0938 1.08496 11.3398 0.80957H11.665ZM11.9287 5.58203L14.6357 5.0459H14.9785L13.8535 8.87793C14.0703 8.88965 14.1934 8.89551 14.2227 8.89551C15.1719 8.89551 15.916 8.29199 16.4551 7.08496C16.7539 6.41699 16.9619 5.98047 17.0791 5.77539C17.2021 5.56445 17.3633 5.3916 17.5625 5.25684C17.7676 5.11621 17.999 5.0459 18.2568 5.0459C18.5732 5.0459 18.8369 5.14551 19.0479 5.34473C19.2646 5.54395 19.373 5.77832 19.373 6.04785C19.373 6.27637 19.2969 6.47266 19.1445 6.63672C18.9922 6.79492 18.8164 6.87402 18.6172 6.87402C18.3711 6.87402 18.1514 6.73047 17.958 6.44336C17.8232 6.23828 17.7031 6.13574 17.5977 6.13574C17.4395 6.13574 17.249 6.40234 17.0264 6.93555C16.5459 8.08984 16.0098 8.78711 15.418 9.02734C15.6699 9.15039 15.8896 9.34668 16.0771 9.61621C16.2705 9.88574 16.6426 10.542 17.1934 11.585C17.4395 12.0654 17.6709 12.3584 17.8877 12.4639C18.1104 12.5693 18.377 12.6396 18.6875 12.6748L18.582 13H16.4814C15.9717 11.8984 15.5381 11.043 15.1807 10.4336C14.8232 9.82422 14.5654 9.47559 14.4072 9.3877C14.2549 9.2998 14.0352 9.25586 13.748 9.25586L12.6494 13H11.3311L13.0713 7.05859C13.1826 6.68945 13.2383 6.43164 13.2383 6.28516C13.2383 5.97461 13.0303 5.81934 12.6143 5.81934C12.4854 5.81934 12.2568 5.84277 11.9287 5.88965V5.58203ZM27.415 5.0459L25.7012 11.0049L25.5078 11.8047C25.4902 11.8809 25.4814 11.9453 25.4814 11.998C25.4814 12.0918 25.5107 12.1738 25.5693 12.2441C25.6162 12.2969 25.6748 12.3232 25.7451 12.3232C25.8213 12.3232 25.9209 12.2764 26.0439 12.1826C26.2725 12.0127 26.5771 11.6611 26.958 11.1279L27.2568 11.3389C26.8525 11.9482 26.4365 12.4141 26.0088 12.7363C25.5811 13.0527 25.1855 13.2109 24.8223 13.2109C24.5703 13.2109 24.3799 13.1465 24.251 13.0176C24.1279 12.8945 24.0664 12.7129 24.0664 12.4727C24.0664 12.1855 24.1309 11.8076 24.2598 11.3389L24.4443 10.6797C23.6768 11.6816 22.9707 12.3818 22.3262 12.7803C21.8633 13.0674 21.4092 13.2109 20.9639 13.2109C20.5361 13.2109 20.167 13.0352 19.8564 12.6836C19.5459 12.3262 19.3906 11.8369 19.3906 11.2158C19.3906 10.2842 19.6689 9.30273 20.2256 8.27148C20.7881 7.23438 21.5 6.40527 22.3613 5.78418C23.0352 5.29199 23.6709 5.0459 24.2686 5.0459C24.626 5.0459 24.9219 5.13965 25.1562 5.32715C25.3965 5.51465 25.5781 5.8252 25.7012 6.25879L26.0176 5.25684L27.415 5.0459ZM24.2861 5.50293C23.9111 5.50293 23.5127 5.67871 23.0908 6.03027C22.4932 6.52832 21.96 7.2666 21.4912 8.24512C21.0283 9.22363 20.7969 10.1084 20.7969 10.8994C20.7969 11.2979 20.8965 11.6143 21.0957 11.8486C21.2949 12.0771 21.5234 12.1914 21.7812 12.1914C22.4199 12.1914 23.1143 11.7197 23.8643 10.7764C24.8662 9.52246 25.3672 8.23633 25.3672 6.91797C25.3672 6.41992 25.2705 6.05957 25.0771 5.83691C24.8838 5.61426 24.6201 5.50293 24.2861 5.50293ZM28.5752 5.5293L31.0625 5.0459H31.3877L30.5352 8.04297C30.4121 8.46484 30.3506 8.7373 30.3506 8.86035C30.3506 9.35254 30.6963 9.59863 31.3877 9.59863C31.9502 9.59863 32.5918 9.36426 33.3125 8.89551L34.376 5.25684H35.7207L33.9365 11.374C33.8428 11.7139 33.7959 11.9219 33.7959 11.998C33.7959 12.1504 33.8662 12.2266 34.0068 12.2266C34.2412 12.2266 34.6689 11.834 35.29 11.0488L35.5801 11.2246C34.5781 12.5488 33.7578 13.2109 33.1191 13.2109C32.6445 13.2109 32.4072 12.959 32.4072 12.4551C32.4072 12.1445 32.5068 11.6553 32.7061 10.9873L33.1543 9.45801C32.3984 9.96777 31.6426 10.2227 30.8867 10.2227C30.3945 10.2227 29.9668 10.0938 29.6035 9.83594C29.2402 9.57812 29.0586 9.25293 29.0586 8.86035C29.0586 8.62598 29.126 8.28027 29.2607 7.82324L29.498 7.01465C29.5918 6.69238 29.6387 6.45801 29.6387 6.31152C29.6387 5.99512 29.4395 5.83691 29.041 5.83691C28.8652 5.83691 28.6777 5.85156 28.4785 5.88086L28.5752 5.5293ZM37.2412 5.58203L39.9482 5.0459H40.291L39.166 8.87793C39.3828 8.88965 39.5059 8.89551 39.5352 8.89551C40.4844 8.89551 41.2285 8.29199 41.7676 7.08496C42.0664 6.41699 42.2744 5.98047 42.3916 5.77539C42.5146 5.56445 42.6758 5.3916 42.875 5.25684C43.0801 5.11621 43.3115 5.0459 43.5693 5.0459C43.8857 5.0459 44.1494 5.14551 44.3604 5.34473C44.5771 5.54395 44.6855 5.77832 44.6855 6.04785C44.6855 6.27637 44.6094 6.47266 44.457 6.63672C44.3047 6.79492 44.1289 6.87402 43.9297 6.87402C43.6836 6.87402 43.4639 6.73047 43.2705 6.44336C43.1357 6.23828 43.0156 6.13574 42.9102 6.13574C42.752 6.13574 42.5615 6.40234 42.3389 6.93555C41.8584 8.08984 41.3223 8.78711 40.7305 9.02734C40.9824 9.15039 41.2021 9.34668 41.3896 9.61621C41.583 9.88574 41.9551 10.542 42.5059 11.585C42.752 12.0654 42.9834 12.3584 43.2002 12.4639C43.4229 12.5693 43.6895 12.6396 44 12.6748L43.8945 13H41.7939C41.2842 11.8984 40.8506 11.043 40.4932 10.4336C40.1357 9.82422 39.8779 9.47559 39.7197 9.3877C39.5674 9.2998 39.3477 9.25586 39.0605 9.25586L37.9619 13H36.6436L38.3838 7.05859C38.4951 6.68945 38.5508 6.43164 38.5508 6.28516C38.5508 5.97461 38.3428 5.81934 37.9268 5.81934C37.7979 5.81934 37.5693 5.84277 37.2412 5.88965V5.58203ZM53.2109 5.25684L51.6816 10.4951C51.4531 11.2744 51.3389 11.7666 51.3389 11.9717C51.3389 12.0771 51.3564 12.1562 51.3916 12.209C51.4326 12.2559 51.4854 12.2793 51.5498 12.2793C51.6494 12.2793 51.7578 12.2354 51.875 12.1475C51.998 12.0537 52.3027 11.6904 52.7891 11.0576L53.0527 11.2598C52.5898 11.9922 52.1152 12.5312 51.6289 12.877C51.3066 13.0996 50.9961 13.2109 50.6973 13.2109C50.4688 13.2109 50.29 13.1465 50.1611 13.0176C50.0322 12.8887 49.9678 12.7217 49.9678 12.5166C49.9678 12.3174 50.0059 12.0537 50.082 11.7256C50.1758 11.292 50.4424 10.3486 50.8818 8.89551C49.8857 10.5303 49.0508 11.6582 48.377 12.2793C47.709 12.9004 47.0879 13.2109 46.5137 13.2109C46.2441 13.2109 46.0156 13.1172 45.8281 12.9297C45.6406 12.7422 45.5469 12.5049 45.5469 12.2178C45.5469 11.7783 45.6758 11.1045 45.9336 10.1963L46.6982 7.48047C46.8857 6.83008 46.9795 6.42578 46.9795 6.26758C46.9795 6.19727 46.9531 6.13867 46.9004 6.0918C46.8535 6.03906 46.8008 6.0127 46.7422 6.0127C46.6191 6.0127 46.4961 6.05664 46.373 6.14453C46.25 6.23242 45.9717 6.55762 45.5381 7.12012L45.2656 6.92676C45.7051 6.24707 46.1709 5.74609 46.6631 5.42383C47.0381 5.17188 47.3838 5.0459 47.7002 5.0459C47.917 5.0459 48.0928 5.11621 48.2275 5.25684C48.3682 5.3916 48.4385 5.56738 48.4385 5.78418C48.4385 6.10059 48.3213 6.66602 48.0869 7.48047L47.2607 10.3193C47.0322 11.0928 46.918 11.582 46.918 11.7871C46.918 11.8984 46.9531 11.9893 47.0234 12.0596C47.0996 12.124 47.1992 12.1562 47.3223 12.1562C47.5156 12.1562 47.7676 12.0596 48.0781 11.8662C48.3887 11.6729 48.8018 11.2451 49.3174 10.583C49.8389 9.91504 50.2666 9.29102 50.6006 8.71094C50.9404 8.125 51.3008 7.19629 51.6816 5.9248L51.875 5.25684H53.2109ZM62.2197 5.0459L61.6133 7.06738C62.252 6.31738 62.8203 5.79297 63.3184 5.49414C63.8223 5.19531 64.335 5.0459 64.8564 5.0459C65.3779 5.0459 65.8232 5.25391 66.1924 5.66992C66.5615 6.08008 66.7461 6.61621 66.7461 7.27832C66.7461 8.56738 66.2217 9.87988 65.1729 11.2158C64.124 12.5459 62.9023 13.2109 61.5078 13.2109C61.2148 13.2109 60.9541 13.1787 60.7256 13.1143C60.5029 13.0498 60.251 12.9355 59.9697 12.7715L59.3281 15.0391C59.1992 15.4844 59.1348 15.7744 59.1348 15.9092C59.1348 16.0381 59.167 16.1465 59.2314 16.2344C59.3018 16.3281 59.4131 16.3984 59.5654 16.4453C59.7178 16.498 60.0195 16.5244 60.4707 16.5244L60.3916 16.8496H56.252L56.3398 16.5244C56.8848 16.501 57.2539 16.4072 57.4473 16.2432C57.6348 16.0791 57.834 15.625 58.0449 14.8809L60.2686 7.18164C60.4033 6.69531 60.4707 6.39355 60.4707 6.27637C60.4707 6.11816 60.4238 5.99512 60.3301 5.90723C60.2422 5.81934 60.1045 5.77539 59.917 5.77539C59.7471 5.77539 59.5098 5.7959 59.2051 5.83691V5.49414L62.2197 5.0459ZM60.1719 12.0771C60.5352 12.5107 61.0244 12.7275 61.6396 12.7275C61.9443 12.7275 62.2549 12.6426 62.5713 12.4727C62.8877 12.3027 63.1953 12.0508 63.4941 11.7168C63.7988 11.3828 64.0713 10.999 64.3115 10.5654C64.5518 10.126 64.7656 9.61035 64.9531 9.01855C65.1465 8.42676 65.2432 7.84082 65.2432 7.26074C65.2432 6.79199 65.1348 6.43457 64.918 6.18848C64.707 5.93652 64.458 5.81055 64.1709 5.81055C63.5381 5.81055 62.9111 6.17383 62.29 6.90039C61.6748 7.62695 61.2236 8.47656 60.9365 9.44922L60.1719 12.0771ZM75.5615 7.79688C75.5615 8.67578 75.3271 9.5459 74.8584 10.4072C74.3955 11.2686 73.748 11.9512 72.916 12.4551C72.084 12.959 71.2754 13.2109 70.4902 13.2109C69.6875 13.2109 69.0312 12.9561 68.5215 12.4463C68.0176 11.9307 67.7656 11.2656 67.7656 10.4512C67.7656 9.58984 68.0117 8.72559 68.5039 7.8584C69.002 6.99121 69.6641 6.30566 70.4902 5.80176C71.3223 5.29785 72.125 5.0459 72.8984 5.0459C73.6719 5.0459 74.3076 5.30078 74.8057 5.81055C75.3096 6.32031 75.5615 6.98242 75.5615 7.79688ZM74.1025 7.19043C74.1025 6.64551 73.9678 6.22949 73.6982 5.94238C73.4346 5.64941 73.0918 5.50293 72.6699 5.50293C71.8086 5.50293 71.0146 6.12109 70.2881 7.35742C69.5674 8.58789 69.207 9.8125 69.207 11.0312C69.207 11.5879 69.3477 12.0186 69.6289 12.3232C69.9102 12.6221 70.2646 12.7715 70.6924 12.7715C71.5186 12.7715 72.292 12.1592 73.0127 10.9346C73.7393 9.7041 74.1025 8.45605 74.1025 7.19043ZM83.1904 11.084C82.5811 11.8164 81.9658 12.3555 81.3447 12.7012C80.7236 13.041 80.0674 13.2109 79.376 13.2109C78.5439 13.2109 77.8936 12.9766 77.4248 12.5078C76.9619 12.0391 76.7305 11.4092 76.7305 10.6182C76.7305 9.72168 76.9795 8.83984 77.4775 7.97266C77.9814 7.10547 78.6553 6.40234 79.499 5.86328C80.3486 5.31836 81.1807 5.0459 81.9951 5.0459C82.6338 5.0459 83.1113 5.18066 83.4277 5.4502C83.7441 5.71387 83.9023 6.03906 83.9023 6.42578C83.9023 6.78906 83.791 7.09961 83.5684 7.35742C83.4043 7.55664 83.2021 7.65625 82.9619 7.65625C82.7803 7.65625 82.6279 7.59766 82.5049 7.48047C82.3877 7.36328 82.3291 7.2168 82.3291 7.04102C82.3291 6.92969 82.3496 6.82715 82.3906 6.7334C82.4375 6.63965 82.5283 6.52832 82.6631 6.39941C82.8037 6.26465 82.8887 6.16797 82.918 6.10938C82.9473 6.05078 82.9619 5.98926 82.9619 5.9248C82.9619 5.80176 82.9062 5.69922 82.7949 5.61719C82.625 5.5 82.3848 5.44141 82.0742 5.44141C81.5 5.44141 80.9316 5.64355 80.3691 6.04785C79.8066 6.45215 79.3262 7.02637 78.9277 7.77051C78.4473 8.67285 78.207 9.5752 78.207 10.4775C78.207 11.0752 78.377 11.5498 78.7168 11.9014C79.0566 12.2471 79.5195 12.4199 80.1055 12.4199C80.5566 12.4199 81.002 12.3086 81.4414 12.0859C81.8867 11.8574 82.3848 11.4473 82.9355 10.8555L83.1904 11.084ZM88.1387 5.0459L86.9961 9.00977C87.5059 8.07812 87.9395 7.37793 88.2969 6.90918C88.8535 6.18262 89.3955 5.65527 89.9229 5.32715C90.2334 5.13965 90.5586 5.0459 90.8984 5.0459C91.1914 5.0459 91.4346 5.13965 91.6279 5.32715C91.8213 5.51465 91.918 5.75488 91.918 6.04785C91.918 6.33496 91.8506 6.70996 91.7158 7.17285L91.0918 9.40527C92.0469 7.61816 92.9521 6.36426 93.8076 5.64355C94.2822 5.24512 94.751 5.0459 95.2139 5.0459C95.4834 5.0459 95.7031 5.13965 95.873 5.32715C96.0488 5.50879 96.1367 5.79297 96.1367 6.17969C96.1367 6.51953 96.084 6.87988 95.9785 7.26074L95.0117 10.6797C94.8008 11.4238 94.6953 11.8369 94.6953 11.9189C94.6953 12.001 94.7217 12.0713 94.7744 12.1299C94.8096 12.1709 94.8564 12.1914 94.915 12.1914C94.9736 12.1914 95.0762 12.1357 95.2227 12.0244C95.5566 11.7666 95.8701 11.4268 96.1631 11.0049L96.4531 11.1895C96.3066 11.4238 96.0459 11.7461 95.6709 12.1562C95.3018 12.5664 94.9854 12.8447 94.7217 12.9912C94.458 13.1377 94.2148 13.2109 93.9922 13.2109C93.7871 13.2109 93.6143 13.1406 93.4736 13C93.3389 12.8594 93.2715 12.6865 93.2715 12.4814C93.2715 12.2002 93.3916 11.6348 93.6318 10.7852L94.4316 7.96387C94.6133 7.31348 94.71 6.95312 94.7217 6.88281C94.7393 6.77148 94.748 6.66309 94.748 6.55762C94.748 6.41113 94.7158 6.29688 94.6514 6.21484C94.5811 6.13281 94.502 6.0918 94.4141 6.0918C94.168 6.0918 93.9072 6.21777 93.6318 6.46973C92.8232 7.21387 92.0674 8.25684 91.3643 9.59863C90.9014 10.4834 90.4678 11.6172 90.0635 13H88.7363L90.2393 7.68262C90.4033 7.1084 90.4854 6.72461 90.4854 6.53125C90.4854 6.37305 90.4531 6.25586 90.3887 6.17969C90.3242 6.10352 90.2451 6.06543 90.1514 6.06543C89.958 6.06543 89.7529 6.13574 89.5361 6.27637C89.1846 6.50488 88.7305 6.99414 88.1738 7.74414C87.623 8.49414 87.1953 9.21191 86.8906 9.89746C86.7441 10.2197 86.3955 11.2539 85.8447 13H84.5439L86.1699 7.30469L86.3809 6.56641C86.4219 6.45508 86.4424 6.37305 86.4424 6.32031C86.4424 6.19141 86.3838 6.07715 86.2666 5.97754C86.1494 5.87207 86 5.81934 85.8184 5.81934C85.7422 5.81934 85.5312 5.85449 85.1855 5.9248L85.1064 5.59961L88.1387 5.0459ZM105.919 5.0459L104.205 11.0049L104.012 11.8047C103.994 11.8809 103.985 11.9453 103.985 11.998C103.985 12.0918 104.015 12.1738 104.073 12.2441C104.12 12.2969 104.179 12.3232 104.249 12.3232C104.325 12.3232 104.425 12.2764 104.548 12.1826C104.776 12.0127 105.081 11.6611 105.462 11.1279L105.761 11.3389C105.356 11.9482 104.94 12.4141 104.513 12.7363C104.085 13.0527 103.689 13.2109 103.326 13.2109C103.074 13.2109 102.884 13.1465 102.755 13.0176C102.632 12.8945 102.57 12.7129 102.57 12.4727C102.57 12.1855 102.635 11.8076 102.764 11.3389L102.948 10.6797C102.181 11.6816 101.475 12.3818 100.83 12.7803C100.367 13.0674 99.9131 13.2109 99.4678 13.2109C99.04 13.2109 98.6709 13.0352 98.3604 12.6836C98.0498 12.3262 97.8945 11.8369 97.8945 11.2158C97.8945 10.2842 98.1729 9.30273 98.7295 8.27148C99.292 7.23438 100.004 6.40527 100.865 5.78418C101.539 5.29199 102.175 5.0459 102.772 5.0459C103.13 5.0459 103.426 5.13965 103.66 5.32715C103.9 5.51465 104.082 5.8252 104.205 6.25879L104.521 5.25684L105.919 5.0459ZM102.79 5.50293C102.415 5.50293 102.017 5.67871 101.595 6.03027C100.997 6.52832 100.464 7.2666 99.9951 8.24512C99.5322 9.22363 99.3008 10.1084 99.3008 10.8994C99.3008 11.2979 99.4004 11.6143 99.5996 11.8486C99.7988 12.0771 100.027 12.1914 100.285 12.1914C100.924 12.1914 101.618 11.7197 102.368 10.7764C103.37 9.52246 103.871 8.23633 103.871 6.91797C103.871 6.41992 103.774 6.05957 103.581 5.83691C103.388 5.61426 103.124 5.50293 102.79 5.50293Z" fill="black" fill-opacity="0.2"/>
<path d="M11.665 0.80957L10.7773 4.66797H10.4609L10.4258 3.70117C10.3965 3.34961 10.3291 3.03613 10.2236 2.76074C10.1182 2.48535 9.95996 2.24805 9.74902 2.04883C9.53809 1.84375 9.27148 1.68555 8.94922 1.57422C8.62695 1.45703 8.26953 1.39844 7.87695 1.39844C6.82812 1.39844 5.91113 1.68555 5.12598 2.25977C4.12402 2.99219 3.33887 4.02637 2.77051 5.3623C2.30176 6.46387 2.06738 7.58008 2.06738 8.71094C2.06738 9.86523 2.4043 10.7881 3.07812 11.4795C3.75195 12.165 4.62793 12.5078 5.70605 12.5078C6.52051 12.5078 7.24414 12.3262 7.87695 11.9629C8.51562 11.5996 9.10742 11.04 9.65234 10.2842H10.0654C9.4209 11.3096 8.70605 12.0654 7.9209 12.5518C7.13574 13.0322 6.19531 13.2725 5.09961 13.2725C4.12695 13.2725 3.26562 13.0703 2.51562 12.666C1.76562 12.2559 1.19434 11.6816 0.801758 10.9434C0.40918 10.2051 0.212891 9.41113 0.212891 8.56152C0.212891 7.26074 0.561523 5.99512 1.25879 4.76465C1.95605 3.53418 2.91113 2.56738 4.12402 1.86426C5.34277 1.16113 6.57031 0.80957 7.80664 0.80957C8.38672 0.80957 9.03711 0.947266 9.75781 1.22266C10.0742 1.33984 10.3027 1.39844 10.4434 1.39844C10.584 1.39844 10.707 1.36914 10.8125 1.31055C10.918 1.25195 11.0938 1.08496 11.3398 0.80957H11.665ZM11.9287 5.58203L14.6357 5.0459H14.9785L13.8535 8.87793C14.0703 8.88965 14.1934 8.89551 14.2227 8.89551C15.1719 8.89551 15.916 8.29199 16.4551 7.08496C16.7539 6.41699 16.9619 5.98047 17.0791 5.77539C17.2021 5.56445 17.3633 5.3916 17.5625 5.25684C17.7676 5.11621 17.999 5.0459 18.2568 5.0459C18.5732 5.0459 18.8369 5.14551 19.0479 5.34473C19.2646 5.54395 19.373 5.77832 19.373 6.04785C19.373 6.27637 19.2969 6.47266 19.1445 6.63672C18.9922 6.79492 18.8164 6.87402 18.6172 6.87402C18.3711 6.87402 18.1514 6.73047 17.958 6.44336C17.8232 6.23828 17.7031 6.13574 17.5977 6.13574C17.4395 6.13574 17.249 6.40234 17.0264 6.93555C16.5459 8.08984 16.0098 8.78711 15.418 9.02734C15.6699 9.15039 15.8896 9.34668 16.0771 9.61621C16.2705 9.88574 16.6426 10.542 17.1934 11.585C17.4395 12.0654 17.6709 12.3584 17.8877 12.4639C18.1104 12.5693 18.377 12.6396 18.6875 12.6748L18.582 13H16.4814C15.9717 11.8984 15.5381 11.043 15.1807 10.4336C14.8232 9.82422 14.5654 9.47559 14.4072 9.3877C14.2549 9.2998 14.0352 9.25586 13.748 9.25586L12.6494 13H11.3311L13.0713 7.05859C13.1826 6.68945 13.2383 6.43164 13.2383 6.28516C13.2383 5.97461 13.0303 5.81934 12.6143 5.81934C12.4854 5.81934 12.2568 5.84277 11.9287 5.88965V5.58203ZM27.415 5.0459L25.7012 11.0049L25.5078 11.8047C25.4902 11.8809 25.4814 11.9453 25.4814 11.998C25.4814 12.0918 25.5107 12.1738 25.5693 12.2441C25.6162 12.2969 25.6748 12.3232 25.7451 12.3232C25.8213 12.3232 25.9209 12.2764 26.0439 12.1826C26.2725 12.0127 26.5771 11.6611 26.958 11.1279L27.2568 11.3389C26.8525 11.9482 26.4365 12.4141 26.0088 12.7363C25.5811 13.0527 25.1855 13.2109 24.8223 13.2109C24.5703 13.2109 24.3799 13.1465 24.251 13.0176C24.1279 12.8945 24.0664 12.7129 24.0664 12.4727C24.0664 12.1855 24.1309 11.8076 24.2598 11.3389L24.4443 10.6797C23.6768 11.6816 22.9707 12.3818 22.3262 12.7803C21.8633 13.0674 21.4092 13.2109 20.9639 13.2109C20.5361 13.2109 20.167 13.0352 19.8564 12.6836C19.5459 12.3262 19.3906 11.8369 19.3906 11.2158C19.3906 10.2842 19.6689 9.30273 20.2256 8.27148C20.7881 7.23438 21.5 6.40527 22.3613 5.78418C23.0352 5.29199 23.6709 5.0459 24.2686 5.0459C24.626 5.0459 24.9219 5.13965 25.1562 5.32715C25.3965 5.51465 25.5781 5.8252 25.7012 6.25879L26.0176 5.25684L27.415 5.0459ZM24.2861 5.50293C23.9111 5.50293 23.5127 5.67871 23.0908 6.03027C22.4932 6.52832 21.96 7.2666 21.4912 8.24512C21.0283 9.22363 20.7969 10.1084 20.7969 10.8994C20.7969 11.2979 20.8965 11.6143 21.0957 11.8486C21.2949 12.0771 21.5234 12.1914 21.7812 12.1914C22.4199 12.1914 23.1143 11.7197 23.8643 10.7764C24.8662 9.52246 25.3672 8.23633 25.3672 6.91797C25.3672 6.41992 25.2705 6.05957 25.0771 5.83691C24.8838 5.61426 24.6201 5.50293 24.2861 5.50293ZM28.5752 5.5293L31.0625 5.0459H31.3877L30.5352 8.04297C30.4121 8.46484 30.3506 8.7373 30.3506 8.86035C30.3506 9.35254 30.6963 9.59863 31.3877 9.59863C31.9502 9.59863 32.5918 9.36426 33.3125 8.89551L34.376 5.25684H35.7207L33.9365 11.374C33.8428 11.7139 33.7959 11.9219 33.7959 11.998C33.7959 12.1504 33.8662 12.2266 34.0068 12.2266C34.2412 12.2266 34.6689 11.834 35.29 11.0488L35.5801 11.2246C34.5781 12.5488 33.7578 13.2109 33.1191 13.2109C32.6445 13.2109 32.4072 12.959 32.4072 12.4551C32.4072 12.1445 32.5068 11.6553 32.7061 10.9873L33.1543 9.45801C32.3984 9.96777 31.6426 10.2227 30.8867 10.2227C30.3945 10.2227 29.9668 10.0938 29.6035 9.83594C29.2402 9.57812 29.0586 9.25293 29.0586 8.86035C29.0586 8.62598 29.126 8.28027 29.2607 7.82324L29.498 7.01465C29.5918 6.69238 29.6387 6.45801 29.6387 6.31152C29.6387 5.99512 29.4395 5.83691 29.041 5.83691C28.8652 5.83691 28.6777 5.85156 28.4785 5.88086L28.5752 5.5293ZM37.2412 5.58203L39.9482 5.0459H40.291L39.166 8.87793C39.3828 8.88965 39.5059 8.89551 39.5352 8.89551C40.4844 8.89551 41.2285 8.29199 41.7676 7.08496C42.0664 6.41699 42.2744 5.98047 42.3916 5.77539C42.5146 5.56445 42.6758 5.3916 42.875 5.25684C43.0801 5.11621 43.3115 5.0459 43.5693 5.0459C43.8857 5.0459 44.1494 5.14551 44.3604 5.34473C44.5771 5.54395 44.6855 5.77832 44.6855 6.04785C44.6855 6.27637 44.6094 6.47266 44.457 6.63672C44.3047 6.79492 44.1289 6.87402 43.9297 6.87402C43.6836 6.87402 43.4639 6.73047 43.2705 6.44336C43.1357 6.23828 43.0156 6.13574 42.9102 6.13574C42.752 6.13574 42.5615 6.40234 42.3389 6.93555C41.8584 8.08984 41.3223 8.78711 40.7305 9.02734C40.9824 9.15039 41.2021 9.34668 41.3896 9.61621C41.583 9.88574 41.9551 10.542 42.5059 11.585C42.752 12.0654 42.9834 12.3584 43.2002 12.4639C43.4229 12.5693 43.6895 12.6396 44 12.6748L43.8945 13H41.7939C41.2842 11.8984 40.8506 11.043 40.4932 10.4336C40.1357 9.82422 39.8779 9.47559 39.7197 9.3877C39.5674 9.2998 39.3477 9.25586 39.0605 9.25586L37.9619 13H36.6436L38.3838 7.05859C38.4951 6.68945 38.5508 6.43164 38.5508 6.28516C38.5508 5.97461 38.3428 5.81934 37.9268 5.81934C37.7979 5.81934 37.5693 5.84277 37.2412 5.88965V5.58203ZM53.2109 5.25684L51.6816 10.4951C51.4531 11.2744 51.3389 11.7666 51.3389 11.9717C51.3389 12.0771 51.3564 12.1562 51.3916 12.209C51.4326 12.2559 51.4854 12.2793 51.5498 12.2793C51.6494 12.2793 51.7578 12.2354 51.875 12.1475C51.998 12.0537 52.3027 11.6904 52.7891 11.0576L53.0527 11.2598C52.5898 11.9922 52.1152 12.5312 51.6289 12.877C51.3066 13.0996 50.9961 13.2109 50.6973 13.2109C50.4688 13.2109 50.29 13.1465 50.1611 13.0176C50.0322 12.8887 49.9678 12.7217 49.9678 12.5166C49.9678 12.3174 50.0059 12.0537 50.082 11.7256C50.1758 11.292 50.4424 10.3486 50.8818 8.89551C49.8857 10.5303 49.0508 11.6582 48.377 12.2793C47.709 12.9004 47.0879 13.2109 46.5137 13.2109C46.2441 13.2109 46.0156 13.1172 45.8281 12.9297C45.6406 12.7422 45.5469 12.5049 45.5469 12.2178C45.5469 11.7783 45.6758 11.1045 45.9336 10.1963L46.6982 7.48047C46.8857 6.83008 46.9795 6.42578 46.9795 6.26758C46.9795 6.19727 46.9531 6.13867 46.9004 6.0918C46.8535 6.03906 46.8008 6.0127 46.7422 6.0127C46.6191 6.0127 46.4961 6.05664 46.373 6.14453C46.25 6.23242 45.9717 6.55762 45.5381 7.12012L45.2656 6.92676C45.7051 6.24707 46.1709 5.74609 46.6631 5.42383C47.0381 5.17188 47.3838 5.0459 47.7002 5.0459C47.917 5.0459 48.0928 5.11621 48.2275 5.25684C48.3682 5.3916 48.4385 5.56738 48.4385 5.78418C48.4385 6.10059 48.3213 6.66602 48.0869 7.48047L47.2607 10.3193C47.0322 11.0928 46.918 11.582 46.918 11.7871C46.918 11.8984 46.9531 11.9893 47.0234 12.0596C47.0996 12.124 47.1992 12.1562 47.3223 12.1562C47.5156 12.1562 47.7676 12.0596 48.0781 11.8662C48.3887 11.6729 48.8018 11.2451 49.3174 10.583C49.8389 9.91504 50.2666 9.29102 50.6006 8.71094C50.9404 8.125 51.3008 7.19629 51.6816 5.9248L51.875 5.25684H53.2109ZM62.2197 5.0459L61.6133 7.06738C62.252 6.31738 62.8203 5.79297 63.3184 5.49414C63.8223 5.19531 64.335 5.0459 64.8564 5.0459C65.3779 5.0459 65.8232 5.25391 66.1924 5.66992C66.5615 6.08008 66.7461 6.61621 66.7461 7.27832C66.7461 8.56738 66.2217 9.87988 65.1729 11.2158C64.124 12.5459 62.9023 13.2109 61.5078 13.2109C61.2148 13.2109 60.9541 13.1787 60.7256 13.1143C60.5029 13.0498 60.251 12.9355 59.9697 12.7715L59.3281 15.0391C59.1992 15.4844 59.1348 15.7744 59.1348 15.9092C59.1348 16.0381 59.167 16.1465 59.2314 16.2344C59.3018 16.3281 59.4131 16.3984 59.5654 16.4453C59.7178 16.498 60.0195 16.5244 60.4707 16.5244L60.3916 16.8496H56.252L56.3398 16.5244C56.8848 16.501 57.2539 16.4072 57.4473 16.2432C57.6348 16.0791 57.834 15.625 58.0449 14.8809L60.2686 7.18164C60.4033 6.69531 60.4707 6.39355 60.4707 6.27637C60.4707 6.11816 60.4238 5.99512 60.3301 5.90723C60.2422 5.81934 60.1045 5.77539 59.917 5.77539C59.7471 5.77539 59.5098 5.7959 59.2051 5.83691V5.49414L62.2197 5.0459ZM60.1719 12.0771C60.5352 12.5107 61.0244 12.7275 61.6396 12.7275C61.9443 12.7275 62.2549 12.6426 62.5713 12.4727C62.8877 12.3027 63.1953 12.0508 63.4941 11.7168C63.7988 11.3828 64.0713 10.999 64.3115 10.5654C64.5518 10.126 64.7656 9.61035 64.9531 9.01855C65.1465 8.42676 65.2432 7.84082 65.2432 7.26074C65.2432 6.79199 65.1348 6.43457 64.918 6.18848C64.707 5.93652 64.458 5.81055 64.1709 5.81055C63.5381 5.81055 62.9111 6.17383 62.29 6.90039C61.6748 7.62695 61.2236 8.47656 60.9365 9.44922L60.1719 12.0771ZM75.5615 7.79688C75.5615 8.67578 75.3271 9.5459 74.8584 10.4072C74.3955 11.2686 73.748 11.9512 72.916 12.4551C72.084 12.959 71.2754 13.2109 70.4902 13.2109C69.6875 13.2109 69.0312 12.9561 68.5215 12.4463C68.0176 11.9307 67.7656 11.2656 67.7656 10.4512C67.7656 9.58984 68.0117 8.72559 68.5039 7.8584C69.002 6.99121 69.6641 6.30566 70.4902 5.80176C71.3223 5.29785 72.125 5.0459 72.8984 5.0459C73.6719 5.0459 74.3076 5.30078 74.8057 5.81055C75.3096 6.32031 75.5615 6.98242 75.5615 7.79688ZM74.1025 7.19043C74.1025 6.64551 73.9678 6.22949 73.6982 5.94238C73.4346 5.64941 73.0918 5.50293 72.6699 5.50293C71.8086 5.50293 71.0146 6.12109 70.2881 7.35742C69.5674 8.58789 69.207 9.8125 69.207 11.0312C69.207 11.5879 69.3477 12.0186 69.6289 12.3232C69.9102 12.6221 70.2646 12.7715 70.6924 12.7715C71.5186 12.7715 72.292 12.1592 73.0127 10.9346C73.7393 9.7041 74.1025 8.45605 74.1025 7.19043ZM83.1904 11.084C82.5811 11.8164 81.9658 12.3555 81.3447 12.7012C80.7236 13.041 80.0674 13.2109 79.376 13.2109C78.5439 13.2109 77.8936 12.9766 77.4248 12.5078C76.9619 12.0391 76.7305 11.4092 76.7305 10.6182C76.7305 9.72168 76.9795 8.83984 77.4775 7.97266C77.9814 7.10547 78.6553 6.40234 79.499 5.86328C80.3486 5.31836 81.1807 5.0459 81.9951 5.0459C82.6338 5.0459 83.1113 5.18066 83.4277 5.4502C83.7441 5.71387 83.9023 6.03906 83.9023 6.42578C83.9023 6.78906 83.791 7.09961 83.5684 7.35742C83.4043 7.55664 83.2021 7.65625 82.9619 7.65625C82.7803 7.65625 82.6279 7.59766 82.5049 7.48047C82.3877 7.36328 82.3291 7.2168 82.3291 7.04102C82.3291 6.92969 82.3496 6.82715 82.3906 6.7334C82.4375 6.63965 82.5283 6.52832 82.6631 6.39941C82.8037 6.26465 82.8887 6.16797 82.918 6.10938C82.9473 6.05078 82.9619 5.98926 82.9619 5.9248C82.9619 5.80176 82.9062 5.69922 82.7949 5.61719C82.625 5.5 82.3848 5.44141 82.0742 5.44141C81.5 5.44141 80.9316 5.64355 80.3691 6.04785C79.8066 6.45215 79.3262 7.02637 78.9277 7.77051C78.4473 8.67285 78.207 9.5752 78.207 10.4775C78.207 11.0752 78.377 11.5498 78.7168 11.9014C79.0566 12.2471 79.5195 12.4199 80.1055 12.4199C80.5566 12.4199 81.002 12.3086 81.4414 12.0859C81.8867 11.8574 82.3848 11.4473 82.9355 10.8555L83.1904 11.084ZM88.1387 5.0459L86.9961 9.00977C87.5059 8.07812 87.9395 7.37793 88.2969 6.90918C88.8535 6.18262 89.3955 5.65527 89.9229 5.32715C90.2334 5.13965 90.5586 5.0459 90.8984 5.0459C91.1914 5.0459 91.4346 5.13965 91.6279 5.32715C91.8213 5.51465 91.918 5.75488 91.918 6.04785C91.918 6.33496 91.8506 6.70996 91.7158 7.17285L91.0918 9.40527C92.0469 7.61816 92.9521 6.36426 93.8076 5.64355C94.2822 5.24512 94.751 5.0459 95.2139 5.0459C95.4834 5.0459 95.7031 5.13965 95.873 5.32715C96.0488 5.50879 96.1367 5.79297 96.1367 6.17969C96.1367 6.51953 96.084 6.87988 95.9785 7.26074L95.0117 10.6797C94.8008 11.4238 94.6953 11.8369 94.6953 11.9189C94.6953 12.001 94.7217 12.0713 94.7744 12.1299C94.8096 12.1709 94.8564 12.1914 94.915 12.1914C94.9736 12.1914 95.0762 12.1357 95.2227 12.0244C95.5566 11.7666 95.8701 11.4268 96.1631 11.0049L96.4531 11.1895C96.3066 11.4238 96.0459 11.7461 95.6709 12.1562C95.3018 12.5664 94.9854 12.8447 94.7217 12.9912C94.458 13.1377 94.2148 13.2109 93.9922 13.2109C93.7871 13.2109 93.6143 13.1406 93.4736 13C93.3389 12.8594 93.2715 12.6865 93.2715 12.4814C93.2715 12.2002 93.3916 11.6348 93.6318 10.7852L94.4316 7.96387C94.6133 7.31348 94.71 6.95312 94.7217 6.88281C94.7393 6.77148 94.748 6.66309 94.748 6.55762C94.748 6.41113 94.7158 6.29688 94.6514 6.21484C94.5811 6.13281 94.502 6.0918 94.4141 6.0918C94.168 6.0918 93.9072 6.21777 93.6318 6.46973C92.8232 7.21387 92.0674 8.25684 91.3643 9.59863C90.9014 10.4834 90.4678 11.6172 90.0635 13H88.7363L90.2393 7.68262C90.4033 7.1084 90.4854 6.72461 90.4854 6.53125C90.4854 6.37305 90.4531 6.25586 90.3887 6.17969C90.3242 6.10352 90.2451 6.06543 90.1514 6.06543C89.958 6.06543 89.7529 6.13574 89.5361 6.27637C89.1846 6.50488 88.7305 6.99414 88.1738 7.74414C87.623 8.49414 87.1953 9.21191 86.8906 9.89746C86.7441 10.2197 86.3955 11.2539 85.8447 13H84.5439L86.1699 7.30469L86.3809 6.56641C86.4219 6.45508 86.4424 6.37305 86.4424 6.32031C86.4424 6.19141 86.3838 6.07715 86.2666 5.97754C86.1494 5.87207 86 5.81934 85.8184 5.81934C85.7422 5.81934 85.5312 5.85449 85.1855 5.9248L85.1064 5.59961L88.1387 5.0459ZM105.919 5.0459L104.205 11.0049L104.012 11.8047C103.994 11.8809 103.985 11.9453 103.985 11.998C103.985 12.0918 104.015 12.1738 104.073 12.2441C104.12 12.2969 104.179 12.3232 104.249 12.3232C104.325 12.3232 104.425 12.2764 104.548 12.1826C104.776 12.0127 105.081 11.6611 105.462 11.1279L105.761 11.3389C105.356 11.9482 104.94 12.4141 104.513 12.7363C104.085 13.0527 103.689 13.2109 103.326 13.2109C103.074 13.2109 102.884 13.1465 102.755 13.0176C102.632 12.8945 102.57 12.7129 102.57 12.4727C102.57 12.1855 102.635 11.8076 102.764 11.3389L102.948 10.6797C102.181 11.6816 101.475 12.3818 100.83 12.7803C100.367 13.0674 99.9131 13.2109 99.4678 13.2109C99.04 13.2109 98.6709 13.0352 98.3604 12.6836C98.0498 12.3262 97.8945 11.8369 97.8945 11.2158C97.8945 10.2842 98.1729 9.30273 98.7295 8.27148C99.292 7.23438 100.004 6.40527 100.865 5.78418C101.539 5.29199 102.175 5.0459 102.772 5.0459C103.13 5.0459 103.426 5.13965 103.66 5.32715C103.9 5.51465 104.082 5.8252 104.205 6.25879L104.521 5.25684L105.919 5.0459ZM102.79 5.50293C102.415 5.50293 102.017 5.67871 101.595 6.03027C100.997 6.52832 100.464 7.2666 99.9951 8.24512C99.5322 9.22363 99.3008 10.1084 99.3008 10.8994C99.3008 11.2979 99.4004 11.6143 99.5996 11.8486C99.7988 12.0771 100.027 12.1914 100.285 12.1914C100.924 12.1914 101.618 11.7197 102.368 10.7764C103.37 9.52246 103.871 8.23633 103.871 6.91797C103.871 6.41992 103.774 6.05957 103.581 5.83691C103.388 5.61426 103.124 5.50293 102.79 5.50293Z" fill="black" fill-opacity="0.2"/>
<path d="M11.665 0.80957L10.7773 4.66797H10.4609L10.4258 3.70117C10.3965 3.34961 10.3291 3.03613 10.2236 2.76074C10.1182 2.48535 9.95996 2.24805 9.74902 2.04883C9.53809 1.84375 9.27148 1.68555 8.94922 1.57422C8.62695 1.45703 8.26953 1.39844 7.87695 1.39844C6.82812 1.39844 5.91113 1.68555 5.12598 2.25977C4.12402 2.99219 3.33887 4.02637 2.77051 5.3623C2.30176 6.46387 2.06738 7.58008 2.06738 8.71094C2.06738 9.86523 2.4043 10.7881 3.07812 11.4795C3.75195 12.165 4.62793 12.5078 5.70605 12.5078C6.52051 12.5078 7.24414 12.3262 7.87695 11.9629C8.51562 11.5996 9.10742 11.04 9.65234 10.2842H10.0654C9.4209 11.3096 8.70605 12.0654 7.9209 12.5518C7.13574 13.0322 6.19531 13.2725 5.09961 13.2725C4.12695 13.2725 3.26562 13.0703 2.51562 12.666C1.76562 12.2559 1.19434 11.6816 0.801758 10.9434C0.40918 10.2051 0.212891 9.41113 0.212891 8.56152C0.212891 7.26074 0.561523 5.99512 1.25879 4.76465C1.95605 3.53418 2.91113 2.56738 4.12402 1.86426C5.34277 1.16113 6.57031 0.80957 7.80664 0.80957C8.38672 0.80957 9.03711 0.947266 9.75781 1.22266C10.0742 1.33984 10.3027 1.39844 10.4434 1.39844C10.584 1.39844 10.707 1.36914 10.8125 1.31055C10.918 1.25195 11.0938 1.08496 11.3398 0.80957H11.665ZM11.9287 5.58203L14.6357 5.0459H14.9785L13.8535 8.87793C14.0703 8.88965 14.1934 8.89551 14.2227 8.89551C15.1719 8.89551 15.916 8.29199 16.4551 7.08496C16.7539 6.41699 16.9619 5.98047 17.0791 5.77539C17.2021 5.56445 17.3633 5.3916 17.5625 5.25684C17.7676 5.11621 17.999 5.0459 18.2568 5.0459C18.5732 5.0459 18.8369 5.14551 19.0479 5.34473C19.2646 5.54395 19.373 5.77832 19.373 6.04785C19.373 6.27637 19.2969 6.47266 19.1445 6.63672C18.9922 6.79492 18.8164 6.87402 18.6172 6.87402C18.3711 6.87402 18.1514 6.73047 17.958 6.44336C17.8232 6.23828 17.7031 6.13574 17.5977 6.13574C17.4395 6.13574 17.249 6.40234 17.0264 6.93555C16.5459 8.08984 16.0098 8.78711 15.418 9.02734C15.6699 9.15039 15.8896 9.34668 16.0771 9.61621C16.2705 9.88574 16.6426 10.542 17.1934 11.585C17.4395 12.0654 17.6709 12.3584 17.8877 12.4639C18.1104 12.5693 18.377 12.6396 18.6875 12.6748L18.582 13H16.4814C15.9717 11.8984 15.5381 11.043 15.1807 10.4336C14.8232 9.82422 14.5654 9.47559 14.4072 9.3877C14.2549 9.2998 14.0352 9.25586 13.748 9.25586L12.6494 13H11.3311L13.0713 7.05859C13.1826 6.68945 13.2383 6.43164 13.2383 6.28516C13.2383 5.97461 13.0303 5.81934 12.6143 5.81934C12.4854 5.81934 12.2568 5.84277 11.9287 5.88965V5.58203ZM27.415 5.0459L25.7012 11.0049L25.5078 11.8047C25.4902 11.8809 25.4814 11.9453 25.4814 11.998C25.4814 12.0918 25.5107 12.1738 25.5693 12.2441C25.6162 12.2969 25.6748 12.3232 25.7451 12.3232C25.8213 12.3232 25.9209 12.2764 26.0439 12.1826C26.2725 12.0127 26.5771 11.6611 26.958 11.1279L27.2568 11.3389C26.8525 11.9482 26.4365 12.4141 26.0088 12.7363C25.5811 13.0527 25.1855 13.2109 24.8223 13.2109C24.5703 13.2109 24.3799 13.1465 24.251 13.0176C24.1279 12.8945 24.0664 12.7129 24.0664 12.4727C24.0664 12.1855 24.1309 11.8076 24.2598 11.3389L24.4443 10.6797C23.6768 11.6816 22.9707 12.3818 22.3262 12.7803C21.8633 13.0674 21.4092 13.2109 20.9639 13.2109C20.5361 13.2109 20.167 13.0352 19.8564 12.6836C19.5459 12.3262 19.3906 11.8369 19.3906 11.2158C19.3906 10.2842 19.6689 9.30273 20.2256 8.27148C20.7881 7.23438 21.5 6.40527 22.3613 5.78418C23.0352 5.29199 23.6709 5.0459 24.2686 5.0459C24.626 5.0459 24.9219 5.13965 25.1562 5.32715C25.3965 5.51465 25.5781 5.8252 25.7012 6.25879L26.0176 5.25684L27.415 5.0459ZM24.2861 5.50293C23.9111 5.50293 23.5127 5.67871 23.0908 6.03027C22.4932 6.52832 21.96 7.2666 21.4912 8.24512C21.0283 9.22363 20.7969 10.1084 20.7969 10.8994C20.7969 11.2979 20.8965 11.6143 21.0957 11.8486C21.2949 12.0771 21.5234 12.1914 21.7812 12.1914C22.4199 12.1914 23.1143 11.7197 23.8643 10.7764C24.8662 9.52246 25.3672 8.23633 25.3672 6.91797C25.3672 6.41992 25.2705 6.05957 25.0771 5.83691C24.8838 5.61426 24.6201 5.50293 24.2861 5.50293ZM28.5752 5.5293L31.0625 5.0459H31.3877L30.5352 8.04297C30.4121 8.46484 30.3506 8.7373 30.3506 8.86035C30.3506 9.35254 30.6963 9.59863 31.3877 9.59863C31.9502 9.59863 32.5918 9.36426 33.3125 8.89551L34.376 5.25684H35.7207L33.9365 11.374C33.8428 11.7139 33.7959 11.9219 33.7959 11.998C33.7959 12.1504 33.8662 12.2266 34.0068 12.2266C34.2412 12.2266 34.6689 11.834 35.29 11.0488L35.5801 11.2246C34.5781 12.5488 33.7578 13.2109 33.1191 13.2109C32.6445 13.2109 32.4072 12.959 32.4072 12.4551C32.4072 12.1445 32.5068 11.6553 32.7061 10.9873L33.1543 9.45801C32.3984 9.96777 31.6426 10.2227 30.8867 10.2227C30.3945 10.2227 29.9668 10.0938 29.6035 9.83594C29.2402 9.57812 29.0586 9.25293 29.0586 8.86035C29.0586 8.62598 29.126 8.28027 29.2607 7.82324L29.498 7.01465C29.5918 6.69238 29.6387 6.45801 29.6387 6.31152C29.6387 5.99512 29.4395 5.83691 29.041 5.83691C28.8652 5.83691 28.6777 5.85156 28.4785 5.88086L28.5752 5.5293ZM37.2412 5.58203L39.9482 5.0459H40.291L39.166 8.87793C39.3828 8.88965 39.5059 8.89551 39.5352 8.89551C40.4844 8.89551 41.2285 8.29199 41.7676 7.08496C42.0664 6.41699 42.2744 5.98047 42.3916 5.77539C42.5146 5.56445 42.6758 5.3916 42.875 5.25684C43.0801 5.11621 43.3115 5.0459 43.5693 5.0459C43.8857 5.0459 44.1494 5.14551 44.3604 5.34473C44.5771 5.54395 44.6855 5.77832 44.6855 6.04785C44.6855 6.27637 44.6094 6.47266 44.457 6.63672C44.3047 6.79492 44.1289 6.87402 43.9297 6.87402C43.6836 6.87402 43.4639 6.73047 43.2705 6.44336C43.1357 6.23828 43.0156 6.13574 42.9102 6.13574C42.752 6.13574 42.5615 6.40234 42.3389 6.93555C41.8584 8.08984 41.3223 8.78711 40.7305 9.02734C40.9824 9.15039 41.2021 9.34668 41.3896 9.61621C41.583 9.88574 41.9551 10.542 42.5059 11.585C42.752 12.0654 42.9834 12.3584 43.2002 12.4639C43.4229 12.5693 43.6895 12.6396 44 12.6748L43.8945 13H41.7939C41.2842 11.8984 40.8506 11.043 40.4932 10.4336C40.1357 9.82422 39.8779 9.47559 39.7197 9.3877C39.5674 9.2998 39.3477 9.25586 39.0605 9.25586L37.9619 13H36.6436L38.3838 7.05859C38.4951 6.68945 38.5508 6.43164 38.5508 6.28516C38.5508 5.97461 38.3428 5.81934 37.9268 5.81934C37.7979 5.81934 37.5693 5.84277 37.2412 5.88965V5.58203ZM53.2109 5.25684L51.6816 10.4951C51.4531 11.2744 51.3389 11.7666 51.3389 11.9717C51.3389 12.0771 51.3564 12.1562 51.3916 12.209C51.4326 12.2559 51.4854 12.2793 51.5498 12.2793C51.6494 12.2793 51.7578 12.2354 51.875 12.1475C51.998 12.0537 52.3027 11.6904 52.7891 11.0576L53.0527 11.2598C52.5898 11.9922 52.1152 12.5312 51.6289 12.877C51.3066 13.0996 50.9961 13.2109 50.6973 13.2109C50.4688 13.2109 50.29 13.1465 50.1611 13.0176C50.0322 12.8887 49.9678 12.7217 49.9678 12.5166C49.9678 12.3174 50.0059 12.0537 50.082 11.7256C50.1758 11.292 50.4424 10.3486 50.8818 8.89551C49.8857 10.5303 49.0508 11.6582 48.377 12.2793C47.709 12.9004 47.0879 13.2109 46.5137 13.2109C46.2441 13.2109 46.0156 13.1172 45.8281 12.9297C45.6406 12.7422 45.5469 12.5049 45.5469 12.2178C45.5469 11.7783 45.6758 11.1045 45.9336 10.1963L46.6982 7.48047C46.8857 6.83008 46.9795 6.42578 46.9795 6.26758C46.9795 6.19727 46.9531 6.13867 46.9004 6.0918C46.8535 6.03906 46.8008 6.0127 46.7422 6.0127C46.6191 6.0127 46.4961 6.05664 46.373 6.14453C46.25 6.23242 45.9717 6.55762 45.5381 7.12012L45.2656 6.92676C45.7051 6.24707 46.1709 5.74609 46.6631 5.42383C47.0381 5.17188 47.3838 5.0459 47.7002 5.0459C47.917 5.0459 48.0928 5.11621 48.2275 5.25684C48.3682 5.3916 48.4385 5.56738 48.4385 5.78418C48.4385 6.10059 48.3213 6.66602 48.0869 7.48047L47.2607 10.3193C47.0322 11.0928 46.918 11.582 46.918 11.7871C46.918 11.8984 46.9531 11.9893 47.0234 12.0596C47.0996 12.124 47.1992 12.1562 47.3223 12.1562C47.5156 12.1562 47.7676 12.0596 48.0781 11.8662C48.3887 11.6729 48.8018 11.2451 49.3174 10.583C49.8389 9.91504 50.2666 9.29102 50.6006 8.71094C50.9404 8.125 51.3008 7.19629 51.6816 5.9248L51.875 5.25684H53.2109ZM62.2197 5.0459L61.6133 7.06738C62.252 6.31738 62.8203 5.79297 63.3184 5.49414C63.8223 5.19531 64.335 5.0459 64.8564 5.0459C65.3779 5.0459 65.8232 5.25391 66.1924 5.66992C66.5615 6.08008 66.7461 6.61621 66.7461 7.27832C66.7461 8.56738 66.2217 9.87988 65.1729 11.2158C64.124 12.5459 62.9023 13.2109 61.5078 13.2109C61.2148 13.2109 60.9541 13.1787 60.7256 13.1143C60.5029 13.0498 60.251 12.9355 59.9697 12.7715L59.3281 15.0391C59.1992 15.4844 59.1348 15.7744 59.1348 15.9092C59.1348 16.0381 59.167 16.1465 59.2314 16.2344C59.3018 16.3281 59.4131 16.3984 59.5654 16.4453C59.7178 16.498 60.0195 16.5244 60.4707 16.5244L60.3916 16.8496H56.252L56.3398 16.5244C56.8848 16.501 57.2539 16.4072 57.4473 16.2432C57.6348 16.0791 57.834 15.625 58.0449 14.8809L60.2686 7.18164C60.4033 6.69531 60.4707 6.39355 60.4707 6.27637C60.4707 6.11816 60.4238 5.99512 60.3301 5.90723C60.2422 5.81934 60.1045 5.77539 59.917 5.77539C59.7471 5.77539 59.5098 5.7959 59.2051 5.83691V5.49414L62.2197 5.0459ZM60.1719 12.0771C60.5352 12.5107 61.0244 12.7275 61.6396 12.7275C61.9443 12.7275 62.2549 12.6426 62.5713 12.4727C62.8877 12.3027 63.1953 12.0508 63.4941 11.7168C63.7988 11.3828 64.0713 10.999 64.3115 10.5654C64.5518 10.126 64.7656 9.61035 64.9531 9.01855C65.1465 8.42676 65.2432 7.84082 65.2432 7.26074C65.2432 6.79199 65.1348 6.43457 64.918 6.18848C64.707 5.93652 64.458 5.81055 64.1709 5.81055C63.5381 5.81055 62.9111 6.17383 62.29 6.90039C61.6748 7.62695 61.2236 8.47656 60.9365 9.44922L60.1719 12.0771ZM75.5615 7.79688C75.5615 8.67578 75.3271 9.5459 74.8584 10.4072C74.3955 11.2686 73.748 11.9512 72.916 12.4551C72.084 12.959 71.2754 13.2109 70.4902 13.2109C69.6875 13.2109 69.0312 12.9561 68.5215 12.4463C68.0176 11.9307 67.7656 11.2656 67.7656 10.4512C67.7656 9.58984 68.0117 8.72559 68.5039 7.8584C69.002 6.99121 69.6641 6.30566 70.4902 5.80176C71.3223 5.29785 72.125 5.0459 72.8984 5.0459C73.6719 5.0459 74.3076 5.30078 74.8057 5.81055C75.3096 6.32031 75.5615 6.98242 75.5615 7.79688ZM74.1025 7.19043C74.1025 6.64551 73.9678 6.22949 73.6982 5.94238C73.4346 5.64941 73.0918 5.50293 72.6699 5.50293C71.8086 5.50293 71.0146 6.12109 70.2881 7.35742C69.5674 8.58789 69.207 9.8125 69.207 11.0312C69.207 11.5879 69.3477 12.0186 69.6289 12.3232C69.9102 12.6221 70.2646 12.7715 70.6924 12.7715C71.5186 12.7715 72.292 12.1592 73.0127 10.9346C73.7393 9.7041 74.1025 8.45605 74.1025 7.19043ZM83.1904 11.084C82.5811 11.8164 81.9658 12.3555 81.3447 12.7012C80.7236 13.041 80.0674 13.2109 79.376 13.2109C78.5439 13.2109 77.8936 12.9766 77.4248 12.5078C76.9619 12.0391 76.7305 11.4092 76.7305 10.6182C76.7305 9.72168 76.9795 8.83984 77.4775 7.97266C77.9814 7.10547 78.6553 6.40234 79.499 5.86328C80.3486 5.31836 81.1807 5.0459 81.9951 5.0459C82.6338 5.0459 83.1113 5.18066 83.4277 5.4502C83.7441 5.71387 83.9023 6.03906 83.9023 6.42578C83.9023 6.78906 83.791 7.09961 83.5684 7.35742C83.4043 7.55664 83.2021 7.65625 82.9619 7.65625C82.7803 7.65625 82.6279 7.59766 82.5049 7.48047C82.3877 7.36328 82.3291 7.2168 82.3291 7.04102C82.3291 6.92969 82.3496 6.82715 82.3906 6.7334C82.4375 6.63965 82.5283 6.52832 82.6631 6.39941C82.8037 6.26465 82.8887 6.16797 82.918 6.10938C82.9473 6.05078 82.9619 5.98926 82.9619 5.9248C82.9619 5.80176 82.9062 5.69922 82.7949 5.61719C82.625 5.5 82.3848 5.44141 82.0742 5.44141C81.5 5.44141 80.9316 5.64355 80.3691 6.04785C79.8066 6.45215 79.3262 7.02637 78.9277 7.77051C78.4473 8.67285 78.207 9.5752 78.207 10.4775C78.207 11.0752 78.377 11.5498 78.7168 11.9014C79.0566 12.2471 79.5195 12.4199 80.1055 12.4199C80.5566 12.4199 81.002 12.3086 81.4414 12.0859C81.8867 11.8574 82.3848 11.4473 82.9355 10.8555L83.1904 11.084ZM88.1387 5.0459L86.9961 9.00977C87.5059 8.07812 87.9395 7.37793 88.2969 6.90918C88.8535 6.18262 89.3955 5.65527 89.9229 5.32715C90.2334 5.13965 90.5586 5.0459 90.8984 5.0459C91.1914 5.0459 91.4346 5.13965 91.6279 5.32715C91.8213 5.51465 91.918 5.75488 91.918 6.04785C91.918 6.33496 91.8506 6.70996 91.7158 7.17285L91.0918 9.40527C92.0469 7.61816 92.9521 6.36426 93.8076 5.64355C94.2822 5.24512 94.751 5.0459 95.2139 5.0459C95.4834 5.0459 95.7031 5.13965 95.873 5.32715C96.0488 5.50879 96.1367 5.79297 96.1367 6.17969C96.1367 6.51953 96.084 6.87988 95.9785 7.26074L95.0117 10.6797C94.8008 11.4238 94.6953 11.8369 94.6953 11.9189C94.6953 12.001 94.7217 12.0713 94.7744 12.1299C94.8096 12.1709 94.8564 12.1914 94.915 12.1914C94.9736 12.1914 95.0762 12.1357 95.2227 12.0244C95.5566 11.7666 95.8701 11.4268 96.1631 11.0049L96.4531 11.1895C96.3066 11.4238 96.0459 11.7461 95.6709 12.1562C95.3018 12.5664 94.9854 12.8447 94.7217 12.9912C94.458 13.1377 94.2148 13.2109 93.9922 13.2109C93.7871 13.2109 93.6143 13.1406 93.4736 13C93.3389 12.8594 93.2715 12.6865 93.2715 12.4814C93.2715 12.2002 93.3916 11.6348 93.6318 10.7852L94.4316 7.96387C94.6133 7.31348 94.71 6.95312 94.7217 6.88281C94.7393 6.77148 94.748 6.66309 94.748 6.55762C94.748 6.41113 94.7158 6.29688 94.6514 6.21484C94.5811 6.13281 94.502 6.0918 94.4141 6.0918C94.168 6.0918 93.9072 6.21777 93.6318 6.46973C92.8232 7.21387 92.0674 8.25684 91.3643 9.59863C90.9014 10.4834 90.4678 11.6172 90.0635 13H88.7363L90.2393 7.68262C90.4033 7.1084 90.4854 6.72461 90.4854 6.53125C90.4854 6.37305 90.4531 6.25586 90.3887 6.17969C90.3242 6.10352 90.2451 6.06543 90.1514 6.06543C89.958 6.06543 89.7529 6.13574 89.5361 6.27637C89.1846 6.50488 88.7305 6.99414 88.1738 7.74414C87.623 8.49414 87.1953 9.21191 86.8906 9.89746C86.7441 10.2197 86.3955 11.2539 85.8447 13H84.5439L86.1699 7.30469L86.3809 6.56641C86.4219 6.45508 86.4424 6.37305 86.4424 6.32031C86.4424 6.19141 86.3838 6.07715 86.2666 5.97754C86.1494 5.87207 86 5.81934 85.8184 5.81934C85.7422 5.81934 85.5312 5.85449 85.1855 5.9248L85.1064 5.59961L88.1387 5.0459ZM105.919 5.0459L104.205 11.0049L104.012 11.8047C103.994 11.8809 103.985 11.9453 103.985 11.998C103.985 12.0918 104.015 12.1738 104.073 12.2441C104.12 12.2969 104.179 12.3232 104.249 12.3232C104.325 12.3232 104.425 12.2764 104.548 12.1826C104.776 12.0127 105.081 11.6611 105.462 11.1279L105.761 11.3389C105.356 11.9482 104.94 12.4141 104.513 12.7363C104.085 13.0527 103.689 13.2109 103.326 13.2109C103.074 13.2109 102.884 13.1465 102.755 13.0176C102.632 12.8945 102.57 12.7129 102.57 12.4727C102.57 12.1855 102.635 11.8076 102.764 11.3389L102.948 10.6797C102.181 11.6816 101.475 12.3818 100.83 12.7803C100.367 13.0674 99.9131 13.2109 99.4678 13.2109C99.04 13.2109 98.6709 13.0352 98.3604 12.6836C98.0498 12.3262 97.8945 11.8369 97.8945 11.2158C97.8945 10.2842 98.1729 9.30273 98.7295 8.27148C99.292 7.23438 100.004 6.40527 100.865 5.78418C101.539 5.29199 102.175 5.0459 102.772 5.0459C103.13 5.0459 103.426 5.13965 103.66 5.32715C103.9 5.51465 104.082 5.8252 104.205 6.25879L104.521 5.25684L105.919 5.0459ZM102.79 5.50293C102.415 5.50293 102.017 5.67871 101.595 6.03027C100.997 6.52832 100.464 7.2666 99.9951 8.24512C99.5322 9.22363 99.3008 10.1084 99.3008 10.8994C99.3008 11.2979 99.4004 11.6143 99.5996 11.8486C99.7988 12.0771 100.027 12.1914 100.285 12.1914C100.924 12.1914 101.618 11.7197 102.368 10.7764C103.37 9.52246 103.871 8.23633 103.871 6.91797C103.871 6.41992 103.774 6.05957 103.581 5.83691C103.388 5.61426 103.124 5.50293 102.79 5.50293Z" fill="black" fill-opacity="0.2"/>
<path d="M11.665 0.80957L10.7773 4.66797H10.4609L10.4258 3.70117C10.3965 3.34961 10.3291 3.03613 10.2236 2.76074C10.1182 2.48535 9.95996 2.24805 9.74902 2.04883C9.53809 1.84375 9.27148 1.68555 8.94922 1.57422C8.62695 1.45703 8.26953 1.39844 7.87695 1.39844C6.82812 1.39844 5.91113 1.68555 5.12598 2.25977C4.12402 2.99219 3.33887 4.02637 2.77051 5.3623C2.30176 6.46387 2.06738 7.58008 2.06738 8.71094C2.06738 9.86523 2.4043 10.7881 3.07812 11.4795C3.75195 12.165 4.62793 12.5078 5.70605 12.5078C6.52051 12.5078 7.24414 12.3262 7.87695 11.9629C8.51562 11.5996 9.10742 11.04 9.65234 10.2842H10.0654C9.4209 11.3096 8.70605 12.0654 7.9209 12.5518C7.13574 13.0322 6.19531 13.2725 5.09961 13.2725C4.12695 13.2725 3.26562 13.0703 2.51562 12.666C1.76562 12.2559 1.19434 11.6816 0.801758 10.9434C0.40918 10.2051 0.212891 9.41113 0.212891 8.56152C0.212891 7.26074 0.561523 5.99512 1.25879 4.76465C1.95605 3.53418 2.91113 2.56738 4.12402 1.86426C5.34277 1.16113 6.57031 0.80957 7.80664 0.80957C8.38672 0.80957 9.03711 0.947266 9.75781 1.22266C10.0742 1.33984 10.3027 1.39844 10.4434 1.39844C10.584 1.39844 10.707 1.36914 10.8125 1.31055C10.918 1.25195 11.0938 1.08496 11.3398 0.80957H11.665ZM11.9287 5.58203L14.6357 5.0459H14.9785L13.8535 8.87793C14.0703 8.88965 14.1934 8.89551 14.2227 8.89551C15.1719 8.89551 15.916 8.29199 16.4551 7.08496C16.7539 6.41699 16.9619 5.98047 17.0791 5.77539C17.2021 5.56445 17.3633 5.3916 17.5625 5.25684C17.7676 5.11621 17.999 5.0459 18.2568 5.0459C18.5732 5.0459 18.8369 5.14551 19.0479 5.34473C19.2646 5.54395 19.373 5.77832 19.373 6.04785C19.373 6.27637 19.2969 6.47266 19.1445 6.63672C18.9922 6.79492 18.8164 6.87402 18.6172 6.87402C18.3711 6.87402 18.1514 6.73047 17.958 6.44336C17.8232 6.23828 17.7031 6.13574 17.5977 6.13574C17.4395 6.13574 17.249 6.40234 17.0264 6.93555C16.5459 8.08984 16.0098 8.78711 15.418 9.02734C15.6699 9.15039 15.8896 9.34668 16.0771 9.61621C16.2705 9.88574 16.6426 10.542 17.1934 11.585C17.4395 12.0654 17.6709 12.3584 17.8877 12.4639C18.1104 12.5693 18.377 12.6396 18.6875 12.6748L18.582 13H16.4814C15.9717 11.8984 15.5381 11.043 15.1807 10.4336C14.8232 9.82422 14.5654 9.47559 14.4072 9.3877C14.2549 9.2998 14.0352 9.25586 13.748 9.25586L12.6494 13H11.3311L13.0713 7.05859C13.1826 6.68945 13.2383 6.43164 13.2383 6.28516C13.2383 5.97461 13.0303 5.81934 12.6143 5.81934C12.4854 5.81934 12.2568 5.84277 11.9287 5.88965V5.58203ZM27.415 5.0459L25.7012 11.0049L25.5078 11.8047C25.4902 11.8809 25.4814 11.9453 25.4814 11.998C25.4814 12.0918 25.5107 12.1738 25.5693 12.2441C25.6162 12.2969 25.6748 12.3232 25.7451 12.3232C25.8213 12.3232 25.9209 12.2764 26.0439 12.1826C26.2725 12.0127 26.5771 11.6611 26.958 11.1279L27.2568 11.3389C26.8525 11.9482 26.4365 12.4141 26.0088 12.7363C25.5811 13.0527 25.1855 13.2109 24.8223 13.2109C24.5703 13.2109 24.3799 13.1465 24.251 13.0176C24.1279 12.8945 24.0664 12.7129 24.0664 12.4727C24.0664 12.1855 24.1309 11.8076 24.2598 11.3389L24.4443 10.6797C23.6768 11.6816 22.9707 12.3818 22.3262 12.7803C21.8633 13.0674 21.4092 13.2109 20.9639 13.2109C20.5361 13.2109 20.167 13.0352 19.8564 12.6836C19.5459 12.3262 19.3906 11.8369 19.3906 11.2158C19.3906 10.2842 19.6689 9.30273 20.2256 8.27148C20.7881 7.23438 21.5 6.40527 22.3613 5.78418C23.0352 5.29199 23.6709 5.0459 24.2686 5.0459C24.626 5.0459 24.9219 5.13965 25.1562 5.32715C25.3965 5.51465 25.5781 5.8252 25.7012 6.25879L26.0176 5.25684L27.415 5.0459ZM24.2861 5.50293C23.9111 5.50293 23.5127 5.67871 23.0908 6.03027C22.4932 6.52832 21.96 7.2666 21.4912 8.24512C21.0283 9.22363 20.7969 10.1084 20.7969 10.8994C20.7969 11.2979 20.8965 11.6143 21.0957 11.8486C21.2949 12.0771 21.5234 12.1914 21.7812 12.1914C22.4199 12.1914 23.1143 11.7197 23.8643 10.7764C24.8662 9.52246 25.3672 8.23633 25.3672 6.91797C25.3672 6.41992 25.2705 6.05957 25.0771 5.83691C24.8838 5.61426 24.6201 5.50293 24.2861 5.50293ZM28.5752 5.5293L31.0625 5.0459H31.3877L30.5352 8.04297C30.4121 8.46484 30.3506 8.7373 30.3506 8.86035C30.3506 9.35254 30.6963 9.59863 31.3877 9.59863C31.9502 9.59863 32.5918 9.36426 33.3125 8.89551L34.376 5.25684H35.7207L33.9365 11.374C33.8428 11.7139 33.7959 11.9219 33.7959 11.998C33.7959 12.1504 33.8662 12.2266 34.0068 12.2266C34.2412 12.2266 34.6689 11.834 35.29 11.0488L35.5801 11.2246C34.5781 12.5488 33.7578 13.2109 33.1191 13.2109C32.6445 13.2109 32.4072 12.959 32.4072 12.4551C32.4072 12.1445 32.5068 11.6553 32.7061 10.9873L33.1543 9.45801C32.3984 9.96777 31.6426 10.2227 30.8867 10.2227C30.3945 10.2227 29.9668 10.0938 29.6035 9.83594C29.2402 9.57812 29.0586 9.25293 29.0586 8.86035C29.0586 8.62598 29.126 8.28027 29.2607 7.82324L29.498 7.01465C29.5918 6.69238 29.6387 6.45801 29.6387 6.31152C29.6387 5.99512 29.4395 5.83691 29.041 5.83691C28.8652 5.83691 28.6777 5.85156 28.4785 5.88086L28.5752 5.5293ZM37.2412 5.58203L39.9482 5.0459H40.291L39.166 8.87793C39.3828 8.88965 39.5059 8.89551 39.5352 8.89551C40.4844 8.89551 41.2285 8.29199 41.7676 7.08496C42.0664 6.41699 42.2744 5.98047 42.3916 5.77539C42.5146 5.56445 42.6758 5.3916 42.875 5.25684C43.0801 5.11621 43.3115 5.0459 43.5693 5.0459C43.8857 5.0459 44.1494 5.14551 44.3604 5.34473C44.5771 5.54395 44.6855 5.77832 44.6855 6.04785C44.6855 6.27637 44.6094 6.47266 44.457 6.63672C44.3047 6.79492 44.1289 6.87402 43.9297 6.87402C43.6836 6.87402 43.4639 6.73047 43.2705 6.44336C43.1357 6.23828 43.0156 6.13574 42.9102 6.13574C42.752 6.13574 42.5615 6.40234 42.3389 6.93555C41.8584 8.08984 41.3223 8.78711 40.7305 9.02734C40.9824 9.15039 41.2021 9.34668 41.3896 9.61621C41.583 9.88574 41.9551 10.542 42.5059 11.585C42.752 12.0654 42.9834 12.3584 43.2002 12.4639C43.4229 12.5693 43.6895 12.6396 44 12.6748L43.8945 13H41.7939C41.2842 11.8984 40.8506 11.043 40.4932 10.4336C40.1357 9.82422 39.8779 9.47559 39.7197 9.3877C39.5674 9.2998 39.3477 9.25586 39.0605 9.25586L37.9619 13H36.6436L38.3838 7.05859C38.4951 6.68945 38.5508 6.43164 38.5508 6.28516C38.5508 5.97461 38.3428 5.81934 37.9268 5.81934C37.7979 5.81934 37.5693 5.84277 37.2412 5.88965V5.58203ZM53.2109 5.25684L51.6816 10.4951C51.4531 11.2744 51.3389 11.7666 51.3389 11.9717C51.3389 12.0771 51.3564 12.1562 51.3916 12.209C51.4326 12.2559 51.4854 12.2793 51.5498 12.2793C51.6494 12.2793 51.7578 12.2354 51.875 12.1475C51.998 12.0537 52.3027 11.6904 52.7891 11.0576L53.0527 11.2598C52.5898 11.9922 52.1152 12.5312 51.6289 12.877C51.3066 13.0996 50.9961 13.2109 50.6973 13.2109C50.4688 13.2109 50.29 13.1465 50.1611 13.0176C50.0322 12.8887 49.9678 12.7217 49.9678 12.5166C49.9678 12.3174 50.0059 12.0537 50.082 11.7256C50.1758 11.292 50.4424 10.3486 50.8818 8.89551C49.8857 10.5303 49.0508 11.6582 48.377 12.2793C47.709 12.9004 47.0879 13.2109 46.5137 13.2109C46.2441 13.2109 46.0156 13.1172 45.8281 12.9297C45.6406 12.7422 45.5469 12.5049 45.5469 12.2178C45.5469 11.7783 45.6758 11.1045 45.9336 10.1963L46.6982 7.48047C46.8857 6.83008 46.9795 6.42578 46.9795 6.26758C46.9795 6.19727 46.9531 6.13867 46.9004 6.0918C46.8535 6.03906 46.8008 6.0127 46.7422 6.0127C46.6191 6.0127 46.4961 6.05664 46.373 6.14453C46.25 6.23242 45.9717 6.55762 45.5381 7.12012L45.2656 6.92676C45.7051 6.24707 46.1709 5.74609 46.6631 5.42383C47.0381 5.17188 47.3838 5.0459 47.7002 5.0459C47.917 5.0459 48.0928 5.11621 48.2275 5.25684C48.3682 5.3916 48.4385 5.56738 48.4385 5.78418C48.4385 6.10059 48.3213 6.66602 48.0869 7.48047L47.2607 10.3193C47.0322 11.0928 46.918 11.582 46.918 11.7871C46.918 11.8984 46.9531 11.9893 47.0234 12.0596C47.0996 12.124 47.1992 12.1562 47.3223 12.1562C47.5156 12.1562 47.7676 12.0596 48.0781 11.8662C48.3887 11.6729 48.8018 11.2451 49.3174 10.583C49.8389 9.91504 50.2666 9.29102 50.6006 8.71094C50.9404 8.125 51.3008 7.19629 51.6816 5.9248L51.875 5.25684H53.2109ZM62.2197 5.0459L61.6133 7.06738C62.252 6.31738 62.8203 5.79297 63.3184 5.49414C63.8223 5.19531 64.335 5.0459 64.8564 5.0459C65.3779 5.0459 65.8232 5.25391 66.1924 5.66992C66.5615 6.08008 66.7461 6.61621 66.7461 7.27832C66.7461 8.56738 66.2217 9.87988 65.1729 11.2158C64.124 12.5459 62.9023 13.2109 61.5078 13.2109C61.2148 13.2109 60.9541 13.1787 60.7256 13.1143C60.5029 13.0498 60.251 12.9355 59.9697 12.7715L59.3281 15.0391C59.1992 15.4844 59.1348 15.7744 59.1348 15.9092C59.1348 16.0381 59.167 16.1465 59.2314 16.2344C59.3018 16.3281 59.4131 16.3984 59.5654 16.4453C59.7178 16.498 60.0195 16.5244 60.4707 16.5244L60.3916 16.8496H56.252L56.3398 16.5244C56.8848 16.501 57.2539 16.4072 57.4473 16.2432C57.6348 16.0791 57.834 15.625 58.0449 14.8809L60.2686 7.18164C60.4033 6.69531 60.4707 6.39355 60.4707 6.27637C60.4707 6.11816 60.4238 5.99512 60.3301 5.90723C60.2422 5.81934 60.1045 5.77539 59.917 5.77539C59.7471 5.77539 59.5098 5.7959 59.2051 5.83691V5.49414L62.2197 5.0459ZM60.1719 12.0771C60.5352 12.5107 61.0244 12.7275 61.6396 12.7275C61.9443 12.7275 62.2549 12.6426 62.5713 12.4727C62.8877 12.3027 63.1953 12.0508 63.4941 11.7168C63.7988 11.3828 64.0713 10.999 64.3115 10.5654C64.5518 10.126 64.7656 9.61035 64.9531 9.01855C65.1465 8.42676 65.2432 7.84082 65.2432 7.26074C65.2432 6.79199 65.1348 6.43457 64.918 6.18848C64.707 5.93652 64.458 5.81055 64.1709 5.81055C63.5381 5.81055 62.9111 6.17383 62.29 6.90039C61.6748 7.62695 61.2236 8.47656 60.9365 9.44922L60.1719 12.0771ZM75.5615 7.79688C75.5615 8.67578 75.3271 9.5459 74.8584 10.4072C74.3955 11.2686 73.748 11.9512 72.916 12.4551C72.084 12.959 71.2754 13.2109 70.4902 13.2109C69.6875 13.2109 69.0312 12.9561 68.5215 12.4463C68.0176 11.9307 67.7656 11.2656 67.7656 10.4512C67.7656 9.58984 68.0117 8.72559 68.5039 7.8584C69.002 6.99121 69.6641 6.30566 70.4902 5.80176C71.3223 5.29785 72.125 5.0459 72.8984 5.0459C73.6719 5.0459 74.3076 5.30078 74.8057 5.81055C75.3096 6.32031 75.5615 6.98242 75.5615 7.79688ZM74.1025 7.19043C74.1025 6.64551 73.9678 6.22949 73.6982 5.94238C73.4346 5.64941 73.0918 5.50293 72.6699 5.50293C71.8086 5.50293 71.0146 6.12109 70.2881 7.35742C69.5674 8.58789 69.207 9.8125 69.207 11.0312C69.207 11.5879 69.3477 12.0186 69.6289 12.3232C69.9102 12.6221 70.2646 12.7715 70.6924 12.7715C71.5186 12.7715 72.292 12.1592 73.0127 10.9346C73.7393 9.7041 74.1025 8.45605 74.1025 7.19043ZM83.1904 11.084C82.5811 11.8164 81.9658 12.3555 81.3447 12.7012C80.7236 13.041 80.0674 13.2109 79.376 13.2109C78.5439 13.2109 77.8936 12.9766 77.4248 12.5078C76.9619 12.0391 76.7305 11.4092 76.7305 10.6182C76.7305 9.72168 76.9795 8.83984 77.4775 7.97266C77.9814 7.10547 78.6553 6.40234 79.499 5.86328C80.3486 5.31836 81.1807 5.0459 81.9951 5.0459C82.6338 5.0459 83.1113 5.18066 83.4277 5.4502C83.7441 5.71387 83.9023 6.03906 83.9023 6.42578C83.9023 6.78906 83.791 7.09961 83.5684 7.35742C83.4043 7.55664 83.2021 7.65625 82.9619 7.65625C82.7803 7.65625 82.6279 7.59766 82.5049 7.48047C82.3877 7.36328 82.3291 7.2168 82.3291 7.04102C82.3291 6.92969 82.3496 6.82715 82.3906 6.7334C82.4375 6.63965 82.5283 6.52832 82.6631 6.39941C82.8037 6.26465 82.8887 6.16797 82.918 6.10938C82.9473 6.05078 82.9619 5.98926 82.9619 5.9248C82.9619 5.80176 82.9062 5.69922 82.7949 5.61719C82.625 5.5 82.3848 5.44141 82.0742 5.44141C81.5 5.44141 80.9316 5.64355 80.3691 6.04785C79.8066 6.45215 79.3262 7.02637 78.9277 7.77051C78.4473 8.67285 78.207 9.5752 78.207 10.4775C78.207 11.0752 78.377 11.5498 78.7168 11.9014C79.0566 12.2471 79.5195 12.4199 80.1055 12.4199C80.5566 12.4199 81.002 12.3086 81.4414 12.0859C81.8867 11.8574 82.3848 11.4473 82.9355 10.8555L83.1904 11.084ZM88.1387 5.0459L86.9961 9.00977C87.5059 8.07812 87.9395 7.37793 88.2969 6.90918C88.8535 6.18262 89.3955 5.65527 89.9229 5.32715C90.2334 5.13965 90.5586 5.0459 90.8984 5.0459C91.1914 5.0459 91.4346 5.13965 91.6279 5.32715C91.8213 5.51465 91.918 5.75488 91.918 6.04785C91.918 6.33496 91.8506 6.70996 91.7158 7.17285L91.0918 9.40527C92.0469 7.61816 92.9521 6.36426 93.8076 5.64355C94.2822 5.24512 94.751 5.0459 95.2139 5.0459C95.4834 5.0459 95.7031 5.13965 95.873 5.32715C96.0488 5.50879 96.1367 5.79297 96.1367 6.17969C96.1367 6.51953 96.084 6.87988 95.9785 7.26074L95.0117 10.6797C94.8008 11.4238 94.6953 11.8369 94.6953 11.9189C94.6953 12.001 94.7217 12.0713 94.7744 12.1299C94.8096 12.1709 94.8564 12.1914 94.915 12.1914C94.9736 12.1914 95.0762 12.1357 95.2227 12.0244C95.5566 11.7666 95.8701 11.4268 96.1631 11.0049L96.4531 11.1895C96.3066 11.4238 96.0459 11.7461 95.6709 12.1562C95.3018 12.5664 94.9854 12.8447 94.7217 12.9912C94.458 13.1377 94.2148 13.2109 93.9922 13.2109C93.7871 13.2109 93.6143 13.1406 93.4736 13C93.3389 12.8594 93.2715 12.6865 93.2715 12.4814C93.2715 12.2002 93.3916 11.6348 93.6318 10.7852L94.4316 7.96387C94.6133 7.31348 94.71 6.95312 94.7217 6.88281C94.7393 6.77148 94.748 6.66309 94.748 6.55762C94.748 6.41113 94.7158 6.29688 94.6514 6.21484C94.5811 6.13281 94.502 6.0918 94.4141 6.0918C94.168 6.0918 93.9072 6.21777 93.6318 6.46973C92.8232 7.21387 92.0674 8.25684 91.3643 9.59863C90.9014 10.4834 90.4678 11.6172 90.0635 13H88.7363L90.2393 7.68262C90.4033 7.1084 90.4854 6.72461 90.4854 6.53125C90.4854 6.37305 90.4531 6.25586 90.3887 6.17969C90.3242 6.10352 90.2451 6.06543 90.1514 6.06543C89.958 6.06543 89.7529 6.13574 89.5361 6.27637C89.1846 6.50488 88.7305 6.99414 88.1738 7.74414C87.623 8.49414 87.1953 9.21191 86.8906 9.89746C86.7441 10.2197 86.3955 11.2539 85.8447 13H84.5439L86.1699 7.30469L86.3809 6.56641C86.4219 6.45508 86.4424 6.37305 86.4424 6.32031C86.4424 6.19141 86.3838 6.07715 86.2666 5.97754C86.1494 5.87207 86 5.81934 85.8184 5.81934C85.7422 5.81934 85.5312 5.85449 85.1855 5.9248L85.1064 5.59961L88.1387 5.0459ZM105.919 5.0459L104.205 11.0049L104.012 11.8047C103.994 11.8809 103.985 11.9453 103.985 11.998C103.985 12.0918 104.015 12.1738 104.073 12.2441C104.12 12.2969 104.179 12.3232 104.249 12.3232C104.325 12.3232 104.425 12.2764 104.548 12.1826C104.776 12.0127 105.081 11.6611 105.462 11.1279L105.761 11.3389C105.356 11.9482 104.94 12.4141 104.513 12.7363C104.085 13.0527 103.689 13.2109 103.326 13.2109C103.074 13.2109 102.884 13.1465 102.755 13.0176C102.632 12.8945 102.57 12.7129 102.57 12.4727C102.57 12.1855 102.635 11.8076 102.764 11.3389L102.948 10.6797C102.181 11.6816 101.475 12.3818 100.83 12.7803C100.367 13.0674 99.9131 13.2109 99.4678 13.2109C99.04 13.2109 98.6709 13.0352 98.3604 12.6836C98.0498 12.3262 97.8945 11.8369 97.8945 11.2158C97.8945 10.2842 98.1729 9.30273 98.7295 8.27148C99.292 7.23438 100.004 6.40527 100.865 5.78418C101.539 5.29199 102.175 5.0459 102.772 5.0459C103.13 5.0459 103.426 5.13965 103.66 5.32715C103.9 5.51465 104.082 5.8252 104.205 6.25879L104.521 5.25684L105.919 5.0459ZM102.79 5.50293C102.415 5.50293 102.017 5.67871 101.595 6.03027C100.997 6.52832 100.464 7.2666 99.9951 8.24512C99.5322 9.22363 99.3008 10.1084 99.3008 10.8994C99.3008 11.2979 99.4004 11.6143 99.5996 11.8486C99.7988 12.0771 100.027 12.1914 100.285 12.1914C100.924 12.1914 101.618 11.7197 102.368 10.7764C103.37 9.52246 103.871 8.23633 103.871 6.91797C103.871 6.41992 103.774 6.05957 103.581 5.83691C103.388 5.61426 103.124 5.50293 102.79 5.50293Z" fill="url(#paint0_linear_1_1155)"/>
<defs>
<linearGradient id="paint0_linear_1_1155" x1="13.8183" y1="-3" x2="13.8183" y2="16.9999" gradientUnits="userSpaceOnUse">
<stop stop-color="#FAA086"/>
<stop offset="1" stop-color="#E98467"/>
</linearGradient>
</defs>
</svg>
