<svg width="160" height="40" viewBox="0 0 160 40" fill="none" xmlns="http://www.w3.org/2000/svg">
<path d="M31.8271 35.9609V37H25.3125V36.0908L28.5732 32.4609C28.9743 32.0143 29.2842 31.6361 29.5029 31.3262C29.7262 31.0117 29.8812 30.7314 29.9678 30.4854C30.0589 30.2347 30.1045 29.9795 30.1045 29.7197C30.1045 29.3916 30.0361 29.0954 29.8994 28.8311C29.7673 28.5622 29.5713 28.348 29.3115 28.1885C29.0518 28.029 28.7373 27.9492 28.3682 27.9492C27.9261 27.9492 27.557 28.0358 27.2607 28.209C26.9691 28.3776 26.7503 28.6146 26.6045 28.9199C26.4587 29.2253 26.3857 29.5762 26.3857 29.9727H25.1211C25.1211 29.4121 25.2441 28.8994 25.4902 28.4346C25.7363 27.9697 26.1009 27.6006 26.584 27.3271C27.0671 27.0492 27.6618 26.9102 28.3682 26.9102C28.9971 26.9102 29.5348 27.0218 29.9814 27.2451C30.4281 27.4639 30.7699 27.7738 31.0068 28.1748C31.2484 28.5713 31.3691 29.0361 31.3691 29.5693C31.3691 29.861 31.319 30.1572 31.2188 30.458C31.123 30.7542 30.9886 31.0505 30.8154 31.3467C30.6468 31.6429 30.4486 31.9346 30.2207 32.2217C29.9974 32.5088 29.7581 32.7913 29.5029 33.0693L26.8369 35.9609H31.8271ZM37.3369 26.9922V37H36.0723V28.5713L33.5225 29.501V28.3594L37.1387 26.9922H37.3369ZM53.1689 33.4316V33.5752C53.1689 34.0947 53.112 34.5732 52.998 35.0107C52.8841 35.4437 52.7132 35.8197 52.4854 36.1387C52.262 36.4577 51.984 36.7061 51.6514 36.8838C51.3187 37.057 50.9336 37.1436 50.4961 37.1436C50.1361 37.1436 49.8193 37.0957 49.5459 37C49.2725 36.8997 49.04 36.7562 48.8486 36.5693C48.6618 36.3825 48.5114 36.1592 48.3975 35.8994C48.2881 35.6351 48.2129 35.3389 48.1719 35.0107V31.7295C48.2129 31.3786 48.2881 31.0641 48.3975 30.7861C48.5114 30.5081 48.6618 30.2712 48.8486 30.0752C49.04 29.8792 49.2702 29.7288 49.5391 29.624C49.8079 29.5192 50.1224 29.4668 50.4824 29.4668C50.8379 29.4668 51.1569 29.5306 51.4395 29.6582C51.7266 29.7812 51.9772 29.959 52.1914 30.1914C52.4102 30.4238 52.5902 30.7041 52.7314 31.0322C52.8773 31.3558 52.9867 31.7204 53.0596 32.126C53.1325 32.5316 53.1689 32.9668 53.1689 33.4316ZM51.9043 33.5752V33.4316C51.9043 33.1126 51.8815 32.8096 51.8359 32.5225C51.7949 32.2308 51.7288 31.9642 51.6377 31.7227C51.5511 31.4766 51.4372 31.2624 51.2959 31.0801C51.1546 30.8978 50.9837 30.7565 50.7832 30.6562C50.5872 30.556 50.3617 30.5059 50.1064 30.5059C49.833 30.5059 49.6051 30.54 49.4229 30.6084C49.2451 30.6768 49.1061 30.7679 49.0059 30.8818C48.9056 30.9912 48.8327 31.1074 48.7871 31.2305V35.5166C48.8418 35.6169 48.9215 35.7126 49.0264 35.8037C49.1312 35.8903 49.2725 35.9632 49.4502 36.0225C49.6279 36.0771 49.8512 36.1045 50.1201 36.1045C50.4391 36.1045 50.7103 36.0407 50.9336 35.9131C51.1615 35.7809 51.346 35.5986 51.4873 35.3662C51.6331 35.1338 51.738 34.8649 51.8018 34.5596C51.8701 34.2542 51.9043 33.9261 51.9043 33.5752ZM44.3848 33.5752V33.4316C44.3848 32.9668 44.4212 32.5316 44.4941 32.126C44.5671 31.7204 44.6764 31.3558 44.8223 31.0322C44.9681 30.7041 45.1481 30.4238 45.3623 30.1914C45.5811 29.959 45.8317 29.7812 46.1143 29.6582C46.4014 29.5306 46.7227 29.4668 47.0781 29.4668C47.429 29.4668 47.7344 29.5192 47.9941 29.624C48.2585 29.7288 48.4818 29.8792 48.6641 30.0752C48.8464 30.2712 48.9922 30.5081 49.1016 30.7861C49.2109 31.0641 49.2884 31.3786 49.334 31.7295V34.8809C49.293 35.2272 49.2178 35.5394 49.1084 35.8174C48.999 36.0954 48.8532 36.3346 48.6709 36.5352C48.4886 36.7311 48.263 36.8815 47.9941 36.9863C47.7298 37.0911 47.4199 37.1436 47.0645 37.1436C46.627 37.1436 46.2419 37.057 45.9092 36.8838C45.5765 36.7061 45.2962 36.4577 45.0684 36.1387C44.8451 35.8197 44.6742 35.4437 44.5557 35.0107C44.4417 34.5732 44.3848 34.0947 44.3848 33.5752ZM45.6562 33.4316V33.5752C45.6562 33.9261 45.6859 34.2542 45.7451 34.5596C45.8089 34.8649 45.9069 35.1338 46.0391 35.3662C46.1758 35.5986 46.3535 35.7809 46.5723 35.9131C46.791 36.0407 47.0599 36.1045 47.3789 36.1045C47.6523 36.1045 47.8779 36.0703 48.0557 36.002C48.2334 35.9336 48.3747 35.8447 48.4795 35.7354C48.5843 35.626 48.6641 35.512 48.7188 35.3936V31.2305C48.6732 31.1074 48.598 30.9912 48.4932 30.8818C48.3929 30.7679 48.2539 30.6768 48.0762 30.6084C47.8984 30.54 47.6706 30.5059 47.3926 30.5059C47.0736 30.5059 46.8024 30.5833 46.5791 30.7383C46.3558 30.8932 46.1758 31.1051 46.0391 31.374C45.9069 31.6429 45.8089 31.9551 45.7451 32.3105C45.6859 32.6615 45.6562 33.0352 45.6562 33.4316ZM48.0898 39.8438V26.5H49.3613V39.8438H48.0898ZM57.8926 37.1367C57.3776 37.1367 56.9105 37.0501 56.4912 36.877C56.0765 36.6992 55.7188 36.4508 55.418 36.1318C55.1217 35.8128 54.8939 35.4346 54.7344 34.9971C54.5749 34.5596 54.4951 34.0811 54.4951 33.5615V33.2744C54.4951 32.6729 54.584 32.1374 54.7617 31.668C54.9395 31.194 55.181 30.793 55.4863 30.4648C55.7917 30.1367 56.138 29.8883 56.5254 29.7197C56.9128 29.5511 57.3138 29.4668 57.7285 29.4668C58.2572 29.4668 58.7129 29.5579 59.0957 29.7402C59.4831 29.9225 59.7998 30.1777 60.0459 30.5059C60.292 30.8294 60.4743 31.2122 60.5928 31.6543C60.7113 32.0918 60.7705 32.5703 60.7705 33.0898V33.6572H55.2471V32.625H59.5059V32.5293C59.4876 32.2012 59.4193 31.8822 59.3008 31.5723C59.1868 31.2624 59.0046 31.0072 58.7539 30.8066C58.5033 30.6061 58.1615 30.5059 57.7285 30.5059C57.4414 30.5059 57.1771 30.5674 56.9355 30.6904C56.694 30.8089 56.4867 30.9867 56.3135 31.2236C56.1403 31.4606 56.0059 31.75 55.9102 32.0918C55.8145 32.4336 55.7666 32.8278 55.7666 33.2744V33.5615C55.7666 33.9124 55.8145 34.2428 55.9102 34.5527C56.0104 34.8581 56.154 35.127 56.3408 35.3594C56.5322 35.5918 56.7624 35.7741 57.0312 35.9062C57.3047 36.0384 57.6146 36.1045 57.9609 36.1045C58.4076 36.1045 58.7858 36.0133 59.0957 35.8311C59.4056 35.6488 59.6768 35.4049 59.9092 35.0996L60.6748 35.708C60.5153 35.9495 60.3125 36.1797 60.0664 36.3984C59.8203 36.6172 59.5173 36.7949 59.1572 36.9316C58.8018 37.0684 58.3802 37.1367 57.8926 37.1367ZM65.7197 33.7461H63.293L63.2793 32.7344H65.2617C65.6536 32.7344 65.9795 32.6956 66.2393 32.6182C66.5036 32.5407 66.7018 32.4245 66.834 32.2695C66.9661 32.1146 67.0322 31.9232 67.0322 31.6953C67.0322 31.5176 66.9935 31.3626 66.916 31.2305C66.8431 31.0938 66.7314 30.9821 66.5811 30.8955C66.4307 30.8044 66.2438 30.7383 66.0205 30.6973C65.8018 30.6517 65.5443 30.6289 65.248 30.6289H63.6279V37H62.3633V29.6035H65.248C65.7174 29.6035 66.139 29.6445 66.5127 29.7266C66.891 29.8086 67.2122 29.9339 67.4766 30.1025C67.7454 30.2666 67.9505 30.4762 68.0918 30.7314C68.2331 30.9867 68.3037 31.2874 68.3037 31.6338C68.3037 31.8571 68.2581 32.069 68.167 32.2695C68.0758 32.4701 67.9414 32.6478 67.7637 32.8027C67.5859 32.9577 67.3672 33.0853 67.1074 33.1855C66.8477 33.2812 66.5492 33.3428 66.2119 33.3701L65.7197 33.7461ZM65.7197 37H62.835L63.4639 35.9746H65.7197C66.0706 35.9746 66.3623 35.9313 66.5947 35.8447C66.8271 35.7536 67.0003 35.626 67.1143 35.4619C67.2327 35.2933 67.292 35.0928 67.292 34.8604C67.292 34.6279 67.2327 34.4297 67.1143 34.2656C67.0003 34.097 66.8271 33.9694 66.5947 33.8828C66.3623 33.7917 66.0706 33.7461 65.7197 33.7461H63.7988L63.8125 32.7344H66.2119L66.6699 33.1172C67.0755 33.1491 67.4196 33.2493 67.7021 33.418C67.9847 33.5866 68.1989 33.8008 68.3447 34.0605C68.4906 34.3158 68.5635 34.5938 68.5635 34.8945C68.5635 35.2409 68.4974 35.5462 68.3652 35.8105C68.2376 36.0749 68.0508 36.2959 67.8047 36.4736C67.5586 36.6468 67.2601 36.779 66.9092 36.8701C66.5583 36.9567 66.1618 37 65.7197 37ZM71.5234 31.0254V39.8438H70.252V29.6035H71.4141L71.5234 31.0254ZM76.5068 33.2402V33.3838C76.5068 33.9215 76.443 34.4206 76.3154 34.8809C76.1878 35.3366 76.001 35.7331 75.7549 36.0703C75.5133 36.4076 75.2148 36.6696 74.8594 36.8564C74.5039 37.0433 74.096 37.1367 73.6357 37.1367C73.1663 37.1367 72.7516 37.0592 72.3916 36.9043C72.0316 36.7493 71.7262 36.5238 71.4756 36.2275C71.2249 35.9313 71.0244 35.5758 70.874 35.1611C70.7282 34.7464 70.6279 34.2793 70.5732 33.7598V32.9941C70.6279 32.4473 70.7305 31.9574 70.8809 31.5244C71.0312 31.0915 71.2295 30.7223 71.4756 30.417C71.7262 30.1071 72.0293 29.8724 72.3848 29.7129C72.7402 29.5488 73.1504 29.4668 73.6152 29.4668C74.0801 29.4668 74.4925 29.5579 74.8525 29.7402C75.2126 29.918 75.5156 30.1732 75.7617 30.5059C76.0078 30.8385 76.1924 31.2373 76.3154 31.7021C76.443 32.1624 76.5068 32.6751 76.5068 33.2402ZM75.2354 33.3838V33.2402C75.2354 32.8711 75.1966 32.5247 75.1191 32.2012C75.0417 31.873 74.9209 31.5859 74.7568 31.3398C74.5973 31.0892 74.3923 30.8932 74.1416 30.752C73.891 30.6061 73.5924 30.5332 73.2461 30.5332C72.9271 30.5332 72.6491 30.5879 72.4121 30.6973C72.1797 30.8066 71.9814 30.9548 71.8174 31.1416C71.6533 31.3239 71.5189 31.5335 71.4141 31.7705C71.3138 32.0029 71.2386 32.2445 71.1885 32.4951V34.2656C71.2796 34.5846 71.4072 34.8854 71.5713 35.168C71.7354 35.446 71.9541 35.6715 72.2275 35.8447C72.501 36.0133 72.8451 36.0977 73.2598 36.0977C73.6016 36.0977 73.8955 36.027 74.1416 35.8857C74.3923 35.7399 74.5973 35.5417 74.7568 35.291C74.9209 35.0404 75.0417 34.7533 75.1191 34.4297C75.1966 34.1016 75.2354 33.7529 75.2354 33.3838ZM82.4814 35.7354V31.9277C82.4814 31.6361 82.4222 31.3831 82.3037 31.1689C82.1898 30.9502 82.0166 30.7816 81.7842 30.6631C81.5518 30.5446 81.2646 30.4854 80.9229 30.4854C80.6038 30.4854 80.3236 30.54 80.082 30.6494C79.8451 30.7588 79.6582 30.9023 79.5215 31.0801C79.3893 31.2578 79.3232 31.4492 79.3232 31.6543H78.0586C78.0586 31.39 78.127 31.1279 78.2637 30.8682C78.4004 30.6084 78.5964 30.3737 78.8516 30.1641C79.1113 29.9499 79.4212 29.7812 79.7812 29.6582C80.1458 29.5306 80.5514 29.4668 80.998 29.4668C81.5358 29.4668 82.0098 29.5579 82.4199 29.7402C82.8346 29.9225 83.1582 30.1982 83.3906 30.5674C83.6276 30.932 83.7461 31.39 83.7461 31.9414V35.3867C83.7461 35.6328 83.7666 35.8949 83.8076 36.1729C83.8532 36.4508 83.9193 36.6901 84.0059 36.8906V37H82.6865C82.6227 36.8542 82.5726 36.6605 82.5361 36.4189C82.4997 36.1729 82.4814 35.945 82.4814 35.7354ZM82.7002 32.5156L82.7139 33.4043H81.4355C81.0755 33.4043 80.7542 33.4339 80.4717 33.4932C80.1891 33.5479 79.9521 33.6322 79.7607 33.7461C79.5693 33.86 79.4235 34.0036 79.3232 34.1768C79.223 34.3454 79.1729 34.5436 79.1729 34.7715C79.1729 35.0039 79.2253 35.2158 79.3301 35.4072C79.4349 35.5986 79.5921 35.7513 79.8018 35.8652C80.016 35.9746 80.278 36.0293 80.5879 36.0293C80.9753 36.0293 81.3171 35.9473 81.6133 35.7832C81.9095 35.6191 82.1442 35.4186 82.3174 35.1816C82.4951 34.9447 82.5908 34.7145 82.6045 34.4912L83.1445 35.0996C83.1126 35.291 83.026 35.5029 82.8848 35.7354C82.7435 35.9678 82.5544 36.1911 82.3174 36.4053C82.085 36.6149 81.807 36.7904 81.4834 36.9316C81.1644 37.0684 80.8044 37.1367 80.4033 37.1367C79.902 37.1367 79.4622 37.0387 79.084 36.8428C78.7103 36.6468 78.4186 36.3848 78.209 36.0566C78.0039 35.724 77.9014 35.3525 77.9014 34.9424C77.9014 34.5459 77.9788 34.1973 78.1338 33.8965C78.2887 33.5911 78.512 33.3382 78.8037 33.1377C79.0954 32.9326 79.4463 32.7777 79.8564 32.6729C80.2666 32.568 80.7246 32.5156 81.2305 32.5156H82.7002ZM90.6777 29.6035V30.6494H87.1025V29.6035H90.6777ZM91.792 29.6035V37H90.5273V29.6035H91.792ZM86.7949 29.6035H88.0664L87.875 33.1719C87.8431 33.7233 87.7907 34.2109 87.7178 34.6348C87.6494 35.054 87.5537 35.4141 87.4307 35.7148C87.3122 36.0156 87.1618 36.2617 86.9795 36.4531C86.8018 36.64 86.5876 36.779 86.3369 36.8701C86.0863 36.9567 85.7969 37 85.4688 37H85.0723V35.8857L85.3457 35.8652C85.5417 35.8516 85.708 35.806 85.8447 35.7285C85.986 35.651 86.1045 35.5371 86.2002 35.3867C86.2959 35.2318 86.3734 35.0335 86.4326 34.792C86.4964 34.5505 86.5443 34.2633 86.5762 33.9307C86.6126 33.598 86.64 33.2106 86.6582 32.7686L86.7949 29.6035ZM95.3262 33.4727H96.6934L94.5537 37H93.1865L95.3262 33.4727ZM96.3857 29.6035H99.4756V37H98.2109V30.6289H96.3857C96.0257 30.6289 95.7318 30.6904 95.5039 30.8135C95.276 30.932 95.1097 31.0869 95.0049 31.2783C94.9001 31.4697 94.8477 31.668 94.8477 31.873C94.8477 32.0736 94.8955 32.2673 94.9912 32.4541C95.0869 32.6364 95.2373 32.7868 95.4424 32.9053C95.6475 33.0238 95.9118 33.083 96.2354 33.083H98.5527V34.1221H96.2354C95.8115 34.1221 95.4355 34.0651 95.1074 33.9512C94.7793 33.8372 94.5013 33.68 94.2734 33.4795C94.0456 33.2744 93.8724 33.0352 93.7539 32.7617C93.6354 32.4837 93.5762 32.1829 93.5762 31.8594C93.5762 31.5358 93.6377 31.2373 93.7607 30.9639C93.8883 30.6904 94.0706 30.4512 94.3076 30.2461C94.5492 30.041 94.8431 29.8838 95.1895 29.7744C95.5404 29.6605 95.9391 29.6035 96.3857 29.6035ZM111.37 35.9609V37H104.855V36.0908L108.116 32.4609C108.517 32.0143 108.827 31.6361 109.046 31.3262C109.269 31.0117 109.424 30.7314 109.511 30.4854C109.602 30.2347 109.647 29.9795 109.647 29.7197C109.647 29.3916 109.579 29.0954 109.442 28.8311C109.31 28.5622 109.114 28.348 108.854 28.1885C108.595 28.029 108.28 27.9492 107.911 27.9492C107.469 27.9492 107.1 28.0358 106.804 28.209C106.512 28.3776 106.293 28.6146 106.147 28.9199C106.002 29.2253 105.929 29.5762 105.929 29.9727H104.664C104.664 29.4121 104.787 28.8994 105.033 28.4346C105.279 27.9697 105.644 27.6006 106.127 27.3271C106.61 27.0492 107.205 26.9102 107.911 26.9102C108.54 26.9102 109.078 27.0218 109.524 27.2451C109.971 27.4639 110.313 27.7738 110.55 28.1748C110.791 28.5713 110.912 29.0361 110.912 29.5693C110.912 29.861 110.862 30.1572 110.762 30.458C110.666 30.7542 110.532 31.0505 110.358 31.3467C110.19 31.6429 109.992 31.9346 109.764 32.2217C109.54 32.5088 109.301 32.7913 109.046 33.0693L106.38 35.9609H111.37ZM118.972 31.2305V32.748C118.972 33.5638 118.899 34.252 118.753 34.8125C118.607 35.373 118.397 35.8242 118.124 36.166C117.851 36.5078 117.52 36.7562 117.133 36.9111C116.75 37.0615 116.317 37.1367 115.834 37.1367C115.451 37.1367 115.098 37.0889 114.774 36.9932C114.451 36.8975 114.159 36.7448 113.899 36.5352C113.644 36.321 113.425 36.043 113.243 35.7012C113.061 35.3594 112.922 34.9447 112.826 34.457C112.73 33.9694 112.683 33.3997 112.683 32.748V31.2305C112.683 30.4147 112.756 29.7311 112.901 29.1797C113.052 28.6283 113.264 28.1862 113.537 27.8535C113.811 27.5163 114.139 27.2747 114.521 27.1289C114.909 26.9831 115.342 26.9102 115.82 26.9102C116.208 26.9102 116.563 26.958 116.887 27.0537C117.215 27.1449 117.507 27.293 117.762 27.498C118.017 27.6986 118.233 27.9674 118.411 28.3047C118.593 28.6374 118.732 29.0452 118.828 29.5283C118.924 30.0114 118.972 30.5788 118.972 31.2305ZM117.7 32.9531V31.0186C117.7 30.5719 117.673 30.18 117.618 29.8428C117.568 29.501 117.493 29.2093 117.393 28.9678C117.292 28.7262 117.165 28.5303 117.01 28.3799C116.859 28.2295 116.684 28.1201 116.483 28.0518C116.287 27.9788 116.066 27.9424 115.82 27.9424C115.52 27.9424 115.253 27.9993 115.021 28.1133C114.788 28.2227 114.592 28.3981 114.433 28.6396C114.278 28.8812 114.159 29.1979 114.077 29.5898C113.995 29.9818 113.954 30.458 113.954 31.0186V32.9531C113.954 33.3997 113.979 33.7939 114.029 34.1357C114.084 34.4775 114.164 34.7738 114.269 35.0244C114.373 35.2705 114.501 35.4733 114.651 35.6328C114.802 35.7923 114.975 35.9108 115.171 35.9883C115.371 36.0612 115.592 36.0977 115.834 36.0977C116.144 36.0977 116.415 36.0384 116.647 35.9199C116.88 35.8014 117.074 35.6169 117.229 35.3662C117.388 35.111 117.507 34.7852 117.584 34.3887C117.661 33.9876 117.7 33.5091 117.7 32.9531ZM127.12 35.9609V37H120.605V36.0908L123.866 32.4609C124.267 32.0143 124.577 31.6361 124.796 31.3262C125.019 31.0117 125.174 30.7314 125.261 30.4854C125.352 30.2347 125.397 29.9795 125.397 29.7197C125.397 29.3916 125.329 29.0954 125.192 28.8311C125.06 28.5622 124.864 28.348 124.604 28.1885C124.345 28.029 124.03 27.9492 123.661 27.9492C123.219 27.9492 122.85 28.0358 122.554 28.209C122.262 28.3776 122.043 28.6146 121.897 28.9199C121.752 29.2253 121.679 29.5762 121.679 29.9727H120.414C120.414 29.4121 120.537 28.8994 120.783 28.4346C121.029 27.9697 121.394 27.6006 121.877 27.3271C122.36 27.0492 122.955 26.9102 123.661 26.9102C124.29 26.9102 124.828 27.0218 125.274 27.2451C125.721 27.4639 126.063 27.7738 126.3 28.1748C126.541 28.5713 126.662 29.0361 126.662 29.5693C126.662 29.861 126.612 30.1572 126.512 30.458C126.416 30.7542 126.282 31.0505 126.108 31.3467C125.94 31.6429 125.742 31.9346 125.514 32.2217C125.29 32.5088 125.051 32.7913 124.796 33.0693L122.13 35.9609H127.12ZM135.2 33.6504V34.6895H128.009V33.9443L132.466 27.0469H133.498L132.391 29.043L129.444 33.6504H135.2ZM133.812 27.0469V37H132.548V27.0469H133.812Z" fill="#FAA086"/>
<path d="M43.5565 0.851821C43.7433 0.493021 44.2567 0.493021 44.4435 0.851822L46.008 3.85675C46.0805 3.99597 46.2141 4.09307 46.3689 4.11898L49.7102 4.67832C50.1092 4.74511 50.2678 5.23336 49.9843 5.52189L47.6099 7.93838C47.4999 8.05034 47.4489 8.20745 47.472 8.36269L47.9726 11.7133C48.0324 12.1134 47.617 12.4151 47.255 12.2347L44.2231 10.7232C44.0826 10.6532 43.9174 10.6532 43.7769 10.7232L40.745 12.2347C40.383 12.4151 39.9676 12.1134 40.0274 11.7133L40.528 8.36269C40.5511 8.20745 40.5001 8.05034 40.3901 7.93838L38.0157 5.52189C37.7322 5.23336 37.8908 4.74511 38.2898 4.67832L41.6311 4.11898C41.7859 4.09307 41.9195 3.99597 41.992 3.85675L43.5565 0.851821Z" fill="#FAA086"/>
<path d="M61.5565 0.851821C61.7433 0.493021 62.2567 0.493021 62.4435 0.851822L64.008 3.85675C64.0805 3.99597 64.2141 4.09307 64.3689 4.11898L67.7102 4.67832C68.1092 4.74511 68.2678 5.23336 67.9843 5.52189L65.6099 7.93838C65.4999 8.05034 65.4489 8.20745 65.472 8.36269L65.9726 11.7133C66.0324 12.1134 65.617 12.4151 65.255 12.2347L62.2231 10.7232C62.0826 10.6532 61.9174 10.6532 61.7769 10.7232L58.745 12.2347C58.383 12.4151 57.9676 12.1134 58.0274 11.7133L58.528 8.36269C58.5511 8.20745 58.5001 8.05034 58.3901 7.93838L56.0157 5.52189C55.7322 5.23336 55.8908 4.74511 56.2898 4.67832L59.6311 4.11898C59.7859 4.09307 59.9195 3.99597 59.992 3.85675L61.5565 0.851821Z" fill="#FAA086"/>
<path d="M97.5565 0.851821C97.7433 0.493021 98.2567 0.493021 98.4435 0.851822L100.008 3.85675C100.08 3.99597 100.214 4.09307 100.369 4.11898L103.71 4.67832C104.109 4.74511 104.268 5.23336 103.984 5.52189L101.61 7.93838C101.5 8.05034 101.449 8.20745 101.472 8.36269L101.973 11.7133C102.032 12.1134 101.617 12.4151 101.255 12.2347L98.2231 10.7232C98.0826 10.6532 97.9174 10.6532 97.7769 10.7232L94.745 12.2347C94.383 12.4151 93.9676 12.1134 94.0274 11.7133L94.528 8.36269C94.5511 8.20745 94.5001 8.05034 94.3901 7.93838L92.0157 5.52189C91.7322 5.23336 91.8908 4.74511 92.2898 4.67832L95.6311 4.11898C95.7859 4.09307 95.9195 3.99597 95.992 3.85675L97.5565 0.851821Z" fill="#FAA086"/>
<path d="M79.5565 0.851821C79.7433 0.493021 80.2567 0.493021 80.4435 0.851822L82.008 3.85675C82.0805 3.99597 82.2141 4.09307 82.3689 4.11898L85.7102 4.67832C86.1092 4.74511 86.2678 5.23336 85.9843 5.52189L83.6099 7.93838C83.4999 8.05034 83.4489 8.20745 83.472 8.36269L83.9726 11.7133C84.0324 12.1134 83.617 12.4151 83.255 12.2347L80.2231 10.7232C80.0826 10.6532 79.9174 10.6532 79.7769 10.7232L76.745 12.2347C76.383 12.4151 75.9676 12.1134 76.0274 11.7133L76.528 8.36269C76.5511 8.20745 76.5001 8.05034 76.3901 7.93838L74.0157 5.52189C73.7322 5.23336 73.8908 4.74511 74.2898 4.67832L77.6311 4.11898C77.7859 4.09307 77.9195 3.99597 77.992 3.85675L79.5565 0.851821Z" fill="#FAA086"/>
<path d="M115.557 0.851821C115.743 0.493021 116.257 0.493021 116.443 0.851822L118.008 3.85675C118.08 3.99597 118.214 4.09307 118.369 4.11898L121.71 4.67832C122.109 4.74511 122.268 5.23336 121.984 5.52189L119.61 7.93838C119.5 8.05034 119.449 8.20745 119.472 8.36269L119.973 11.7133C120.032 12.1134 119.617 12.4151 119.255 12.2347L116.223 10.7232C116.083 10.6532 115.917 10.6532 115.777 10.7232L112.745 12.2347C112.383 12.4151 111.968 12.1134 112.027 11.7133L112.528 8.36269C112.551 8.20745 112.5 8.05034 112.39 7.93838L110.016 5.52189C109.732 5.23336 109.891 4.74511 110.29 4.67832L113.631 4.11898C113.786 4.09307 113.92 3.99597 113.992 3.85675L115.557 0.851821Z" fill="#FAA086"/>
</svg>
