<svg width="160" height="40" viewBox="0 0 160 40" fill="none" xmlns="http://www.w3.org/2000/svg">
<path d="M33.1328 35.9609V37H26.6182V36.0908L29.8789 32.4609C30.2799 32.0143 30.5898 31.6361 30.8086 31.3262C31.0319 31.0117 31.1868 30.7314 31.2734 30.4854C31.3646 30.2347 31.4102 29.9795 31.4102 29.7197C31.4102 29.3916 31.3418 29.0954 31.2051 28.8311C31.0729 28.5622 30.877 28.348 30.6172 28.1885C30.3574 28.029 30.043 27.9492 29.6738 27.9492C29.2318 27.9492 28.8626 28.0358 28.5664 28.209C28.2747 28.3776 28.056 28.6146 27.9102 28.9199C27.7643 29.2253 27.6914 29.5762 27.6914 29.9727H26.4268C26.4268 29.4121 26.5498 28.8994 26.7959 28.4346C27.042 27.9697 27.4066 27.6006 27.8896 27.3271C28.3727 27.0492 28.9674 26.9102 29.6738 26.9102C30.3027 26.9102 30.8405 27.0218 31.2871 27.2451C31.7337 27.4639 32.0755 27.7738 32.3125 28.1748C32.554 28.5713 32.6748 29.0361 32.6748 29.5693C32.6748 29.861 32.6247 30.1572 32.5244 30.458C32.4287 30.7542 32.2943 31.0505 32.1211 31.3467C31.9525 31.6429 31.7542 31.9346 31.5264 32.2217C31.3031 32.5088 31.0638 32.7913 30.8086 33.0693L28.1426 35.9609H33.1328ZM40.7617 34.3066C40.7617 34.9128 40.6204 35.4277 40.3379 35.8516C40.0599 36.2708 39.6816 36.5898 39.2031 36.8086C38.7292 37.0273 38.1937 37.1367 37.5967 37.1367C36.9997 37.1367 36.4619 37.0273 35.9834 36.8086C35.5049 36.5898 35.1266 36.2708 34.8486 35.8516C34.5706 35.4277 34.4316 34.9128 34.4316 34.3066C34.4316 33.9102 34.5068 33.5479 34.6572 33.2197C34.8122 32.887 35.0286 32.5977 35.3066 32.3516C35.5892 32.1055 35.9219 31.9163 36.3047 31.7842C36.6921 31.6475 37.1182 31.5791 37.583 31.5791C38.1937 31.5791 38.7383 31.6976 39.2168 31.9346C39.6953 32.167 40.0713 32.4883 40.3447 32.8984C40.6227 33.3086 40.7617 33.778 40.7617 34.3066ZM39.4902 34.2793C39.4902 33.9102 39.4105 33.5843 39.251 33.3018C39.0915 33.0146 38.8682 32.7913 38.5811 32.6318C38.2939 32.4723 37.9613 32.3926 37.583 32.3926C37.1956 32.3926 36.8607 32.4723 36.5781 32.6318C36.3001 32.7913 36.0837 33.0146 35.9287 33.3018C35.7738 33.5843 35.6963 33.9102 35.6963 34.2793C35.6963 34.6621 35.7715 34.9902 35.9219 35.2637C36.0768 35.5326 36.2956 35.7399 36.5781 35.8857C36.8652 36.027 37.2048 36.0977 37.5967 36.0977C37.9886 36.0977 38.3258 36.027 38.6084 35.8857C38.891 35.7399 39.1074 35.5326 39.2578 35.2637C39.4128 34.9902 39.4902 34.6621 39.4902 34.2793ZM40.5293 29.6377C40.5293 30.1208 40.4017 30.556 40.1465 30.9434C39.8913 31.3307 39.5426 31.6361 39.1006 31.8594C38.6585 32.0827 38.1572 32.1943 37.5967 32.1943C37.027 32.1943 36.5189 32.0827 36.0723 31.8594C35.6302 31.6361 35.2839 31.3307 35.0332 30.9434C34.7826 30.556 34.6572 30.1208 34.6572 29.6377C34.6572 29.0589 34.7826 28.5667 35.0332 28.1611C35.2884 27.7555 35.637 27.4456 36.0791 27.2314C36.5212 27.0173 37.0247 26.9102 37.5898 26.9102C38.1595 26.9102 38.6654 27.0173 39.1074 27.2314C39.5495 27.4456 39.8958 27.7555 40.1465 28.1611C40.4017 28.5667 40.5293 29.0589 40.5293 29.6377ZM39.2646 29.6582C39.2646 29.3255 39.194 29.0316 39.0527 28.7764C38.9115 28.5212 38.7155 28.3206 38.4648 28.1748C38.2142 28.0244 37.9225 27.9492 37.5898 27.9492C37.2572 27.9492 36.9655 28.0199 36.7148 28.1611C36.4688 28.2979 36.2751 28.4938 36.1338 28.749C35.9971 29.0042 35.9287 29.3073 35.9287 29.6582C35.9287 30 35.9971 30.2985 36.1338 30.5537C36.2751 30.8089 36.471 31.0072 36.7217 31.1484C36.9723 31.2897 37.264 31.3604 37.5967 31.3604C37.9294 31.3604 38.2188 31.2897 38.4648 31.1484C38.7155 31.0072 38.9115 30.8089 39.0527 30.5537C39.194 30.2985 39.2646 30 39.2646 29.6582ZM47.3037 29.6035H48.5684L48.459 32.3721C48.4316 33.0739 48.3519 33.68 48.2197 34.1904C48.0876 34.7008 47.9189 35.1361 47.7139 35.4961C47.5088 35.8516 47.2786 36.1501 47.0234 36.3916C46.7728 36.6331 46.513 36.8359 46.2441 37H45.6152L45.6494 35.9678L45.9092 35.9609C46.0596 35.7832 46.2054 35.6009 46.3467 35.4141C46.488 35.2227 46.6178 34.9971 46.7363 34.7373C46.8548 34.473 46.9528 34.1517 47.0303 33.7734C47.1123 33.3906 47.1647 32.9235 47.1875 32.3721L47.3037 29.6035ZM47.6182 29.6035H52.0684V37H50.8037V30.7725H47.6182V29.6035ZM45.3281 35.9609H53.0186V39.1807H51.7539V37H46.5928V39.1807H45.3213L45.3281 35.9609ZM57.4893 37.1367C56.9743 37.1367 56.5072 37.0501 56.0879 36.877C55.6732 36.6992 55.3154 36.4508 55.0146 36.1318C54.7184 35.8128 54.4906 35.4346 54.3311 34.9971C54.1715 34.5596 54.0918 34.0811 54.0918 33.5615V33.2744C54.0918 32.6729 54.1807 32.1374 54.3584 31.668C54.5361 31.194 54.7777 30.793 55.083 30.4648C55.3883 30.1367 55.7347 29.8883 56.1221 29.7197C56.5094 29.5511 56.9105 29.4668 57.3252 29.4668C57.8538 29.4668 58.3096 29.5579 58.6924 29.7402C59.0798 29.9225 59.3965 30.1777 59.6426 30.5059C59.8887 30.8294 60.071 31.2122 60.1895 31.6543C60.3079 32.0918 60.3672 32.5703 60.3672 33.0898V33.6572H54.8438V32.625H59.1025V32.5293C59.0843 32.2012 59.016 31.8822 58.8975 31.5723C58.7835 31.2624 58.6012 31.0072 58.3506 30.8066C58.0999 30.6061 57.7581 30.5059 57.3252 30.5059C57.0381 30.5059 56.7738 30.5674 56.5322 30.6904C56.2907 30.8089 56.0833 30.9867 55.9102 31.2236C55.737 31.4606 55.6025 31.75 55.5068 32.0918C55.4111 32.4336 55.3633 32.8278 55.3633 33.2744V33.5615C55.3633 33.9124 55.4111 34.2428 55.5068 34.5527C55.6071 34.8581 55.7507 35.127 55.9375 35.3594C56.1289 35.5918 56.359 35.7741 56.6279 35.9062C56.9014 36.0384 57.2113 36.1045 57.5576 36.1045C58.0042 36.1045 58.3825 36.0133 58.6924 35.8311C59.0023 35.6488 59.2734 35.4049 59.5059 35.0996L60.2715 35.708C60.112 35.9495 59.9092 36.1797 59.6631 36.3984C59.417 36.6172 59.1139 36.7949 58.7539 36.9316C58.3984 37.0684 57.9769 37.1367 57.4893 37.1367ZM63.2178 29.6035V37H61.9531V29.6035H63.2178ZM68.0713 29.6035L64.5645 33.8418H62.7939L62.6025 32.7344H64.0518L66.5332 29.6035H68.0713ZM66.7109 37L63.9902 33.6504L64.8037 32.7344L68.3174 37H66.7109ZM73.7793 35.7354V31.9277C73.7793 31.6361 73.7201 31.3831 73.6016 31.1689C73.4876 30.9502 73.3145 30.7816 73.082 30.6631C72.8496 30.5446 72.5625 30.4854 72.2207 30.4854C71.9017 30.4854 71.6214 30.54 71.3799 30.6494C71.1429 30.7588 70.9561 30.9023 70.8193 31.0801C70.6872 31.2578 70.6211 31.4492 70.6211 31.6543H69.3564C69.3564 31.39 69.4248 31.1279 69.5615 30.8682C69.6982 30.6084 69.8942 30.3737 70.1494 30.1641C70.4092 29.9499 70.7191 29.7812 71.0791 29.6582C71.4437 29.5306 71.8493 29.4668 72.2959 29.4668C72.8337 29.4668 73.3076 29.5579 73.7178 29.7402C74.1325 29.9225 74.4561 30.1982 74.6885 30.5674C74.9255 30.932 75.0439 31.39 75.0439 31.9414V35.3867C75.0439 35.6328 75.0645 35.8949 75.1055 36.1729C75.151 36.4508 75.2171 36.6901 75.3037 36.8906V37H73.9844C73.9206 36.8542 73.8704 36.6605 73.834 36.4189C73.7975 36.1729 73.7793 35.945 73.7793 35.7354ZM73.998 32.5156L74.0117 33.4043H72.7334C72.3734 33.4043 72.0521 33.4339 71.7695 33.4932C71.487 33.5479 71.25 33.6322 71.0586 33.7461C70.8672 33.86 70.7214 34.0036 70.6211 34.1768C70.5208 34.3454 70.4707 34.5436 70.4707 34.7715C70.4707 35.0039 70.5231 35.2158 70.6279 35.4072C70.7327 35.5986 70.89 35.7513 71.0996 35.8652C71.3138 35.9746 71.5758 36.0293 71.8857 36.0293C72.2731 36.0293 72.6149 35.9473 72.9111 35.7832C73.2074 35.6191 73.4421 35.4186 73.6152 35.1816C73.793 34.9447 73.8887 34.7145 73.9023 34.4912L74.4424 35.0996C74.4105 35.291 74.3239 35.5029 74.1826 35.7354C74.0413 35.9678 73.8522 36.1911 73.6152 36.4053C73.3828 36.6149 73.1048 36.7904 72.7812 36.9316C72.4622 37.0684 72.1022 37.1367 71.7012 37.1367C71.1999 37.1367 70.7601 37.0387 70.3818 36.8428C70.0081 36.6468 69.7165 36.3848 69.5068 36.0566C69.3018 35.724 69.1992 35.3525 69.1992 34.9424C69.1992 34.5459 69.2767 34.1973 69.4316 33.8965C69.5866 33.5911 69.8099 33.3382 70.1016 33.1377C70.3932 32.9326 70.7441 32.7777 71.1543 32.6729C71.5645 32.568 72.0225 32.5156 72.5283 32.5156H73.998ZM81.7773 26.3838H82.8164C82.8164 26.8304 82.748 27.1859 82.6113 27.4502C82.4746 27.71 82.2878 27.9105 82.0508 28.0518C81.8184 28.193 81.554 28.3001 81.2578 28.373C80.9661 28.446 80.6631 28.5166 80.3486 28.585C79.9567 28.667 79.5921 28.7969 79.2549 28.9746C78.9222 29.1478 78.6351 29.3939 78.3936 29.7129C78.1566 30.0319 77.9811 30.4466 77.8672 30.957C77.7578 31.4674 77.7282 32.0986 77.7783 32.8506V33.4795H76.7393V32.8506C76.7393 32.0075 76.819 31.2715 76.9785 30.6426C77.1426 30.0137 77.3727 29.4827 77.6689 29.0498C77.9652 28.6169 78.3161 28.2728 78.7217 28.0176C79.1318 27.7624 79.583 27.5869 80.0752 27.4912C80.4307 27.4229 80.736 27.3499 80.9912 27.2725C81.2464 27.1904 81.4401 27.0811 81.5723 26.9443C81.709 26.8076 81.7773 26.6208 81.7773 26.3838ZM80.2803 30.0273C80.7633 30.0273 81.194 30.1117 81.5723 30.2803C81.9505 30.4489 82.2718 30.6836 82.5361 30.9844C82.8005 31.2852 83.001 31.6406 83.1377 32.0508C83.279 32.4564 83.3496 32.8984 83.3496 33.377V33.5273C83.3496 34.0423 83.2744 34.5208 83.124 34.9629C82.9782 35.4004 82.7617 35.7832 82.4746 36.1113C82.1921 36.4349 81.8457 36.6878 81.4355 36.8701C81.0299 37.0524 80.5674 37.1436 80.0479 37.1436C79.5283 37.1436 79.0635 37.0524 78.6533 36.8701C78.2477 36.6878 77.9014 36.4349 77.6143 36.1113C77.3271 35.7832 77.1084 35.4004 76.958 34.9629C76.8122 34.5208 76.7393 34.0423 76.7393 33.5273V33.377C76.7393 33.263 76.7598 33.1514 76.8008 33.042C76.8418 32.9326 76.8919 32.821 76.9512 32.707C77.015 32.5931 77.0719 32.4723 77.1221 32.3447C77.2907 31.9346 77.5208 31.554 77.8125 31.2031C78.1087 30.8522 78.4619 30.5697 78.8721 30.3555C79.2868 30.1367 79.7562 30.0273 80.2803 30.0273ZM80.0342 31.0596C79.5693 31.0596 79.1865 31.1667 78.8857 31.3809C78.5895 31.5951 78.3685 31.8799 78.2227 32.2354C78.0768 32.5863 78.0039 32.9668 78.0039 33.377V33.5273C78.0039 33.8737 78.0449 34.2018 78.127 34.5117C78.209 34.8216 78.332 35.0973 78.4961 35.3389C78.6647 35.5758 78.8766 35.7627 79.1318 35.8994C79.3916 36.0361 79.6969 36.1045 80.0479 36.1045C80.3988 36.1045 80.7018 36.0361 80.957 35.8994C81.2122 35.7627 81.4219 35.5758 81.5859 35.3389C81.75 35.0973 81.873 34.8216 81.9551 34.5117C82.0371 34.2018 82.0781 33.8737 82.0781 33.5273V33.377C82.0781 33.0671 82.0371 32.7731 81.9551 32.4951C81.873 32.2171 81.7477 31.971 81.5791 31.7568C81.415 31.5426 81.2031 31.374 80.9434 31.251C80.6882 31.1234 80.3851 31.0596 80.0342 31.0596ZM85.9268 31.0254V39.8438H84.6553V29.6035H85.8174L85.9268 31.0254ZM90.9102 33.2402V33.3838C90.9102 33.9215 90.8464 34.4206 90.7188 34.8809C90.5911 35.3366 90.4043 35.7331 90.1582 36.0703C89.9167 36.4076 89.6182 36.6696 89.2627 36.8564C88.9072 37.0433 88.4993 37.1367 88.0391 37.1367C87.5697 37.1367 87.1549 37.0592 86.7949 36.9043C86.4349 36.7493 86.1296 36.5238 85.8789 36.2275C85.6283 35.9313 85.4277 35.5758 85.2773 35.1611C85.1315 34.7464 85.0312 34.2793 84.9766 33.7598V32.9941C85.0312 32.4473 85.1338 31.9574 85.2842 31.5244C85.4346 31.0915 85.6328 30.7223 85.8789 30.417C86.1296 30.1071 86.4326 29.8724 86.7881 29.7129C87.1436 29.5488 87.5537 29.4668 88.0186 29.4668C88.4834 29.4668 88.8958 29.5579 89.2559 29.7402C89.6159 29.918 89.9189 30.1732 90.165 30.5059C90.4111 30.8385 90.5957 31.2373 90.7188 31.7021C90.8464 32.1624 90.9102 32.6751 90.9102 33.2402ZM89.6387 33.3838V33.2402C89.6387 32.8711 89.5999 32.5247 89.5225 32.2012C89.445 31.873 89.3242 31.5859 89.1602 31.3398C89.0007 31.0892 88.7956 30.8932 88.5449 30.752C88.2943 30.6061 87.9958 30.5332 87.6494 30.5332C87.3304 30.5332 87.0524 30.5879 86.8154 30.6973C86.583 30.8066 86.3848 30.9548 86.2207 31.1416C86.0566 31.3239 85.9222 31.5335 85.8174 31.7705C85.7171 32.0029 85.6419 32.2445 85.5918 32.4951V34.2656C85.6829 34.5846 85.8105 34.8854 85.9746 35.168C86.1387 35.446 86.3574 35.6715 86.6309 35.8447C86.9043 36.0133 87.2484 36.0977 87.6631 36.0977C88.0049 36.0977 88.2988 36.027 88.5449 35.8857C88.7956 35.7399 89.0007 35.5417 89.1602 35.291C89.3242 35.0404 89.445 34.7533 89.5225 34.4297C89.5999 34.1016 89.6387 33.7529 89.6387 33.3838ZM94.0205 33.4727H95.3877L93.248 37H91.8809L94.0205 33.4727ZM95.0801 29.6035H98.1699V37H96.9053V30.6289H95.0801C94.7201 30.6289 94.4261 30.6904 94.1982 30.8135C93.9704 30.932 93.804 31.0869 93.6992 31.2783C93.5944 31.4697 93.542 31.668 93.542 31.873C93.542 32.0736 93.5898 32.2673 93.6855 32.4541C93.7812 32.6364 93.9316 32.7868 94.1367 32.9053C94.3418 33.0238 94.6061 33.083 94.9297 33.083H97.2471V34.1221H94.9297C94.5059 34.1221 94.1299 34.0651 93.8018 33.9512C93.4736 33.8372 93.1956 33.68 92.9678 33.4795C92.7399 33.2744 92.5667 33.0352 92.4482 32.7617C92.3298 32.4837 92.2705 32.1829 92.2705 31.8594C92.2705 31.5358 92.332 31.2373 92.4551 30.9639C92.5827 30.6904 92.765 30.4512 93.002 30.2461C93.2435 30.041 93.5374 29.8838 93.8838 29.7744C94.2347 29.6605 94.6335 29.6035 95.0801 29.6035ZM110.064 35.9609V37H103.55V36.0908L106.811 32.4609C107.212 32.0143 107.521 31.6361 107.74 31.3262C107.964 31.0117 108.118 30.7314 108.205 30.4854C108.296 30.2347 108.342 29.9795 108.342 29.7197C108.342 29.3916 108.273 29.0954 108.137 28.8311C108.005 28.5622 107.809 28.348 107.549 28.1885C107.289 28.029 106.975 27.9492 106.605 27.9492C106.163 27.9492 105.794 28.0358 105.498 28.209C105.206 28.3776 104.988 28.6146 104.842 28.9199C104.696 29.2253 104.623 29.5762 104.623 29.9727H103.358C103.358 29.4121 103.481 28.8994 103.728 28.4346C103.974 27.9697 104.338 27.6006 104.821 27.3271C105.304 27.0492 105.899 26.9102 106.605 26.9102C107.234 26.9102 107.772 27.0218 108.219 27.2451C108.665 27.4639 109.007 27.7738 109.244 28.1748C109.486 28.5713 109.606 29.0361 109.606 29.5693C109.606 29.861 109.556 30.1572 109.456 30.458C109.36 30.7542 109.226 31.0505 109.053 31.3467C108.884 31.6429 108.686 31.9346 108.458 32.2217C108.235 32.5088 107.995 32.7913 107.74 33.0693L105.074 35.9609H110.064ZM117.666 31.2305V32.748C117.666 33.5638 117.593 34.252 117.447 34.8125C117.301 35.373 117.092 35.8242 116.818 36.166C116.545 36.5078 116.215 36.7562 115.827 36.9111C115.444 37.0615 115.011 37.1367 114.528 37.1367C114.146 37.1367 113.792 37.0889 113.469 36.9932C113.145 36.8975 112.854 36.7448 112.594 36.5352C112.339 36.321 112.12 36.043 111.938 35.7012C111.755 35.3594 111.616 34.9447 111.521 34.457C111.425 33.9694 111.377 33.3997 111.377 32.748V31.2305C111.377 30.4147 111.45 29.7311 111.596 29.1797C111.746 28.6283 111.958 28.1862 112.231 27.8535C112.505 27.5163 112.833 27.2747 113.216 27.1289C113.603 26.9831 114.036 26.9102 114.515 26.9102C114.902 26.9102 115.257 26.958 115.581 27.0537C115.909 27.1449 116.201 27.293 116.456 27.498C116.711 27.6986 116.928 27.9674 117.105 28.3047C117.288 28.6374 117.427 29.0452 117.522 29.5283C117.618 30.0114 117.666 30.5788 117.666 31.2305ZM116.395 32.9531V31.0186C116.395 30.5719 116.367 30.18 116.312 29.8428C116.262 29.501 116.187 29.2093 116.087 28.9678C115.987 28.7262 115.859 28.5303 115.704 28.3799C115.554 28.2295 115.378 28.1201 115.178 28.0518C114.982 27.9788 114.761 27.9424 114.515 27.9424C114.214 27.9424 113.947 27.9993 113.715 28.1133C113.482 28.2227 113.286 28.3981 113.127 28.6396C112.972 28.8812 112.854 29.1979 112.771 29.5898C112.689 29.9818 112.648 30.458 112.648 31.0186V32.9531C112.648 33.3997 112.674 33.7939 112.724 34.1357C112.778 34.4775 112.858 34.7738 112.963 35.0244C113.068 35.2705 113.195 35.4733 113.346 35.6328C113.496 35.7923 113.669 35.9108 113.865 35.9883C114.066 36.0612 114.287 36.0977 114.528 36.0977C114.838 36.0977 115.109 36.0384 115.342 35.9199C115.574 35.8014 115.768 35.6169 115.923 35.3662C116.082 35.111 116.201 34.7852 116.278 34.3887C116.356 33.9876 116.395 33.5091 116.395 32.9531ZM125.814 35.9609V37H119.3V36.0908L122.561 32.4609C122.962 32.0143 123.271 31.6361 123.49 31.3262C123.714 31.0117 123.868 30.7314 123.955 30.4854C124.046 30.2347 124.092 29.9795 124.092 29.7197C124.092 29.3916 124.023 29.0954 123.887 28.8311C123.755 28.5622 123.559 28.348 123.299 28.1885C123.039 28.029 122.725 27.9492 122.355 27.9492C121.913 27.9492 121.544 28.0358 121.248 28.209C120.956 28.3776 120.738 28.6146 120.592 28.9199C120.446 29.2253 120.373 29.5762 120.373 29.9727H119.108C119.108 29.4121 119.231 28.8994 119.478 28.4346C119.724 27.9697 120.088 27.6006 120.571 27.3271C121.054 27.0492 121.649 26.9102 122.355 26.9102C122.984 26.9102 123.522 27.0218 123.969 27.2451C124.415 27.4639 124.757 27.7738 124.994 28.1748C125.236 28.5713 125.356 29.0361 125.356 29.5693C125.356 29.861 125.306 30.1572 125.206 30.458C125.11 30.7542 124.976 31.0505 124.803 31.3467C124.634 31.6429 124.436 31.9346 124.208 32.2217C123.985 32.5088 123.745 32.7913 123.49 33.0693L120.824 35.9609H125.814ZM129.014 31.4014H129.916C130.358 31.4014 130.723 31.3285 131.01 31.1826C131.301 31.0322 131.518 30.8294 131.659 30.5742C131.805 30.3145 131.878 30.0228 131.878 29.6992C131.878 29.3164 131.814 28.9951 131.687 28.7354C131.559 28.4756 131.368 28.2796 131.112 28.1475C130.857 28.0153 130.534 27.9492 130.142 27.9492C129.786 27.9492 129.472 28.0199 129.198 28.1611C128.929 28.2979 128.717 28.4938 128.562 28.749C128.412 29.0042 128.337 29.305 128.337 29.6514H127.072C127.072 29.1455 127.2 28.6852 127.455 28.2705C127.71 27.8558 128.068 27.5254 128.528 27.2793C128.993 27.0332 129.531 26.9102 130.142 26.9102C130.743 26.9102 131.27 27.0173 131.721 27.2314C132.172 27.4411 132.523 27.7555 132.773 28.1748C133.024 28.5895 133.149 29.1068 133.149 29.7266C133.149 29.9772 133.09 30.2461 132.972 30.5332C132.858 30.8158 132.678 31.0801 132.432 31.3262C132.19 31.5723 131.876 31.7751 131.488 31.9346C131.101 32.0895 130.636 32.167 130.094 32.167H129.014V31.4014ZM129.014 32.4404V31.6816H130.094C130.727 31.6816 131.251 31.7568 131.666 31.9072C132.081 32.0576 132.407 32.2581 132.644 32.5088C132.885 32.7594 133.054 33.0352 133.149 33.3359C133.25 33.6322 133.3 33.9284 133.3 34.2246C133.3 34.6895 133.22 35.1019 133.061 35.4619C132.906 35.8219 132.685 36.1273 132.397 36.3779C132.115 36.6286 131.782 36.8177 131.399 36.9453C131.017 37.0729 130.6 37.1367 130.148 37.1367C129.715 37.1367 129.308 37.0752 128.925 36.9521C128.547 36.8291 128.212 36.6514 127.92 36.4189C127.628 36.182 127.4 35.8926 127.236 35.5508C127.072 35.2044 126.99 34.8102 126.99 34.3682H128.255C128.255 34.7145 128.33 35.0176 128.48 35.2773C128.635 35.5371 128.854 35.7399 129.137 35.8857C129.424 36.027 129.761 36.0977 130.148 36.0977C130.536 36.0977 130.868 36.0316 131.146 35.8994C131.429 35.7627 131.646 35.5576 131.796 35.2842C131.951 35.0107 132.028 34.6667 132.028 34.252C132.028 33.8372 131.942 33.4977 131.769 33.2334C131.595 32.9645 131.349 32.7663 131.03 32.6387C130.716 32.5065 130.344 32.4404 129.916 32.4404H129.014Z" fill="#FAA086"/>
<path d="M43.5565 0.851821C43.7433 0.493021 44.2567 0.493021 44.4435 0.851822L46.008 3.85675C46.0805 3.99597 46.2141 4.09307 46.3689 4.11898L49.7102 4.67832C50.1092 4.74511 50.2678 5.23336 49.9843 5.52189L47.6099 7.93838C47.4999 8.05034 47.4489 8.20745 47.472 8.36269L47.9726 11.7133C48.0324 12.1134 47.617 12.4151 47.255 12.2347L44.2231 10.7232C44.0826 10.6532 43.9174 10.6532 43.7769 10.7232L40.745 12.2347C40.383 12.4151 39.9676 12.1134 40.0274 11.7133L40.528 8.36269C40.5511 8.20745 40.5001 8.05034 40.3901 7.93838L38.0157 5.52189C37.7322 5.23336 37.8908 4.74511 38.2898 4.67832L41.6311 4.11898C41.7859 4.09307 41.9195 3.99597 41.992 3.85675L43.5565 0.851821Z" fill="#FAA086"/>
<path d="M61.5565 0.851821C61.7433 0.493021 62.2567 0.493021 62.4435 0.851822L64.008 3.85675C64.0805 3.99597 64.2141 4.09307 64.3689 4.11898L67.7102 4.67832C68.1092 4.74511 68.2678 5.23336 67.9843 5.52189L65.6099 7.93838C65.4999 8.05034 65.4489 8.20745 65.472 8.36269L65.9726 11.7133C66.0324 12.1134 65.617 12.4151 65.255 12.2347L62.2231 10.7232C62.0826 10.6532 61.9174 10.6532 61.7769 10.7232L58.745 12.2347C58.383 12.4151 57.9676 12.1134 58.0274 11.7133L58.528 8.36269C58.5511 8.20745 58.5001 8.05034 58.3901 7.93838L56.0157 5.52189C55.7322 5.23336 55.8908 4.74511 56.2898 4.67832L59.6311 4.11898C59.7859 4.09307 59.9195 3.99597 59.992 3.85675L61.5565 0.851821Z" fill="#FAA086"/>
<path d="M97.5565 0.851821C97.7433 0.493021 98.2567 0.493021 98.4435 0.851822L100.008 3.85675C100.08 3.99597 100.214 4.09307 100.369 4.11898L103.71 4.67832C104.109 4.74511 104.268 5.23336 103.984 5.52189L101.61 7.93838C101.5 8.05034 101.449 8.20745 101.472 8.36269L101.973 11.7133C102.032 12.1134 101.617 12.4151 101.255 12.2347L98.2231 10.7232C98.0826 10.6532 97.9174 10.6532 97.7769 10.7232L94.745 12.2347C94.383 12.4151 93.9676 12.1134 94.0274 11.7133L94.528 8.36269C94.5511 8.20745 94.5001 8.05034 94.3901 7.93838L92.0157 5.52189C91.7322 5.23336 91.8908 4.74511 92.2898 4.67832L95.6311 4.11898C95.7859 4.09307 95.9195 3.99597 95.992 3.85675L97.5565 0.851821Z" fill="#FAA086"/>
<path d="M79.5565 0.851821C79.7433 0.493021 80.2567 0.493021 80.4435 0.851822L82.008 3.85675C82.0805 3.99597 82.2141 4.09307 82.3689 4.11898L85.7102 4.67832C86.1092 4.74511 86.2678 5.23336 85.9843 5.52189L83.6099 7.93838C83.4999 8.05034 83.4489 8.20745 83.472 8.36269L83.9726 11.7133C84.0324 12.1134 83.617 12.4151 83.255 12.2347L80.2231 10.7232C80.0826 10.6532 79.9174 10.6532 79.7769 10.7232L76.745 12.2347C76.383 12.4151 75.9676 12.1134 76.0274 11.7133L76.528 8.36269C76.5511 8.20745 76.5001 8.05034 76.3901 7.93838L74.0157 5.52189C73.7322 5.23336 73.8908 4.74511 74.2898 4.67832L77.6311 4.11898C77.7859 4.09307 77.9195 3.99597 77.992 3.85675L79.5565 0.851821Z" fill="#FAA086"/>
<path d="M115.557 0.851821C115.743 0.493021 116.257 0.493021 116.443 0.851822L118.008 3.85675C118.08 3.99597 118.214 4.09307 118.369 4.11898L121.71 4.67832C122.109 4.74511 122.268 5.23336 121.984 5.52189L119.61 7.93838C119.5 8.05034 119.449 8.20745 119.472 8.36269L119.973 11.7133C120.032 12.1134 119.617 12.4151 119.255 12.2347L116.223 10.7232C116.083 10.6532 115.917 10.6532 115.777 10.7232L112.745 12.2347C112.383 12.4151 111.968 12.1134 112.027 11.7133L112.528 8.36269C112.551 8.20745 112.5 8.05034 112.39 7.93838L110.016 5.52189C109.732 5.23336 109.891 4.74511 110.29 4.67832L113.631 4.11898C113.786 4.09307 113.92 3.99597 113.992 3.85675L115.557 0.851821Z" fill="#FAA086"/>
</svg>
