<svg width="86" height="14" viewBox="0 0 86 14" fill="none" xmlns="http://www.w3.org/2000/svg">
<path d="M6.55651 0.851821C6.74331 0.493021 7.25669 0.493021 7.44349 0.851822L9.00797 3.85675C9.08046 3.99597 9.21411 4.09307 9.36891 4.11898L12.7102 4.67832C13.1092 4.74511 13.2678 5.23336 12.9843 5.52189L10.6099 7.93838C10.4999 8.05033 10.4489 8.20745 10.472 8.36269L10.9726 11.7133C11.0324 12.1134 10.617 12.4151 10.255 12.2347L7.22307 10.7232C7.0826 10.6532 6.9174 10.6532 6.77693 10.7232L3.74498 12.2347C3.38296 12.4151 2.96763 12.1134 3.0274 11.7133L3.52796 8.36269C3.55115 8.20745 3.5001 8.05033 3.39009 7.93838L1.01569 5.52189C0.732175 5.23336 0.890816 4.74511 1.28978 4.67832L4.63109 4.11898C4.78589 4.09307 4.91954 3.99597 4.99203 3.85675L6.55651 0.851821Z" fill="#FAA086"/>
<path d="M24.5565 0.851821C24.7433 0.493021 25.2567 0.493021 25.4435 0.851822L27.008 3.85675C27.0805 3.99597 27.2141 4.09307 27.3689 4.11898L30.7102 4.67832C31.1092 4.74511 31.2678 5.23336 30.9843 5.52189L28.6099 7.93838C28.4999 8.05033 28.4489 8.20745 28.472 8.36269L28.9726 11.7133C29.0324 12.1134 28.617 12.4151 28.255 12.2347L25.2231 10.7232C25.0826 10.6532 24.9174 10.6532 24.7769 10.7232L21.745 12.2347C21.383 12.4151 20.9676 12.1134 21.0274 11.7133L21.528 8.36269C21.5511 8.20745 21.5001 8.05033 21.3901 7.93838L19.0157 5.52189C18.7322 5.23336 18.8908 4.74511 19.2898 4.67832L22.6311 4.11898C22.7859 4.09307 22.9195 3.99597 22.992 3.85675L24.5565 0.851821Z" fill="#FAA086"/>
<path d="M60.5565 0.851821C60.7433 0.493021 61.2567 0.493021 61.4435 0.851822L63.008 3.85675C63.0805 3.99597 63.2141 4.09307 63.3689 4.11898L66.7102 4.67832C67.1092 4.74511 67.2678 5.23336 66.9843 5.52189L64.6099 7.93838C64.4999 8.05033 64.4489 8.20745 64.472 8.36269L64.9726 11.7133C65.0324 12.1134 64.617 12.4151 64.255 12.2347L61.2231 10.7232C61.0826 10.6532 60.9174 10.6532 60.7769 10.7232L57.745 12.2347C57.383 12.4151 56.9676 12.1134 57.0274 11.7133L57.528 8.36269C57.5511 8.20745 57.5001 8.05033 57.3901 7.93838L55.0157 5.52189C54.7322 5.23336 54.8908 4.74511 55.2898 4.67832L58.6311 4.11898C58.7859 4.09307 58.9195 3.99597 58.992 3.85675L60.5565 0.851821Z" fill="#FAA086"/>
<path d="M42.5565 0.851821C42.7433 0.493021 43.2567 0.493021 43.4435 0.851822L45.008 3.85675C45.0805 3.99597 45.2141 4.09307 45.3689 4.11898L48.7102 4.67832C49.1092 4.74511 49.2678 5.23336 48.9843 5.52189L46.6099 7.93838C46.4999 8.05033 46.4489 8.20745 46.472 8.36269L46.9726 11.7133C47.0324 12.1134 46.617 12.4151 46.255 12.2347L43.2231 10.7232C43.0826 10.6532 42.9174 10.6532 42.7769 10.7232L39.745 12.2347C39.383 12.4151 38.9676 12.1134 39.0274 11.7133L39.528 8.36269C39.5511 8.20745 39.5001 8.05033 39.3901 7.93838L37.0157 5.52189C36.7322 5.23336 36.8908 4.74511 37.2898 4.67832L40.6311 4.11898C40.7859 4.09307 40.9195 3.99597 40.992 3.85675L42.5565 0.851821Z" fill="#FAA086"/>
<path d="M78.5565 0.851821C78.7433 0.493021 79.2567 0.493021 79.4435 0.851822L81.008 3.85675C81.0805 3.99597 81.2141 4.09307 81.3689 4.11898L84.7102 4.67832C85.1092 4.74511 85.2678 5.23336 84.9843 5.52189L82.6099 7.93838C82.4999 8.05033 82.4489 8.20745 82.472 8.36269L82.9726 11.7133C83.0324 12.1134 82.617 12.4151 82.255 12.2347L79.2231 10.7232C79.0826 10.6532 78.9174 10.6532 78.7769 10.7232L75.745 12.2347C75.383 12.4151 74.9676 12.1134 75.0274 11.7133L75.528 8.36269C75.5511 8.20745 75.5001 8.05033 75.3901 7.93838L73.0157 5.52189C72.7322 5.23336 72.8908 4.74511 73.2898 4.67832L76.6311 4.11898C76.7859 4.09307 76.9195 3.99597 76.992 3.85675L78.5565 0.851821Z" fill="#FAA086"/>
</svg>
